<?xml version="1.0" encoding="UTF-8" standalone="no"?>
<svg
   width="115"
   height="60"
   viewBox="0 0 115 60"
   fill="none"
   version="1.1"
   id="svg3"
   sodipodi:docname="hero-btn-arrow.svg"
   inkscape:version="1.4.2 (ebf0e940d0, 2025-05-08)"
   xmlns:inkscape="http://www.inkscape.org/namespaces/inkscape"
   xmlns:sodipodi="http://sodipodi.sourceforge.net/DTD/sodipodi-0.dtd"
   xmlns="http://www.w3.org/2000/svg"
   xmlns:svg="http://www.w3.org/2000/svg">
  <defs
     id="defs3" />
  <sodipodi:namedview
     id="namedview3"
     pagecolor="#505050"
     bordercolor="#eeeeee"
     borderopacity="1"
     inkscape:showpageshadow="0"
     inkscape:pageopacity="0"
     inkscape:pagecheckerboard="0"
     inkscape:deskcolor="#505050"
     inkscape:zoom="4.0478261"
     inkscape:cx="57.561762"
     inkscape:cy="29.892589"
     inkscape:window-width="1600"
     inkscape:window-height="863"
     inkscape:window-x="0"
     inkscape:window-y="0"
     inkscape:window-maximized="1"
     inkscape:current-layer="svg3" />
  <path
     d="M4 36.8961L23.9376 36.1543L15.7181 42.9096L14.2979 54.1451L4 36.8961Z"
     fill="#F8C822"
     id="path1"
     style="fill:#99c51d;fill-opacity:1" />
  <path
     d="M10.25 38.5902C10.1487 38.6974 10.1727 38.9371 10.3246 39.2735C10.4033 39.4528 10.5092 39.6487 10.6424 39.8611C10.7049 39.9742 10.781 40.0956 10.8707 40.2253L10.9985 40.4157C11.0501 40.4847 11.0882 40.5454 11.1399 40.6144C11.3465 40.8904 11.5805 41.183 11.8416 41.4922C11.9069 41.5695 11.9722 41.6468 12.0511 41.7324C12.1164 41.8097 12.1953 41.8953 12.2742 41.9809C12.4184 42.1438 12.5845 42.3013 12.7559 42.4808C13.0934 42.8177 13.4417 43.1988 13.8556 43.5635C14.0625 43.7458 14.2612 43.9419 14.4817 44.1325C14.5879 44.2347 14.7023 44.3232 14.8084 44.4254C14.9146 44.5276 15.029 44.616 15.157 44.7128C17.0058 46.2519 19.4029 47.8999 22.2506 49.3535C22.4359 49.4476 22.5994 49.5472 22.793 49.6276L23.3435 49.888C23.7223 50.0625 24.0793 50.2425 24.48 50.4116C24.8671 50.5723 25.2678 50.7414 25.6548 50.9022C25.8483 50.9826 26.0555 51.0712 26.249 51.1516C26.4508 51.2183 26.6579 51.307 26.8597 51.3736C27.0614 51.4402 27.2686 51.5289 27.4704 51.5955C27.6857 51.6705 27.8793 51.7509 28.1029 51.812C28.52 51.9536 28.9453 52.0814 29.3761 52.2313C29.4879 52.2619 29.5915 52.3062 29.7032 52.3368L29.995 52.4395C30.2186 52.5007 30.4285 52.5536 30.6521 52.6147C30.8757 52.6759 31.0993 52.7371 31.3093 52.79C31.5329 52.8512 31.7647 52.8986 31.9747 52.9515C32.1983 53.0127 32.4655 53.0629 32.7382 53.1353C32.8855 53.1687 33.0328 53.2021 33.1936 53.2439C33.3545 53.2856 33.5236 53.3136 33.6927 53.3416C34.0446 53.4058 34.4237 53.4867 34.8246 53.5621C34.9228 53.5844 35.0209 53.6067 35.141 53.6235C35.2473 53.6321 35.3592 53.6627 35.4656 53.6712C35.6837 53.7103 35.9102 53.7357 36.142 53.7832C38.0104 54.0772 40.3454 54.3367 43.0685 54.3823C43.7534 54.3868 44.4519 54.3996 45.1887 54.3795C45.5516 54.3942 45.9173 54.3731 46.2966 54.3603C46.6623 54.3392 47.0498 54.3127 47.4374 54.2862C47.6311 54.2729 47.8249 54.2596 48.0187 54.2463C48.1115 54.2466 48.2124 54.2331 48.3134 54.2196C48.4144 54.206 48.5072 54.2063 48.6082 54.1928C49.004 54.1525 49.3997 54.1122 49.8091 54.0802C50.0029 54.0669 50.2131 54.0261 50.4151 53.9991C50.6171 53.9721 50.8191 53.9451 51.021 53.918C51.4332 53.8502 51.8509 53.8045 52.2713 53.7229C52.6917 53.6414 53.1175 53.5819 53.5516 53.5086C53.6526 53.4951 53.7618 53.4678 53.871 53.4406C53.9802 53.4133 54.0812 53.3998 54.1904 53.3725C54.4088 53.318 54.6191 53.2772 54.8511 53.231C55.0696 53.1764 55.2934 53.144 55.5118 53.0894C55.7302 53.0349 55.9487 52.9804 56.1671 52.9258C56.3855 52.8713 56.604 52.8168 56.8306 52.7485C56.9398 52.7212 57.0491 52.694 57.1665 52.653L57.3412 52.6093L57.5024 52.5574C57.9474 52.4346 58.4008 52.298 58.8541 52.1615C58.9715 52.1205 59.0807 52.0932 59.1981 52.0522C59.3156 52.0112 59.4248 51.9839 59.5422 51.9429C59.7689 51.8746 59.9901 51.7843 60.225 51.7023C60.4599 51.6202 60.6865 51.5519 60.9078 51.4616C61.129 51.3713 61.3639 51.2892 61.5852 51.1989C61.8064 51.1086 62.0413 51.0265 62.2708 50.9224C62.3882 50.8814 62.5056 50.8404 62.6095 50.7911C62.7269 50.7501 62.8389 50.687 62.9564 50.646C63.4153 50.4378 63.8796 50.2517 64.3386 50.0435C64.5681 49.9395 64.7975 49.8354 65.0352 49.7175C65.2647 49.6134 65.4888 49.4873 65.7182 49.3832C66.6389 48.9311 67.5571 48.4211 68.478 47.8753C69.399 47.3295 70.3009 46.7533 71.1948 46.0972C72.0805 45.4549 72.9555 44.7685 73.8006 44.0076C74.022 43.8236 74.2163 43.6231 74.4241 43.4308C74.632 43.2385 74.8263 43.0379 75.0423 42.8319C75.2366 42.6313 75.4391 42.4169 75.6333 42.2163C75.7345 42.1092 75.8276 42.0157 75.9288 41.9086C76.03 41.8014 76.1312 41.6942 76.2188 41.5788C76.9796 40.7102 77.7078 39.8031 78.376 38.8406C78.5376 38.6014 78.721 38.3567 78.8826 38.1175C79.0306 37.87 79.2004 37.6171 79.3484 37.3695C79.6798 36.8773 79.9567 36.3517 80.2473 35.8346C80.4035 35.5733 80.5242 35.3092 80.6668 35.0396C80.8011 34.7838 80.9301 34.5058 81.0727 34.2363C81.1934 33.9721 81.3224 33.6942 81.4377 33.408L81.627 32.9981L81.6709 32.8935L81.7149 32.7889L81.8027 32.5798C81.918 32.2936 82.0251 32.0212 82.1405 31.735L82.2283 31.5259C82.2558 31.4488 82.2751 31.3855 82.3025 31.3084L82.451 30.8736C82.5445 30.5928 82.6462 30.2984 82.7397 30.0176C82.8195 29.7286 82.9076 29.4258 82.9875 29.1368L83.1141 28.7074C83.1472 28.5587 83.1803 28.41 83.2135 28.2614C83.2797 27.964 83.3459 27.6667 83.4122 27.3693C83.4453 27.2207 83.4784 27.072 83.4979 26.915L83.5837 26.4607L83.6694 26.0064L83.7082 25.7862C83.7138 25.7145 83.7277 25.6292 83.7333 25.5576C83.7723 25.2436 83.8167 24.9518 83.8557 24.6378C83.8752 24.4809 83.9083 24.3322 83.906 24.1807L83.9426 23.7152C83.9598 23.4067 83.9906 23.1066 84.0159 22.7843C84.0331 22.4758 84.0503 22.1674 84.0538 21.8506C84.0733 20.6055 84.0083 19.3465 83.8369 18.0789C83.6572 16.825 83.3712 15.5626 82.9186 14.3301C82.4661 13.0976 81.8742 11.9115 81.0966 10.8187C81.0449 10.7497 80.9933 10.6806 80.9552 10.6199L80.8002 10.4129C80.6969 10.2749 80.5989 10.159 80.4956 10.021C80.2807 9.75875 80.0303 9.49365 79.7581 9.23405C79.4859 8.97435 79.1564 8.71735 78.7804 8.50705C78.4126 8.28295 77.9846 8.09725 77.5074 7.99415C77.0656 7.89385 76.5827 7.86225 76.0859 7.91605C75.6028 7.97815 75.1413 8.12845 74.7314 8.34775C74.3216 8.56715 73.9798 8.82795 73.6789 9.11365C73.3781 9.39935 73.1263 9.69625 72.9017 10.0096C72.4609 10.6228 72.1536 11.2611 71.8955 11.9105C71.6592 12.5545 71.472 13.2096 71.3611 13.8925C71.3334 14.0632 71.3057 14.234 71.2779 14.4047L71.2613 14.5258L71.2528 14.6332L71.2277 14.8618L71.191 15.3273L71.1626 15.779C71.1513 15.9222 71.1454 16.0875 71.1341 16.2307L71.1193 16.6907C71.1022 16.9991 71.1069 17.3022 71.1116 17.6052C71.1221 18.8311 71.2036 20.0626 71.386 21.2807C71.5685 22.4987 71.8383 23.695 72.2256 24.8502C73.7063 29.5232 77.1015 33.5428 81.4628 35.3557C83.6325 36.2648 85.9812 36.5327 88.1838 36.2987C89.2919 36.1859 90.354 35.9323 91.3645 35.6099C92.3749 35.2875 93.3501 34.8685 94.2435 34.3998C96.0659 33.4651 97.6788 32.2903 99.0896 31.0488C100.51 29.7936 101.757 28.4525 102.822 27.0752C102.956 26.913 103.085 26.7288 103.219 26.5666C103.29 26.4786 103.34 26.3961 103.411 26.3081C103.468 26.2119 103.531 26.1377 103.589 26.0414C103.709 25.8709 103.83 25.7004 103.95 25.53C104.071 25.3595 104.191 25.189 104.298 25.0102C104.526 24.661 104.745 24.3255 104.964 23.9899C105.17 23.6461 105.375 23.3023 105.581 22.9585C106.373 21.6025 107.042 20.2654 107.613 18.9998C107.744 18.6861 107.884 18.3586 108.016 18.0449C108.148 17.7312 108.258 17.423 108.381 17.123C108.436 16.9689 108.505 16.8231 108.56 16.669C108.615 16.5149 108.662 16.3745 108.717 16.2204C108.818 15.9259 108.92 15.6314 109.013 15.3507C109.382 14.2057 109.693 13.1569 109.906 12.1796C109.961 11.9318 110.021 11.7061 110.068 11.472C110.115 11.238 110.154 11.0177 110.206 10.8057C110.245 10.5855 110.289 10.3873 110.32 10.1807C110.364 9.98255 110.395 9.77605 110.417 9.58325C110.453 9.39875 110.475 9.20595 110.503 9.03525C110.531 8.86455 110.558 8.69385 110.564 8.52855C110.603 8.21465 110.634 7.91445 110.662 7.65005C110.69 7.38575 110.701 7.14885 110.71 6.94775C110.719 6.74665 110.725 6.58145 110.722 6.42995C110.715 6.16265 110.704 6.02495 110.663 6.00005C110.628 5.99715 110.568 6.12925 110.491 6.38245C110.452 6.50915 110.411 6.67155 110.367 6.86975C110.322 7.06795 110.284 7.28825 110.207 7.54145C110.151 7.78925 110.071 8.07825 109.997 8.38935C109.956 8.55175 109.914 8.71425 109.873 8.87665C109.832 9.03905 109.782 9.21525 109.738 9.41345C109.688 9.58965 109.644 9.78785 109.586 9.97775C109.529 10.1676 109.476 10.3796 109.41 10.5833C109.344 10.787 109.292 10.999 109.231 11.2247C109.157 11.4421 109.096 11.6678 109.014 11.899C108.72 12.8266 108.354 13.8421 107.926 14.9319C107.819 15.2043 107.698 15.4685 107.583 15.7547C107.522 15.8867 107.467 16.0409 107.407 16.1729C107.338 16.3187 107.278 16.4508 107.209 16.5966C107.072 16.8883 106.957 17.1745 106.811 17.4799C106.674 17.7715 106.515 18.0686 106.37 18.374C105.761 19.579 105.048 20.8333 104.235 22.1011C104.024 22.4229 103.821 22.7308 103.602 23.0663C103.377 23.3798 103.145 23.707 102.92 24.0205C102.449 24.6528 101.962 25.3127 101.428 25.9256C100.38 27.1818 99.1626 28.41 97.7977 29.5111C96.4387 30.6343 94.9245 31.6441 93.2635 32.4332C91.6024 33.2222 89.7946 33.7905 87.9196 33.9427C86.9863 34.0119 86.0395 33.9791 85.1094 33.8252C84.8694 33.7915 84.6458 33.7305 84.414 33.683C84.2939 33.6662 84.1821 33.6355 84.0704 33.6049C83.9586 33.5743 83.8468 33.5438 83.7213 33.5049C83.4841 33.4355 83.2687 33.3605 83.0398 33.2773C82.819 33.1803 82.59 33.0971 82.3692 33.0001C80.6112 32.2105 79.0045 30.9501 77.7287 29.3849C77.084 28.5981 76.5159 27.7454 76.038 26.8352C75.56 25.9249 75.1723 24.957 74.8665 23.9452C74.2686 21.93 74.0039 19.7613 74.0477 17.5742C74.062 17.3015 74.0545 17.0343 74.0771 16.7479C74.0914 16.4752 74.1057 16.2025 74.1337 15.9381L74.1729 15.5306L74.2122 15.123L74.2427 14.9165L74.2512 14.809L74.265 14.7237C74.2817 14.6025 74.2984 14.4814 74.3287 14.3685C74.4226 13.9004 74.5603 13.4215 74.7442 12.9895C74.9145 12.5492 75.1393 12.142 75.3939 11.8094C75.6485 11.4767 75.9165 11.246 76.1324 11.1336C76.2362 11.0843 76.3318 11.0487 76.4245 11.049C76.5333 11.209 76.6397 11.2176 76.7515 11.2482C76.8496 11.2705 76.9668 11.3231 77.0894 11.3978C77.212 11.4725 77.3591 11.5996 77.5061 11.7267C77.6449 11.8675 77.8027 12.0387 77.9523 12.2237L78.178 12.53L78.295 12.6763C78.3413 12.7233 78.3657 12.7757 78.4037 12.8364C79.5292 14.4976 80.1898 16.5323 80.4383 18.6348C80.5693 19.6902 80.5993 20.7591 80.5638 21.8443C80.5495 22.117 80.5352 22.3897 80.529 22.6486C80.5011 22.913 80.4649 23.1911 80.4506 23.4638L80.4113 23.8714C80.4001 24.0146 80.3752 24.1495 80.3585 24.2707C80.3087 24.5405 80.2807 24.8049 80.2309 25.0747C80.2253 25.1463 80.206 25.2096 80.2004 25.2812L80.129 25.4629L80.0406 25.8593L79.9523 26.2558C79.9274 26.3907 79.9025 26.5256 79.864 26.6522C79.8006 26.9137 79.7372 27.1753 79.6737 27.4368C79.6352 27.5634 79.6103 27.6983 79.5718 27.825L79.4562 28.2048C79.3792 28.458 79.3021 28.7113 79.2169 28.9783C79.1398 29.2315 79.0409 29.4902 78.9503 29.7351L78.8429 30.1012C78.8237 30.1645 78.8044 30.2279 78.7715 30.2829L78.7001 30.4645C78.6012 30.7232 78.5106 30.9681 78.4063 31.2047L78.3349 31.3864L78.2992 31.4771L78.2635 31.568L78.0988 31.9368C77.9945 32.1734 77.8684 32.4154 77.7641 32.652C77.6462 32.8804 77.52 33.1225 77.4021 33.3509C77.2842 33.5792 77.1581 33.8213 77.0266 34.0413C76.7553 34.4952 76.5058 34.9434 76.2155 35.3669C76.0704 35.5786 75.9388 35.7988 75.7937 36.0105C75.6485 36.2222 75.4897 36.4257 75.3446 36.6374C74.7503 37.4761 74.0826 38.2511 73.4176 38.9904C73.3382 39.0921 73.2534 39.1718 73.1604 39.2652C73.0674 39.3586 72.9826 39.4382 72.9032 39.54C72.7254 39.7131 72.5613 39.8944 72.3835 40.0675C72.2057 40.2406 72.0142 40.4054 71.8364 40.5785C71.6586 40.7516 71.4808 40.9247 71.284 41.0674C70.5265 41.7128 69.7582 42.3141 68.9655 42.863C68.1646 43.4256 67.3475 43.9221 66.5167 44.4103C65.6942 44.8847 64.8526 45.3288 64.0003 45.7288C63.7926 45.8274 63.585 45.9261 63.3555 46.0301C63.1479 46.1288 62.9267 46.2191 62.719 46.3178C62.2984 46.493 61.8777 46.6682 61.4571 46.8434C61.3532 46.8927 61.2494 46.942 61.1402 46.9693C61.0364 47.0186 60.9272 47.0459 60.8234 47.0952C60.6103 47.1718 60.3973 47.2483 60.1979 47.3332C59.9849 47.4098 59.7718 47.4864 59.5724 47.5713C59.3676 47.6341 59.1546 47.7107 58.9498 47.7735C58.745 47.8363 58.5319 47.9129 58.3271 47.9757C58.2315 48.0113 58.1223 48.0386 58.0185 48.0879C57.9229 48.1235 57.8137 48.1507 57.7045 48.178C57.2812 48.2953 56.8798 48.4072 56.4702 48.5329L56.3173 48.5711L56.1644 48.6092C56.0552 48.6365 55.9678 48.6583 55.8586 48.6856C55.662 48.7347 55.4436 48.7892 55.247 48.8383C55.0504 48.8873 54.8402 48.9281 54.6436 48.9772C54.4334 49.018 54.245 49.0533 54.0348 49.0941C53.8382 49.1431 53.6362 49.1702 53.4397 49.2193C53.3387 49.2328 53.2431 49.2683 53.1421 49.2818C53.0411 49.2954 52.9455 49.3309 52.8445 49.3444C52.4541 49.4068 52.0638 49.4691 51.6734 49.5315C51.2831 49.5938 50.9009 49.6424 50.5188 49.691C50.3386 49.7126 50.1366 49.7396 49.9565 49.7612C49.7764 49.7828 49.5744 49.8098 49.4024 49.8176C49.0285 49.8525 48.6628 49.8735 48.3025 49.9167C48.2098 49.9164 48.1224 49.9383 48.0296 49.938C47.9368 49.9378 47.8495 49.9596 47.7567 49.9593C47.5848 49.9672 47.391 49.9804 47.2191 49.9883C46.8752 50.0039 46.5095 50.025 46.1657 50.0406C45.83 50.0425 45.4862 50.0581 45.1506 50.06C44.4847 50.0859 43.8381 50.0484 43.2105 50.0413C40.7113 49.9632 38.5836 49.6987 36.8707 49.4243C36.6525 49.3852 36.4479 49.3544 36.2433 49.3235C36.1452 49.3013 36.0388 49.2927 35.9406 49.2704C35.8424 49.2481 35.7442 49.2258 35.6597 49.2119C35.2806 49.131 34.9424 49.075 34.6124 49.0053C34.4515 48.9636 34.296 48.9439 34.1487 48.9105C34.0015 48.877 33.8678 48.8519 33.7424 48.813C33.4834 48.7489 33.2379 48.6932 33.0416 48.6486C32.8316 48.5958 32.6353 48.5512 32.4253 48.4983C32.2153 48.4454 32.0272 48.3871 31.8172 48.3342C31.6072 48.2813 31.4191 48.223 31.2091 48.1701L30.9092 48.0812C30.811 48.0589 30.7074 48.0145 30.6093 47.9923C30.2112 47.881 29.8213 47.7561 29.4314 47.6311C29.2433 47.5728 29.0415 47.5061 28.8534 47.4478C28.6653 47.3895 28.4635 47.3228 28.2836 47.2507C28.0955 47.1924 27.9073 47.1341 27.7274 47.062C27.5393 47.0036 27.3594 46.9315 27.1795 46.8595C26.8115 46.729 26.4516 46.5849 26.0836 46.4544C25.7238 46.3103 25.3776 46.1744 25.0178 46.0302L24.4916 45.8223C24.3117 45.7502 24.1537 45.6726 23.9874 45.6088C21.2725 44.4614 18.9072 43.2267 16.9618 42.0977C16.8392 42.023 16.7084 41.9621 16.5994 41.8957C16.4768 41.821 16.3678 41.7546 16.2452 41.6799C16.0272 41.5471 15.7957 41.406 15.5695 41.287C15.1254 41.0352 14.7249 40.7724 14.3299 40.5318C14.1392 40.4156 13.9484 40.2994 13.7714 40.1915C13.676 40.1334 13.5943 40.0836 13.5125 40.0338C13.4308 39.984 13.3491 39.9342 13.2537 39.8761C12.9268 39.6769 12.6135 39.4861 12.3328 39.3338C12.2647 39.2923 12.1966 39.2508 12.1202 39.2231C12.0521 39.1816 11.9976 39.1484 11.9295 39.1069C11.8069 39.0322 11.6761 38.9713 11.5671 38.9049C11.341 38.7858 11.1338 38.6971 10.9675 38.6334C10.5995 38.5029 10.3512 38.483 10.25 38.5902Z"
     fill="#F8C822"
     id="path2"
     style="fill:#99c51d;fill-opacity:1" />
  <path
     d="m 18.875761,47.8842 c 0.8446,0.5146 1.7193,1.01 2.6322,1.4723 0.0545,0.0332 0.1308,0.061 0.1853,0.0942 0.109,0.0664 0.2398,0.1273 0.357,0.18 l 0.5505,0.2603 c 0.1036,0.0444 0.2208,0.097 0.3162,0.1551 0.2616,0.1219 0.5369,0.2521 0.7985,0.3739 0.3871,0.1608 0.7741,0.3216 1.1612,0.4824 0.0763,0.0277 0.1445,0.0692 0.2208,0.0969 0.1308,0.061 0.2698,0.1082 0.387,0.1608 0.2018,0.0667 0.409,0.1553 0.6107,0.222 0.1663,0.0638 0.3326,0.1276 0.4989,0.1913 l 0.1035,0.0444 c 0.0491,0.0111 0.0764,0.0277 0.1255,0.0389 0.1663,0.0638 0.3325,0.1275 0.507,0.1776 l 0.5153,0.1638 c 0.2509,0.0778 0.5153,0.1639 0.7662,0.2417 0.0354,0.0028 0.0763,0.0277 0.1118,0.0306 0.0627,0.0194 0.139,0.0472 0.2154,0.0749 l 0.3135,0.0972 c 0.21,0.0529 0.4117,0.1195 0.6353,0.1807 l 0.0273,0.0166 c 0.2236,0.0612 0.4472,0.1224 0.6571,0.1753 0.1473,0.0334 0.2946,0.0668 0.4418,0.1003 0.0764,0.0277 0.1473,0.0334 0.2318,0.0474 l 0.7636,0.1838 c 0.0982,0.0223 0.1964,0.0446 0.3082,0.0752 l 0.1472,0.0334 c 0.0982,0.0223 0.2182,0.0391 0.3164,0.0614 0.0627,0.0195 0.12,0.0169 0.1827,0.0363 0.2046,0.0308 0.4146,0.0837 0.6464,0.1312 l 0.4991,0.0977 c 0.0354,0.0028 0.0709,0.0056 0.1118,0.0305 0.0627,0.0195 0.1336,0.0252 0.2045,0.0309 0.1064,0.0085 0.2182,0.0391 0.3246,0.0476 0.2182,0.0392 0.4446,0.0646 0.6765,0.112 1.0719,0.1653 2.0894,0.2974 3.1451,0.3965 1.2549,0.1079 2.5263,0.1884 3.7732,0.2164 0.1283,0.0031 0.2565,0.0062 0.3929,-0.0045 0.5567,0.0014 1.127,0.0112 1.7137,-0.0066 l 0.3711,10e-4 c 0.2428,-0.0022 0.4939,-0.018 0.7368,-0.0202 0.3083,-0.0185 0.6167,-0.037 0.9251,-0.0554 l 0.2156,-0.0188 c 0.0928,3e-4 0.1938,-0.0132 0.2866,-0.013 0.0927,2e-4 0.1937,-0.0133 0.2865,-0.013 0.0928,2e-4 0.1938,-0.0133 0.2948,-0.0268 0.101,-0.0135 0.1937,-0.0133 0.2947,-0.0268 l 0.3686,-0.0569 c 0.2729,-0.0213 0.554,-0.0564 0.8269,-0.0777 0.1583,-0.0161 0.3167,-0.0323 0.4832,-0.0622 0.0437,-0.0109 0.0791,-0.008 0.1228,-0.0189 0.0792,-0.0081 0.1802,-0.0216 0.2593,-0.0296 0.1228,-0.019 0.2457,-0.038 0.3685,-0.0569 0.101,-0.0135 0.202,-0.0271 0.3112,-0.0543 0.303,-0.0406 0.6278,-0.0866 0.939,-0.1408 0.2457,-0.038 0.4996,-0.0897 0.7453,-0.1276 l 0.535,-0.0868 c 0.101,-0.0135 0.202,-0.027 0.3195,-0.068 0.1092,-0.0273 0.2102,-0.0408 0.3194,-0.068 0.0874,-0.0218 0.1884,-0.0354 0.2757,-0.0572 0.1311,-0.0327 0.2539,-0.0517 0.385,-0.0844 l 0.6607,-0.1415 c 0.1529,-0.0382 0.314,-0.0901 0.4805,-0.12 l 0.1748,-0.0436 0.6635,-0.1774 c 0.1092,-0.0272 0.2184,-0.0545 0.3359,-0.0955 l 0.1747,-0.0436 0.1611,-0.0519 0.2267,-0.0683 c 0.3659,-0.1148 0.7455,-0.2212 1.1333,-0.3414 0.0436,-0.0109 0.0873,-0.0218 0.1174,-0.0411 0.0655,-0.0163 0.1529,-0.0381 0.2266,-0.0682 l 0.0874,-0.0218 c 0.0874,-0.0218 0.1611,-0.052 0.2567,-0.0875 l 0.1666,-0.0299 c 0.1693,-0.0657 0.344,-0.1093 0.5134,-0.175 0.2349,-0.082 0.4615,-0.1503 0.6828,-0.2406 l 0.0956,-0.0356 c 0.1911,-0.0711 0.3906,-0.156 0.5954,-0.2188 l 0.2867,-0.1067 c 0.1393,-0.0465 0.2732,-0.115 0.4125,-0.1615 l 0.3387,-0.1313 c 0.0737,-0.0301 0.1475,-0.0602 0.2212,-0.0904 0.0437,-0.0109 0.0738,-0.0301 0.1257,-0.0547 0.2431,-0.0958 0.4808,-0.2136 0.7238,-0.3094 0.2213,-0.0903 0.4508,-0.1944 0.6584,-0.2931 l 0.6967,-0.326 c 0.1338,-0.0685 0.2595,-0.1233 0.3934,-0.1918 0.1038,-0.0493 0.1857,-0.0932 0.2896,-0.1425 0.9507,-0.4713 1.8825,-0.9731 2.7515,-1.4942 0.9238,-0.5816 1.8421,-1.1852 2.6896,-1.7946 0.9158,-0.6615 1.7853,-1.37 2.6057,-2.0896 0.1832,-0.151 0.361,-0.3241 0.5388,-0.4972 0.0383,-0.033 0.0547,-0.0605 0.093,-0.0934 0.2079,-0.1923 0.3939,-0.3791 0.6018,-0.5714 l 0.0164,-0.0276 c 0.1231,-0.1126 0.2626,-0.2527 0.3803,-0.3874 0.0629,-0.0742 0.1395,-0.1401 0.2025,-0.2143 l 0.1395,-0.1402 c 0.0547,-0.0604 0.1094,-0.1209 0.1559,-0.1676 0.0301,-0.0192 0.0548,-0.0604 0.0848,-0.0796 0.063,-0.0743 0.1478,-0.1539 0.2107,-0.2282 0.9113,-1.0582 1.5765,-1.8911 2.1571,-2.7381 0.0494,-0.0825 0.1123,-0.1567 0.1616,-0.2392 0.1123,-0.1567 0.2328,-0.3272 0.3315,-0.4922 l 0.4876,-0.7536 c 0.2356,-0.363 0.4521,-0.7563 0.6659,-1.1139 0.0822,-0.1375 0.1508,-0.2833 0.2247,-0.4071 0.1069,-0.1788 0.2084,-0.3796 0.3016,-0.5667 0.0329,-0.055 0.0604,-0.1321 0.1015,-0.2008 0.248,0.1136 0.5097,0.2354 0.7577,0.349 1.0576,0.438 2.1892,0.7522 3.3485,0.8957 1.1156,0.1544 2.2426,0.1656 3.3725,0.0473 0.5323,-0.051 1.0755,-0.1515 1.627,-0.2658 0.5078,-0.1033 1.0266,-0.2562 1.5537,-0.4229 0.9667,-0.3116 1.9337,-0.7168 2.8791,-1.2102 0.8634,-0.4495 1.7324,-0.9706 2.5716,-1.5662 0.7627,-0.5297 1.5392,-1.1448 2.2833,-1.7985 1.3636,-1.1947 2.611599,-2.5358 3.731599,-3.9736 0.104,-0.143 0.213,-0.2639 0.317,-0.4069 0.025,-0.0412 0.063,-0.0742 0.088,-0.1155 l 0.041,-0.0687 c 0.055,-0.0605 0.096,-0.1292 0.151,-0.1897 0.057,-0.0963 0.12,-0.1705 0.178,-0.2667 0.104,-0.143 0.216,-0.2998 0.306,-0.451 l 0.041,-0.0688 c 0.025,-0.0412 0.05,-0.0825 0.088,-0.1155 0.096,-0.1292 0.178,-0.2667 0.274,-0.3959 0.066,-0.1101 0.153,-0.2255 0.219,-0.3355 0.153,-0.2255 0.293,-0.4593 0.447,-0.6848 l 0.616,-1.0314 c 0.735,-1.2598 1.417,-2.5885 2.032,-3.9588 0.132,-0.3137 0.272,-0.6411 0.404,-0.9548 0.087,-0.2091 0.167,-0.4045 0.233,-0.6082 0.044,-0.1046 0.088,-0.2091 0.132,-0.3137 l 0.178,-0.4541 0.017,-0.0275 c 0.047,-0.1403 0.093,-0.2807 0.154,-0.4128 l 0.09,-0.2449 c 0.075,-0.2174 0.141,-0.4211 0.22,-0.6165 0.416,-1.2854 0.702,-2.2928 0.892,-3.1711 0.025,-0.1349 0.064,-0.2615 0.089,-0.3964 l 0.074,-0.3111 c 0.033,-0.1487 0.061,-0.3194 0.086,-0.4543 0.019,-0.0633 0.025,-0.1349 0.039,-0.2203 l 0.113,-0.625 c 0.025,-0.135 0.05,-0.2699 0.075,-0.40475 0.005,-0.0716 0.016,-0.1211 0.022,-0.1928 0.025,-0.1349 0.042,-0.256 0.058,-0.3772 l 0.028,-0.1707 c 0.028,-0.1707 0.056,-0.3414 0.061,-0.5067 0.039,-0.3139 0.07,-0.6141 0.098,-0.8785 0.034,-0.2423 0.037,-0.4655 0.037,-0.6528 l 0.011,-0.0495 c 0.009,-0.2011 0.015,-0.3664 0.013,-0.5179 0.006,-0.2589 -0.019,-0.405 -0.046,-0.4216 -0.035,-0.0028 -0.096,0.12919 -0.173,0.38249 -0.038,0.1266 -0.08,0.28901 -0.124,0.48721 -0.019,0.0634 -0.025,0.13499 -0.052,0.21199 -0.025,0.1349 -0.066,0.29741 -0.108,0.45981 -0.055,0.2478 -0.135,0.5368 -0.209,0.8479 -0.033,0.1487 -0.075,0.3111 -0.124,0.4873 -0.042,0.1624 -0.091,0.3385 -0.135,0.5368 -0.02,0.0633 -0.039,0.1266 -0.053,0.2119 -0.03,0.1129 -0.068,0.23949 -0.085,0.36065 l -0.061,0.2257 c -0.038,0.1266 -0.077,0.2532 -0.115,0.3799 -0.028,0.077 -0.042,0.1624 -0.069,0.2394 -0.039,0.1266 -0.064,0.2616 -0.11,0.402 l -0.218,0.6743 c -0.25,0.823 -0.588,1.7615 -1.088,3.0329 -0.107,0.2724 -0.228,0.5365 -0.343,0.8227 -0.06,0.1321 -0.113,0.2504 -0.159,0.3908 l -0.025,0.0412 -0.197,0.4237 c -0.017,0.1212 -0.075,0.2175 -0.119,0.322 -0.085,0.1733 -0.164,0.3687 -0.258,0.5558 -0.137,0.2916 -0.296,0.5887 -0.441,0.8941 -0.666,1.3013 -1.379,2.5556 -2.135,3.7271 l -0.633,0.9653 c -0.137,0.198 -0.274,0.396 -0.424,0.5857 -0.088,0.1154 -0.184,0.2447 -0.258,0.3684 -0.463,0.6186 -0.95,1.2785 -1.492,1.9052 -1.102999,1.3166 -2.325599,2.5228 -3.637599,3.5992 -0.7028,0.585 -1.4299,1.1175 -2.1515,1.5784 -0.7899,0.5131 -1.5823,0.9683 -2.3828,1.3437 -1.8167,0.863 -3.6053,1.368 -5.3438,1.5095 -0.9552,0.0746 -1.8938,0.0281 -2.8102,-0.1175 -0.1555,-0.0197 -0.3164,-0.0614 -0.4855,-0.0894 -0.0627,-0.0194 -0.1473,-0.0334 -0.2182,-0.0391 -0.0982,-0.0223 -0.1964,-0.0446 -0.2863,-0.0806 -0.0136,-0.0083 -0.0355,-0.0029 -0.0627,-0.0195 l -0.1473,-0.0334 c -0.0627,-0.0194 -0.1254,-0.0389 -0.1964,-0.0446 -0.139,-0.0472 -0.278,-0.0944 -0.4035,-0.1333 -0.0899,-0.036 -0.1881,-0.0583 -0.278,-0.0943 l -0.0764,-0.0278 c -0.1935,-0.0804 -0.387,-0.1606 -0.5942,-0.2493 -0.2208,-0.097 -0.4469,-0.2162 -0.6731,-0.3352 l 0.0714,-0.1816 0.0714,-0.1817 c 0.0878,-0.2091 0.1703,-0.4403 0.2581,-0.6494 l 0.0879,-0.209 c 0.011,-0.0496 0.0357,-0.0909 0.0467,-0.1405 0.0165,-0.0275 0.0111,-0.0496 0.0275,-0.0771 l 0.1485,-0.4348 c 0.0357,-0.0908 0.066,-0.2036 0.1017,-0.2944 0.0577,-0.1899 0.1292,-0.3716 0.1869,-0.5616 l 0.2479,-0.8808 0.1348,-0.4432 c 0.0221,-0.0991 0.0442,-0.1982 0.0662,-0.2973 0.0111,-0.0496 0.0221,-0.0991 0.0331,-0.1487 l 0.0855,-0.3606 c 0.0496,-0.1762 0.0773,-0.3469 0.1269,-0.5231 0.0303,-0.1129 0.047,-0.234 0.0691,-0.3331 0.0028,-0.0358 0.0056,-0.0716 0.0166,-0.1212 l 0.0858,-0.4543 0.1245,-0.6746 c 0.011,-0.0496 0.0221,-0.0991 0.0195,-0.157 -0.0054,-0.022 0.011,-0.0495 0.0138,-0.0853 0.039,-0.314 0.0834,-0.6058 0.1224,-0.9198 0.0111,-0.0495 0.0085,-0.1074 0.0195,-0.157 0.0221,-0.0991 0.0224,-0.1927 0.0308,-0.3001 l 0.0367,-0.4655 c 0.0087,-0.201 0.0392,-0.4076 0.0561,-0.6224 l 0.0172,-0.3085 c 2e-4,-0.0936 4e-4,-0.1873 0.0143,-0.2726 0.0169,-0.2149 0.0202,-0.438 0.0235,-0.6611 0.0071,-0.6336 5e-4,-1.2754 -0.0307,-1.876 -0.0284,-0.6364 -0.0923,-1.2757 -0.1862,-1.8958 -0.0911,-0.6558 -0.2123,-1.2925 -0.3581,-1.8878 -0.1567,-0.6395 -0.3351,-1.2736 -0.5601,-1.8609 -0.477,-1.285 -1.0907,-2.4655 -1.8221,-3.5114 -0.0516,-0.069 -0.1033,-0.1381 -0.1414,-0.1988 l -0.155,-0.207 c -0.0326,-0.0386 -0.0653,-0.0773 -0.0843,-0.1076 -0.0707,-0.0994 -0.1496,-0.185 -0.2203,-0.2843 -0.2748,-0.31746 -0.4979,-0.56595 -0.7375,-0.78695 -0.2994,-0.2762 -0.6099,-0.50291 -0.9096,-0.68551 -0.0136,-0.0083 -0.0409,-0.02489 -0.0545,-0.03319 -0.395,-0.2407 -0.8312,-0.41261 -1.273,-0.51291 -0.4772,-0.1032 -0.9601,-0.13469 -1.4214,-0.07809 -0.4613,0.0567 -0.9364,0.1987 -1.3545,0.4318 -0.3716,0.1863 -0.7352,0.4526 -1.0661,0.7575 -0.2708,0.2665 -0.5362,0.5551 -0.7772,0.89595 -0.3944,0.5665 -0.7289,1.1882 -1.0063,1.9009 -0.2445,0.6577 -0.4235,1.2991 -0.5344,1.982 -0.0305,0.2065 -0.05,0.3635 -0.0831,0.5122 l -0.0167,0.1211 -0.0336,0.336 -0.0503,0.4572 -0.0284,0.4517 c 0.0026,0.0578 -0.0085,0.1074 -0.0059,0.1652 -2e-4,0.0937 -0.0087,0.2011 -0.0171,0.3085 l -0.0148,0.46 c -0.017,0.2148 -0.012,0.4242 -0.0071,0.6336 -3e-4,0.0936 -5e-4,0.1873 -7e-4,0.2809 0.0023,1.2397 0.0974,2.4795 0.2744,3.6755 0.1879,1.2401 0.4714,2.4447 0.8396,3.5695 0.2327,0.7609 0.531,1.5055 0.8812,2.2253 -0.3366,-0.7115 -0.6266,-1.4698 -0.8812,-2.2253 -0.3682,-1.1248 -0.6517,-2.3294 -0.8396,-3.5695 -0.177,-1.196 -0.2721,-2.4358 -0.2744,-3.6755 2e-4,-0.0936 4e-4,-0.1873 7e-4,-0.2809 -0.0049,-0.2094 -0.0016,-0.4325 0.0071,-0.6336 l 0.0148,-0.46 c 2e-4,-0.0936 0.0087,-0.2011 0.0171,-0.3085 -0.0026,-0.0578 0.0085,-0.1074 0.0059,-0.1652 l 0.0284,-0.4517 0.0839,-0.7932 0.0167,-0.1211 c 0.0112,-0.1432 0.039,-0.314 0.0831,-0.5122 0.1245,-0.6746 0.2899,-1.3243 0.5344,-1.982 0.2774,-0.7127 0.5847,-1.351 0.9926,-1.9092 0.241,-0.34085 0.4928,-0.63775 0.7773,-0.89595 0.3309,-0.3049 0.6863,-0.5574 1.0524,-0.7658 0.4317,-0.2248 0.8933,-0.37511 1.3546,-0.43181 0.4612,-0.0566 0.9305,-0.03339 1.4214,0.07811 0.4418,0.1003 0.8779,0.2722 1.273,0.5129 0.3269,0.1992 0.6646,0.4425 0.9913,0.7353 0.2396,0.221 0.4763,0.47779 0.7375,0.78695 0.0707,0.0993 0.1496,0.1849 0.2203,0.2843 0.019,0.0303 0.0517,0.069 0.0843,0.1076 l 0.155,0.207 c 0.0517,0.069 0.0898,0.1298 0.1278,0.1905 0.7532,1.0404 1.3723,2.243 1.8357,3.5197 0.225,0.5873 0.4034,1.2214 0.5601,1.8609 0.1458,0.5953 0.267,1.232 0.3581,1.8878 0.0803,0.6118 0.1442,1.2511 0.1862,1.8958 0.0312,0.6006 0.0378,1.2424 0.0307,1.876 -0.0033,0.2231 -0.0202,0.4379 -0.0235,0.6611 -0.0139,0.0853 -0.0141,0.179 -0.0143,0.2726 l -0.0172,0.3085 c -0.0087,0.2011 -0.0528,0.3993 -0.0615,0.6004 l -0.0367,0.4654 c -0.0084,0.1074 -0.0223,0.1928 -0.0308,0.3002 -0.011,0.0496 -0.0084,0.1074 -0.0195,0.157 -0.0307,0.3002 -0.0834,0.6058 -0.1224,0.9197 0.0054,0.0221 -0.011,0.0496 -0.0138,0.0854 -0.0111,0.0495 -0.0085,0.1074 -0.0195,0.157 l -0.0388,0.2202 -0.0857,0.4543 -0.0804,0.4764 c -0.011,0.0496 -0.0138,0.0854 -0.0166,0.1212 -0.0303,0.1128 -0.0388,0.2202 -0.0691,0.3331 -0.0496,0.1762 -0.0773,0.3469 -0.1269,0.5231 l -0.0855,0.3606 c -0.011,0.0496 -0.022,0.0991 -0.0331,0.1487 -0.022,0.0991 -0.0441,0.1982 -0.0662,0.2973 l -0.1266,0.4294 -0.2478,0.8809 c -0.0578,0.1899 -0.1238,0.3937 -0.1952,0.5753 -0.0357,0.0908 -0.066,0.2036 -0.1017,0.2944 l -0.1485,0.4348 c -0.0164,0.0275 -0.011,0.0496 -0.0275,0.0771 -0.011,0.0496 -0.0275,0.0771 -0.0385,0.1266 l -0.0878,0.2091 c -0.0879,0.2092 -0.1786,0.4541 -0.2664,0.6632 l -0.0714,0.1817 -0.0714,0.1816 c -1.09,-0.5703 -2.1195,-1.3663 -3.0394,-2.2832 l 0.0275,-0.0771 0.0714,-0.1816 c 0.0246,-0.0413 0.0275,-0.0771 0.0385,-0.1266 0.0082,-0.0138 0.011,-0.0496 0.0192,-0.0633 l 0.1292,-0.3716 c 0.0357,-0.0908 0.0714,-0.1816 0.0935,-0.2807 0.055,-0.1542 0.1182,-0.322 0.1731,-0.4761 l 0.0029,-0.0359 c 0.077,-0.2532 0.1458,-0.4927 0.2147,-0.7322 l 0.1155,-0.3798 c 0.0275,-0.0771 0.0414,-0.1624 0.0552,-0.2478 0.0111,-0.0495 0.0221,-0.0991 0.0332,-0.1487 l 0.0523,-0.2119 c 0.0442,-0.1983 0.102,-0.3882 0.1379,-0.5727 0.0221,-0.0991 0.0442,-0.1982 0.0663,-0.2973 0.0028,-0.0358 0.0192,-0.0633 0.022,-0.0991 l 0.0884,-0.3964 0.1188,-0.603 c 0.0111,-0.0496 0.0139,-0.0854 0.0249,-0.1349 -0.0054,-0.0221 0.0111,-0.0496 0.0057,-0.0716 l 0.1275,-0.8041 c 0.0111,-0.0495 0.0221,-0.0991 0.0249,-0.1349 0.0139,-0.0853 0.0277,-0.1707 0.0416,-0.2561 l 0.0392,-0.4076 c 0.028,-0.2643 0.0642,-0.5425 0.0785,-0.8151 2e-4,-0.0937 0.0141,-0.1791 0.0226,-0.2865 0.0058,-0.1652 0.0199,-0.3443 0.034,-0.5233 0.0301,-1.1073 0.0083,-2.1899 -0.1255,-3.2095 -0.1282,-1.0912 -0.3549,-2.111 -0.6799,-3.0595 -0.3495,-1.0009 -0.7973,-1.9303 -1.341,-2.7306 -0.0245,-0.0524 -0.0707,-0.0994 -0.1088,-0.1601 l -0.1169,-0.1463 -0.2257,-0.3063 c -0.1687,-0.2153 -0.3129,-0.3782 -0.4463,-0.497 -0.1524,-0.1492 -0.294,-0.2542 -0.4166,-0.3289 -0.0137,-0.0083 -0.0273,-0.0166 -0.0273,-0.0166 -0.0953,-0.0581 -0.1989,-0.1024 -0.3107,-0.133 -0.1118,-0.0306 -0.2182,-0.0392 -0.3192,-0.0257 -0.101,0.0135 -0.1884,0.0354 -0.2922,0.0847 -0.2294,0.1041 -0.5057,0.3485 -0.7384,0.6757 -0.2464,0.3189 -0.4712,0.7261 -0.6497,1.1801 -0.1785,0.4541 -0.3298,0.9247 -0.4155,1.379 -0.0221,0.0992 -0.047,0.2341 -0.0637,0.3552 l -0.0139,0.0854 -0.0307,0.3002 -0.0202,0.4379 -0.0393,0.4076 c -0.0197,0.2506 -0.0477,0.515 -0.0456,0.7602 l 0.0026,0.0579 c -0.0141,0.179 -0.0146,0.3663 -0.015,0.5536 -3e-4,0.0937 -5e-4,0.1873 -0.0061,0.2589 -0.0219,1.0936 0.0271,2.1929 0.1664,3.2345 0.1364,1.0774 0.3602,2.133 0.6606,3.1227 0.3029,1.0476 0.7043,2.0238 1.1714,2.89 0.478,0.9103 1.0461,1.763 1.6908,2.5497 0.2938,0.3479 0.6095,0.6903 0.9197,1.0106 l -0.2882,0.6687 -0.1071,0.2724 -0.214,0.4512 -0.3347,0.7154 c -0.0686,0.1458 -0.1426,0.2696 -0.2111,0.4155 -0.0576,0.0962 -0.0933,0.187 -0.1508,0.2832 -0.0411,0.0688 -0.0686,0.1459 -0.1097,0.2146 -0.0768,0.1596 -0.1755,0.3246 -0.2659,0.4759 -0.0822,0.1375 -0.1562,0.2613 -0.2302,0.385 -0.1891,0.3163 -0.3645,0.641 -0.5809,0.9407 l -0.4218,0.6435 c -0.0958,0.1292 -0.1917,0.2584 -0.2875,0.3876 -0.063,0.0742 -0.1123,0.1568 -0.1752,0.231 -0.649,0.8991 -1.3715,1.7346 -1.927,2.353 -0.0629,0.0742 -0.1177,0.1347 -0.186,0.1869 -0.0301,0.0192 -0.0465,0.0467 -0.0848,0.0796 -0.0848,0.0797 -0.156,0.1677 -0.2407,0.2473 l -0.0165,0.0275 c -0.0629,0.0742 -0.1313,0.1264 -0.1942,0.2006 -0.1095,0.1209 -0.2243,0.2198 -0.3338,0.3407 -0.1778,0.1731 -0.3692,0.3379 -0.547,0.511 -0.0383,0.033 -0.0684,0.0522 -0.093,0.0934 -0.1396,0.1401 -0.2927,0.272 -0.4458,0.4038 -0.7274,0.6262 -1.5176,1.2329 -2.3185,1.7956 -0.7708,0.5434 -1.5962,1.0536 -2.4488,1.5473 -0.7925,0.4552 -1.634,0.8993 -2.5165,1.3185 l -0.6447,0.3014 c -0.2076,0.0986 -0.407,0.1835 -0.6147,0.2821 l -0.0218,0.0054 c -0.3032,0.1342 -0.5982,0.2547 -0.8932,0.3751 l -0.3688,0.1506 c -0.0437,0.0109 -0.0737,0.0301 -0.1038,0.0493 -0.0737,0.0301 -0.1256,0.0548 -0.1994,0.0849 l -0.1174,0.041 c -0.0656,0.0163 -0.1393,0.0465 -0.1912,0.0711 l -0.6255,0.2381 c -0.1256,0.0547 -0.2649,0.1012 -0.3906,0.156 l -0.2348,0.082 c -0.1612,0.0519 -0.3223,0.1039 -0.4834,0.1558 l -0.1611,0.0519 c -0.2048,0.0628 -0.4179,0.1394 -0.6227,0.2022 -0.0874,0.0218 -0.1611,0.052 -0.2485,0.0738 l -0.0655,0.0163 c -0.0656,0.0164 -0.1311,0.0328 -0.2048,0.0629 -0.0437,0.0109 -0.0738,0.0301 -0.1092,0.0272 -0.4233,0.1174 -0.8329,0.243 -1.2343,0.3549 l -0.1529,0.0382 -0.1529,0.0382 c -0.1092,0.0272 -0.1966,0.0491 -0.3058,0.0763 -0.1529,0.0382 -0.3058,0.0764 -0.4723,0.1062 l -0.3495,0.0873 c -0.1311,0.0327 -0.2622,0.0654 -0.4068,0.0898 l -0.2539,0.0517 c -0.1229,0.019 -0.2321,0.0462 -0.3549,0.0652 -0.1966,0.0491 -0.3986,0.0761 -0.5952,0.1252 l -0.2976,0.0626 c -0.1092,0.0273 -0.2102,0.0408 -0.2893,0.0488 -0.2239,0.0325 -0.4559,0.0787 -0.6798,0.1112 l -0.4913,0.0759 c -0.2894,0.0488 -0.5705,0.0839 -0.8517,0.119 -0.101,0.0135 -0.2019,0.027 -0.3029,0.0405 -0.1365,0.0107 -0.2593,0.0296 -0.404,0.0541 l -0.1583,0.0161 c -0.0437,0.0109 -0.0792,0.008 -0.1229,0.0189 -0.1446,0.0245 -0.2947,0.0268 -0.4394,0.0513 l -0.101,0.0135 c -0.3384,0.0376 -0.6687,0.0616 -0.9989,0.0855 -0.0573,0.0026 -0.101,0.0135 -0.1583,0.0161 l -0.1146,0.0053 c -0.101,0.0135 -0.1802,0.0215 -0.2729,0.0213 -0.172,0.0078 -0.3657,0.0211 -0.5377,0.0289 l -0.0573,0.0026 c -0.3438,0.0156 -0.6741,0.0396 -0.9961,0.0498 l -0.3711,-10e-4 c -0.221,-0.0033 -0.4284,0.0017 -0.6494,-0.0017 -0.5294,0.0152 -1.0423,0.0028 -1.5335,-0.0149 -0.1282,-0.0031 -0.2701,-0.0145 -0.4065,-0.0039 -2.1146,-0.0688 -4.1906,-0.2642 -6.3399,-0.6169 l -0.6273,-0.1008 c -0.0982,-0.0223 -0.2046,-0.0308 -0.2891,-0.0448 -0.071,-0.0057 -0.1201,-0.0168 -0.1828,-0.0363 -0.0354,-0.0028 -0.0627,-0.0194 -0.0981,-0.0222 -0.3791,-0.0809 -0.7173,-0.1369 -1.0473,-0.2066 -0.0627,-0.0195 -0.1201,-0.0168 -0.1691,-0.028 -0.0982,-0.0223 -0.1964,-0.0446 -0.2809,-0.0586 -0.0982,-0.0223 -0.1828,-0.0362 -0.2591,-0.064 l -0.1473,-0.0334 -0.2318,-0.0475 c -0.1745,-0.05 -0.33,-0.0697 -0.469,-0.1169 -0.0846,-0.014 -0.1473,-0.0334 -0.2318,-0.0474 -0.1337,-0.0251 -0.2591,-0.064 -0.3927,-0.0892 -0.0982,-0.0223 -0.1964,-0.0445 -0.3,-0.0889 -0.0981,-0.0223 -0.2099,-0.0529 -0.3081,-0.0752 -0.1964,-0.0445 -0.3981,-0.1112 -0.5945,-0.1558 l -0.2999,-0.0889 c -0.0627,-0.0194 -0.1254,-0.0389 -0.1881,-0.0583 -0.0355,-0.0029 -0.0764,-0.0278 -0.1118,-0.0306 l -0.1609,-0.0418 c -0.3354,-0.0917 -0.6762,-0.2056 -1.0116,-0.2973 -0.1472,-0.0335 -0.2999,-0.089 -0.4389,-0.1361 -0.0491,-0.0112 -0.09,-0.0361 -0.1391,-0.0472 -0.1881,-0.0584 -0.3899,-0.125 -0.578,-0.1833 -0.1118,-0.0306 -0.2154,-0.075 -0.3272,-0.1055 l -0.2508,-0.0778 c -0.1254,-0.0389 -0.229,-0.0832 -0.3544,-0.1221 -0.0628,-0.0195 -0.1391,-0.0473 -0.2018,-0.0667 l -0.5071,-0.1776 c -0.2017,-0.0666 -0.3953,-0.147 -0.597,-0.2136 -0.2072,-0.0887 -0.4225,-0.1637 -0.6161,-0.2441 -0.1526,-0.0554 -0.2971,-0.1247 -0.4497,-0.1802 l -0.5262,-0.2079 c -0.1035,-0.0444 -0.2207,-0.097 -0.3243,-0.1414 -0.0545,-0.0332 -0.1172,-0.0526 -0.1935,-0.0804 -1.2566,-0.5404 -2.5376,-1.1332 -3.7939,-1.7672 -1.0846,-0.5483 -2.1664,-1.1323 -3.2317,-1.7439 -0.0409,-0.0249 -0.0954,-0.0581 -0.1363,-0.083 -0.0681,-0.0415 -0.1362,-0.083 -0.2043,-0.1245 -0.109,-0.0663 -0.2452,-0.1493 -0.3542,-0.2157 -0.2043,-0.1245 -0.395,-0.2407 -0.6076,-0.3515 l -0.0681,-0.0415 c -0.2806,-0.1522 -0.5312,-0.3236 -0.7764,-0.473 -0.1635,-0.0996 -0.2997,-0.1826 -0.4496,-0.2739 -0.1907,-0.1162 -0.3814,-0.2324 -0.5585,-0.3403 -0.0817,-0.0498 -0.1635,-0.0996 -0.2452,-0.1494 l -0.0272,-0.0165 c -0.0818,-0.0498 -0.1635,-0.0996 -0.2589,-0.1577 -0.3269,-0.1992 -0.6402,-0.3901 -0.9209,-0.5423 l -0.2125,-0.1108 -0.1908,-0.1162 c -0.1226,-0.0747 -0.2534,-0.1356 -0.3623,-0.202 -0.2262,-0.119 -0.4334,-0.2077 -0.5997,-0.2715 -0.3461996,-0.1359 -0.5807996,-0.1475 -0.6902996,-0.0266 -0.1012,0.1072 -0.0772,0.3469 0.0747,0.6834 0.0787,0.1793 0.1846,0.3751 0.3178,0.5876 0.0624,0.1131 0.1384996,0.2345 0.2282996,0.3642 l 0.1277,0.1904 c 0.0381,0.0607 0.098,0.1159 0.136,0.1766 l 0.0136,0.0083 c 0.2067,0.276 0.4489,0.5549 0.7018,0.8778 l 0.0517,0.069 c 0.0599,0.0553 0.0979,0.116 0.1496,0.185 0.0653,0.0773 0.1442,0.1629 0.2231,0.2485 0.1578,0.1712 0.3239,0.3286 0.4817,0.4998 0.0599,0.0553 0.1252,0.1326 0.1851,0.1878 0.2912,0.29 0.5742,0.5938 0.9009,0.8866 0.2069,0.1823 0.4056,0.3784 0.6262,0.5691 l 0.1143,0.0885 c 0.0736,0.0635 0.1471,0.1271 0.2206,0.1906 0.0735,0.0635 0.147,0.1271 0.2205,0.1906 0.0409,0.0249 0.0735,0.0636 0.1144,0.0885 0.9639,0.8124 2.037,1.5975 3.162,2.3579 0.466,0.2464 0.9019,0.512 1.3514,0.7858 z m 61.0481,-12.7479 c -0.0411,0.0687 -0.0686,0.1458 -0.1015,0.2008 -0.0932,0.1871 -0.1865,0.3742 -0.3016,0.5667 -0.0822,0.1375 -0.1644,0.275 -0.2247,0.4071 -0.2084,0.3796 -0.4167,0.7592 -0.6659,1.1139 l -0.4658,0.7481 c -0.1123,0.1567 -0.2328,0.3272 -0.3314,0.4923 -0.0493,0.0825 -0.1123,0.1567 -0.1616,0.2392 -0.5806,0.8469 -1.2458,1.6799 -2.1572,2.7381 -0.0711,0.088 -0.1341,0.1622 -0.2106,0.2281 -0.0301,0.0192 -0.0548,0.0605 -0.0848,0.0797 -0.0548,0.0604 -0.1013,0.1071 -0.156,0.1676 l -0.1395,0.1401 c -0.063,0.0742 -0.1395,0.1401 -0.2025,0.2144 -0.1176,0.1346 -0.2708,0.2665 -0.4021,0.3928 l -0.0164,0.0276 c -0.2079,0.1923 -0.3803,0.3874 -0.5882,0.5797 -0.0382,0.0329 -0.0683,0.0521 -0.1066,0.0851 -0.1696,0.1593 -0.3338,0.3407 -0.517,0.4918 -0.8286,0.7333 -1.6981,1.4418 -2.6057,2.0895 -0.8556,0.6231 -1.7658,1.2131 -2.7168,1.7781 -0.869,0.5211 -1.7871,1.0311 -2.7461,1.5162 -0.1039,0.0493 -0.1858,0.0932 -0.2896,0.1425 -0.1339,0.0685 -0.2678,0.137 -0.3934,0.1918 l -0.7103,0.3177 c -0.2213,0.0904 -0.4371,0.2028 -0.6448,0.3014 -0.243,0.0958 -0.4807,0.2136 -0.7238,0.3094 -0.0519,0.0246 -0.082,0.0438 -0.1257,0.0547 -0.0737,0.0302 -0.1611,0.052 -0.2349,0.0821 l -0.325,0.1396 c -0.1393,0.0465 -0.265,0.1013 -0.4125,0.1615 l -0.3004,0.0984 c -0.1994,0.0849 -0.3769,0.1643 -0.5817,0.2271 l -0.0956,0.0356 c -0.2349,0.082 -0.4616,0.1503 -0.6828,0.2406 -0.1694,0.0657 -0.3441,0.1093 -0.5134,0.175 l -0.183,0.0574 c -0.0874,0.0218 -0.1611,0.0519 -0.2567,0.0875 l -0.0874,0.0218 c -0.0738,0.0301 -0.1393,0.0465 -0.2267,0.0683 -0.0436,0.0109 -0.0873,0.0218 -0.1174,0.041 -0.3796,0.1064 -0.7373,0.2074 -1.1168,0.3139 l -0.2267,0.0683 -0.1693,0.0656 -0.1665,0.0299 c -0.1093,0.0273 -0.2267,0.0683 -0.3359,0.0955 l -0.6635,0.1774 -0.1748,0.0436 c -0.1529,0.0382 -0.3276,0.0818 -0.4805,0.12 l -0.6607,0.1415 c -0.1311,0.0327 -0.2539,0.0517 -0.385,0.0844 -0.0873,0.0218 -0.1883,0.0354 -0.2757,0.0572 -0.1092,0.0272 -0.2102,0.0407 -0.3194,0.068 -0.1229,0.019 -0.2321,0.0462 -0.3195,0.068 l -0.535,0.0868 c -0.2457,0.0379 -0.4996,0.0896 -0.7453,0.1276 -0.3112,0.0542 -0.636,0.1002 -0.939,0.1408 -0.101,0.0135 -0.202,0.027 -0.3029,0.0405 -0.1229,0.019 -0.2375,0.0242 -0.3603,0.0431 -0.0792,0.0081 -0.1802,0.0216 -0.2593,0.0297 -0.0437,0.0109 -0.0792,0.0081 -0.1229,0.019 -0.1583,0.0161 -0.3248,0.0459 -0.4831,0.0621 -0.2729,0.0213 -0.5541,0.0564 -0.827,0.0777 l -0.3739,0.0348 c -0.101,0.0136 -0.1938,0.0133 -0.2948,0.0268 -0.101,0.0135 -0.202,0.0271 -0.2948,0.0268 -0.0927,-2e-4 -0.1937,0.0133 -0.2947,0.0268 -0.0928,-2e-4 -0.1938,0.0133 -0.2866,0.0131 l -0.2156,0.0187 c -0.3084,0.0185 -0.6167,0.0369 -0.9251,0.0554 -0.2429,0.0021 -0.494,0.018 -0.7368,0.0202 l -0.3793,0.0127 c -0.5867,0.0178 -1.157,0.0081 -1.7136,0.0066 -0.1283,-0.0031 -0.2565,-0.0061 -0.3848,-0.0092 -1.2551,-0.0143 -2.5265,-0.0947 -3.7732,-0.2164 -1.0421,-0.0908 -2.0732,-0.2312 -3.1451,-0.3965 -0.2401,-0.0337 -0.4583,-0.0728 -0.6764,-0.1119 -0.1064,-0.0086 -0.2182,-0.0392 -0.3246,-0.0477 -0.071,-0.0057 -0.1337,-0.0252 -0.2046,-0.0308 -0.0355,-0.0029 -0.0709,-0.0058 -0.1118,-0.0307 l -0.4991,-0.0977 c -0.2318,-0.0474 -0.4364,-0.0782 -0.6464,-0.1311 -0.0627,-0.0194 -0.12,-0.0168 -0.1827,-0.0363 -0.12,-0.0168 -0.2182,-0.0391 -0.3163,-0.0614 l -0.1473,-0.0334 c -0.1118,-0.0306 -0.21,-0.0529 -0.3082,-0.0752 l -0.7635,-0.1838 c -0.0764,-0.0277 -0.1609,-0.0417 -0.2319,-0.0474 -0.1472,-0.0334 -0.2945,-0.0669 -0.4335,-0.1141 -0.2236,-0.0612 -0.4472,-0.1223 -0.6572,-0.1752 l -0.0272,-0.0166 c -0.21,-0.0529 -0.4118,-0.1195 -0.6354,-0.1807 l -0.3353,-0.0918 c -0.0627,-0.0195 -0.1391,-0.0472 -0.2154,-0.0749 -0.0273,-0.0166 -0.0764,-0.0278 -0.1118,-0.0306 -0.2509,-0.0778 -0.5153,-0.1639 -0.7662,-0.2417 l -0.5153,-0.1638 c -0.1745,-0.05 -0.3408,-0.1138 -0.507,-0.1776 -0.0409,-0.0249 -0.0764,-0.0278 -0.1255,-0.0389 l -0.1035,-0.0443 c -0.1663,-0.0638 -0.3326,-0.1276 -0.5071,-0.1777 -0.2018,-0.0666 -0.4089,-0.1553 -0.6107,-0.2219 -0.139,-0.0472 -0.2698,-0.1082 -0.387,-0.1608 -0.0628,-0.0194 -0.1309,-0.0609 -0.2072,-0.0887 -0.3871,-0.1607 -0.7877,-0.3298 -1.1748,-0.4906 -0.2753,-0.1302 -0.5369,-0.2521 -0.7986,-0.3739 -0.1035,-0.0444 -0.2207,-0.097 -0.3161,-0.1551 l -0.5505,-0.2604 c -0.12,-0.0168 -0.2426,-0.0915 -0.3598,-0.1442 -0.0545,-0.0332 -0.1226,-0.0747 -0.1853,-0.0941 -1.3653,-0.7005 -2.6759,-1.4614 -3.9235,-2.2966 -1.1332,-0.7467 -2.1981,-1.5455 -3.1702,-2.3441 -0.0409,-0.0249 -0.0735,-0.0636 -0.1144,-0.0885 -0.0735,-0.0635 -0.147,-0.1271 -0.2206,-0.1906 -0.0735,-0.0636 -0.147,-0.1271 -0.2205,-0.1907 l -0.1144,-0.0884 c -0.2069,-0.1823 -0.4056,-0.3784 -0.6261,-0.5691 -0.3267,-0.2928 -0.6316,-0.5911 -0.901,-0.8866 -0.0735,-0.0635 -0.1251,-0.1325 -0.185,-0.1878 -0.1579,-0.1712 -0.3239,-0.3286 -0.4817,-0.4998 -0.0789,-0.0856 -0.1579,-0.1712 -0.2232,-0.2485 -0.0516,-0.069 -0.0979,-0.116 -0.1496,-0.185 l -0.0516,-0.069 c -0.2612,-0.3092 -0.5087,-0.6101 -0.7018,-0.8778 l -0.0054,-0.022 c -0.0517,-0.069 -0.0979,-0.116 -0.136,-0.1767 l -0.1277,-0.1904 c -0.0898,-0.1297 -0.1658996,-0.2511 -0.2282996,-0.3642 -0.1386,-0.2345 -0.2445,-0.4304 -0.3178,-0.5876 -0.152,-0.3364 -0.1759,-0.5762 -0.0747,-0.6833 0.1013,-0.1072 0.3359,-0.0956 0.6902996,0.0265 0.1663,0.0638 0.3735,0.1525 0.5996,0.2715 0.1172,0.0527 0.2262,0.1191 0.3624,0.2021 l 0.1908,0.1162 0.1989,0.1024 c 0.2179,0.1328 0.4714,0.2685 0.7302,0.4261 0.0681,0.0415 0.1362,0.083 0.2043,0.1245 0.0817,0.0498 0.1635,0.0996 0.2588,0.1577 l 0.0273,0.0166 c 0.0817,0.0498 0.1634,0.0996 0.2452,0.1494 0.1771,0.1079 0.3678,0.2241 0.5585,0.3403 0.1498,0.0913 0.2997,0.1826 0.4495,0.2738 0.2452,0.1494 0.5041,0.3071 0.7765,0.4731 l 0.0681,0.0415 c 0.2043,0.1245 0.3951,0.2407 0.6076,0.3514 0.109,0.0664 0.2316,0.1411 0.3406,0.2075 0.0681,0.0415 0.1498,0.0913 0.2179,0.1328 0.0409,0.0249 0.0954,0.0581 0.1363,0.083 1.0653,0.6115 2.1471,1.1956 3.2317,1.7438 1.2563,0.6341 2.5373,1.2269 3.7938,1.7673 0.0628,0.0195 0.1173,0.0526 0.1936,0.0804 0.1036,0.0443 0.2208,0.097 0.3243,0.1413 l 0.5261,0.208 c 0.1527,0.0554 0.2972,0.1247 0.4498,0.1802 0.1935,0.0804 0.4089,0.1553 0.6161,0.244 0.2017,0.0666 0.3953,0.147 0.597,0.2137 l 0.5071,0.1776 c 0.0627,0.0194 0.139,0.0472 0.2017,0.0666 0.1172,0.0526 0.229,0.0832 0.3545,0.1221 l 0.2508,0.0778 c 0.1118,0.0306 0.2154,0.0749 0.3272,0.1055 0.1881,0.0584 0.3899,0.125 0.5698,0.1971 0.0491,0.0111 0.0899,0.036 0.139,0.0472 0.139,0.0472 0.2917,0.1026 0.439,0.1361 0.3354,0.0918 0.6762,0.2056 1.0116,0.2973 l 0.1609,0.0418 c 0.0354,0.0028 0.0763,0.0277 0.1117,0.0306 0.0628,0.0194 0.1255,0.0389 0.1882,0.0583 l 0.3081,0.0752 c 0.1964,0.0446 0.3845,0.1029 0.5808,0.1475 0.0982,0.0223 0.2237,0.0612 0.3218,0.0835 0.0982,0.0222 0.1881,0.0583 0.2999,0.0889 0.1255,0.0389 0.2591,0.064 0.3928,0.0891 0.0763,0.0278 0.1472,0.0335 0.2236,0.0612 0.1472,0.0335 0.3081,0.0752 0.4772,0.1032 l 0.2236,0.0612 0.1473,0.0334 c 0.0845,0.014 0.1745,0.05 0.259,0.064 0.0982,0.0223 0.1828,0.0363 0.2809,0.0586 0.0491,0.0112 0.1118,0.0306 0.1691,0.028 0.3164,0.0614 0.66,0.1394 1.0473,0.2065 0.0355,0.0029 0.0627,0.0195 0.0982,0.0223 0.0627,0.0195 0.12,0.0169 0.1827,0.0363 0.0982,0.0223 0.191,0.0225 0.2892,0.0448 l 0.6245,0.1366 c 2.1629,0.361 4.2389,0.5564 6.3398,0.6169 0.1283,0.0031 0.2701,0.0145 0.3984,0.0176 0.4993,0.004 1.004,0.0301 1.5334,0.015 0.2074,-0.005 0.4285,-0.0017 0.6495,0.0017 l 0.3711,9e-4 c 0.322,-0.0102 0.6522,-0.0341 0.996,-0.0497 l 0.0574,-0.0027 c 0.1719,-0.0078 0.3656,-0.021 0.5376,-0.0289 0.0791,-0.008 0.1719,-0.0078 0.2729,-0.0213 l 0.1146,-0.0052 c 0.0573,-0.0026 0.101,-0.0135 0.1583,-0.0161 0.3302,-0.024 0.6687,-0.0617 0.9989,-0.0856 l 0.101,-0.0135 c 0.1501,-0.0024 0.2948,-0.0268 0.4395,-0.0512 0.0354,0.0028 0.0791,-0.0081 0.1228,-0.019 l 0.1583,-0.0161 c 0.1365,-0.0107 0.2593,-0.0296 0.404,-0.054 0.101,-0.0136 0.202,-0.0271 0.303,-0.0406 0.2811,-0.0351 0.5623,-0.0702 0.8516,-0.119 l 0.4914,-0.0759 c 0.2238,-0.0324 0.4476,-0.0649 0.6797,-0.1111 0.0792,-0.0081 0.1801,-0.0216 0.2976,-0.0626 l 0.2976,-0.0626 c 0.1883,-0.0353 0.3985,-0.0761 0.5951,-0.1252 0.1092,-0.0273 0.2321,-0.0462 0.3549,-0.0652 l 0.2321,-0.0462 c 0.131,-0.0327 0.2621,-0.0654 0.4068,-0.0899 l 0.3412,-0.0735 c 0.1529,-0.0381 0.3058,-0.0763 0.4724,-0.1062 0.1092,-0.0272 0.1966,-0.049 0.3058,-0.0763 l 0.1611,-0.0519 0.1529,-0.0382 c 0.4014,-0.1119 0.8246,-0.2293 1.2343,-0.3549 0.0436,-0.0109 0.0737,-0.0301 0.1092,-0.0273 0.0655,-0.0163 0.131,-0.0327 0.2048,-0.0628 l 0.0655,-0.0164 c 0.0874,-0.0218 0.1611,-0.0519 0.2485,-0.0737 0.2048,-0.0628 0.4178,-0.1394 0.6227,-0.2022 l 0.1611,-0.052 c 0.1611,-0.0519 0.3222,-0.1038 0.4833,-0.1557 l 0.2349,-0.0821 c 0.1257,-0.0547 0.265,-0.1012 0.3906,-0.156 l 0.6255,-0.238 c 0.0655,-0.0164 0.1393,-0.0465 0.1912,-0.0711 l 0.112,-0.0631 c 0.0738,-0.0301 0.1529,-0.0382 0.213,-0.0766 0.0301,-0.0192 0.0738,-0.0301 0.1175,-0.041 l 0.3687,-0.1506 c 0.295,-0.1204 0.5983,-0.2546 0.8933,-0.3751 l 0.0218,-0.0054 c 0.1994,-0.0849 0.407,-0.1835 0.6147,-0.2821 l 0.6365,-0.2877 c 0.8688,-0.4274 1.724,-0.8632 2.5164,-1.3185 0.8526,-0.4936 1.678,-1.0038 2.4488,-1.5473 0.801,-0.5626 1.5911,-1.1694 2.3185,-1.7956 0.1531,-0.1318 0.3063,-0.2636 0.4458,-0.4037 0.0383,-0.033 0.0683,-0.0522 0.093,-0.0935 0.1778,-0.173 0.3692,-0.3378 0.547,-0.5109 0.1231,-0.1126 0.2243,-0.2198 0.3338,-0.3408 0.0629,-0.0742 0.1313,-0.1263 0.1942,-0.2005 l 0.0165,-0.0275 c 0.0848,-0.0797 0.1559,-0.1677 0.2407,-0.2473 0.0165,-0.0275 0.0465,-0.0468 0.0766,-0.066 0.0547,-0.0604 0.1313,-0.1263 0.1943,-0.2006 0.5554,-0.6183 1.2779,-1.4539 1.9269,-2.353 0.0629,-0.0742 0.1123,-0.1566 0.1752,-0.2308 0.0958,-0.1292 0.1917,-0.2586 0.2875,-0.3878 l 0.4219,-0.6435 c 0.2027,-0.308 0.3917,-0.6243 0.5808,-0.9406 0.074,-0.1238 0.1562,-0.2613 0.2302,-0.3851 0.0904,-0.1512 0.1891,-0.3163 0.2659,-0.4758 0.0411,-0.0688 0.0686,-0.1459 0.1097,-0.2146 0.0575,-0.0963 0.0932,-0.1871 0.1508,-0.2834 0.275,0.2239 0.55,0.4477 0.8333,0.6578 0.6945,0.5169 1.471,0.99 2.2749,1.386 z m 0,0 c -0.4061,-0.1911 -0.8011,-0.4318 -1.1826,-0.6642 -0.6811,-0.415 -1.3293,-0.8849 -1.9446,-1.4098 0.0685,-0.1459 0.1425,-0.2697 0.2111,-0.4155 l 0.3347,-0.7154 0.214,-0.4512 0.1071,-0.2724 0.2664,-0.6632 c 0.7539,0.7594 1.5736,1.4089 2.4318,1.9318 0.2043,0.1245 0.4086,0.249 0.6212,0.3597 l -0.0521,0.1183 -0.044,0.1046 -0.1893,0.41 c -0.096,0.2229 -0.1921,0.4457 -0.2936,0.6465 l -0.0768,0.1596 -0.3786,0.8199 c -0.0082,0.0138 -0.0247,0.0413 -0.0247,0.0413 z M 109.92486,6.11875 c 0.027,0.0166 0.065,0.171 0.059,0.4299 -0.003,0.1295 -0.003,0.3168 -0.004,0.5041 l -0.011,0.0496 c 0,0.1873 -0.017,0.40209 -0.037,0.65269 -0.028,0.2644 -0.051,0.55081 -0.098,0.87851 -0.014,0.179 -0.042,0.34979 -0.061,0.50669 l -0.028,0.17081 c -0.016,0.1211 -0.041,0.256 -0.058,0.3772 -0.019,0.0633 -0.017,0.1212 -0.022,0.1928 -0.017,0.12105 -0.042,0.25605 -0.067,0.39095 l -0.143,0.6442 c -0.02,0.0633 -0.025,0.1349 -0.039,0.2203 -0.025,0.1349 -0.053,0.3056 -0.086,0.4543 l -0.074,0.3111 c -0.025,0.1349 -0.064,0.2615 -0.089,0.3964 -0.204,0.87 -0.49,1.8774 -0.892,3.1711 -0.066,0.2037 -0.154,0.4128 -0.22,0.6165 l -0.09,0.2449 c -0.047,0.1404 -0.094,0.2808 -0.154,0.4128 l -0.017,0.0275 -0.178,0.4541 c -0.044,0.1046 -0.088,0.2091 -0.132,0.3137 -0.08,0.1954 -0.154,0.4128 -0.233,0.6082 -0.132,0.3137 -0.264,0.6274 -0.404,0.9548 -0.615,1.3703 -1.297,2.699 -2.032,3.9588 l -0.616,1.0314 c -0.14,0.2338 -0.294,0.4593 -0.447,0.6848 -0.066,0.11 -0.153,0.2254 -0.219,0.3355 -0.082,0.1375 -0.178,0.2667 -0.274,0.3959 -0.025,0.0413 -0.049,0.0826 -0.088,0.1155 l -0.041,0.0688 c -0.104,0.1429 -0.216,0.2997 -0.306,0.451 -0.058,0.0962 -0.121,0.1704 -0.178,0.2667 -0.055,0.0605 -0.096,0.1292 -0.151,0.1897 l -0.041,0.0687 c -0.025,0.0413 -0.063,0.0743 -0.088,0.1155 -0.096,0.1292 -0.2,0.2722 -0.317,0.4069 -1.12,1.4378 -2.367999,2.7789 -3.731599,3.9736 -0.7441,0.6537 -1.5124,1.255 -2.2833,1.7985 -0.831,0.5818 -1.7082,1.1167 -2.5716,1.5662 -0.9454,0.4934 -1.9342,0.9041 -2.8791,1.2102 -0.5271,0.1667 -1.0459,0.3196 -1.5537,0.4229 -0.5515,0.1143 -1.0947,0.2148 -1.627,0.2658 -2.3254,0.2529 -4.6549,-0.0782 -6.721,-0.943 -0.2562,-0.0998 -0.5179,-0.2217 -0.7577,-0.349 0.0082,-0.0138 0.0165,-0.0275 0.0247,-0.0413 l 0.3976,-0.7895 0.0768,-0.1596 c 0.0961,-0.2229 0.1922,-0.4458 0.2936,-0.6466 l 0.2333,-0.5145 0.0521,-0.1184 c 0.2262,0.1191 0.4388,0.2298 0.6732,0.3351 0.1935,0.0804 0.387,0.1608 0.5942,0.2495 l 0.0763,0.0277 c 0.09,0.0361 0.1881,0.0583 0.2781,0.0944 0.139,0.0472 0.2645,0.0861 0.4035,0.1333 0.0627,0.0194 0.1254,0.0388 0.1963,0.0445 l 0.1283,0.0031 c 0.0136,0.0083 0.0218,-0.0054 0.0491,0.0112 0.0982,0.0222 0.2017,0.0666 0.3081,0.0752 0.071,0.0056 0.1473,0.0334 0.2182,0.0391 0.1473,0.0334 0.3164,0.0615 0.4855,0.0895 0.9165,0.1456 1.855,0.192 2.8102,0.1173 1.7303,-0.1277 3.5271,-0.6465 5.3438,-1.5095 0.8005,-0.3753 1.593,-0.8305 2.3829,-1.3436 0.7297,-0.4747 1.4569,-1.0073 2.1596,-1.5922 1.313,-1.0764 2.5346,-2.2826 3.629599,-3.5855 0.528,-0.635 1.029,-1.2865 1.492,-1.9051 0.088,-0.1155 0.17,-0.253 0.257,-0.3685 0.137,-0.198 0.274,-0.396 0.425,-0.5856 l 0.633,-0.9653 c 0.756,-1.1716 1.468,-2.4259 2.135,-3.7271 0.145,-0.3054 0.304,-0.6025 0.441,-0.8941 0.094,-0.1871 0.173,-0.3825 0.258,-0.5558 0.044,-0.1046 0.096,-0.2229 0.154,-0.3192 l 0.197,-0.4237 0.025,-0.0413 c 0.06,-0.132 0.113,-0.2503 0.159,-0.3907 0.116,-0.2862 0.236,-0.5503 0.343,-0.8228 0.492,-1.2576 0.816,-2.2044 1.089,-3.0328 l 0.217,-0.6744 c 0.047,-0.1403 0.085,-0.2669 0.11,-0.4019 0.028,-0.077 0.042,-0.1624 0.069,-0.2394 0.039,-0.1266 0.077,-0.2533 0.116,-0.3799 l 0.06,-0.2257 c 0.039,-0.12655 0.069,-0.23945 0.086,-0.36065 0.019,-0.0633 0.033,-0.1486 0.052,-0.212 0.05,-0.1761 0.086,-0.3606 0.135,-0.5368 0.05,-0.1761 0.091,-0.3386 0.124,-0.4872 0.075,-0.3111 0.133,-0.5947 0.21,-0.8479 0.041,-0.1625 0.082,-0.3249 0.107,-0.4598 0.014,-0.0853 0.033,-0.1486 0.053,-0.2119 0.044,-0.1983 0.085,-0.3607 0.124,-0.4873 0.033,-0.2423 0.066,-0.391 0.115,-0.3799 z M 76.327761,11.3705 c 0.0136,0.0083 0.019,0.0303 0.019,0.0303 0.1226,0.0747 0.256,0.1935 0.4167,0.3289 0.1334,0.1188 0.2776,0.2817 0.4462,0.497 l 0.2257,0.3064 0.117,0.1463 c 0.0462,0.0469 0.0706,0.0993 0.1087,0.16 0.5437,0.8003 0.9998,1.716 1.341,2.7306 0.3251,0.9485 0.5571,1.9904 0.6799,3.0595 0.1202,1.0113 0.1557,2.1023 0.1256,3.2096 -0.0141,0.179 -0.02,0.3442 -0.0341,0.5233 -2e-4,0.0936 -0.0141,0.179 -0.0144,0.2727 -0.0279,0.2643 -0.0641,0.5425 -0.0784,0.8151 l -0.0393,0.4076 c -0.0138,0.0854 -0.0277,0.1708 -0.0415,0.2561 -0.0111,0.0496 -0.0221,0.0991 -0.0249,0.1349 l -0.1276,0.8041 c 0.0054,0.022 -0.011,0.0495 -0.0056,0.0716 -0.0029,0.0358 -0.0139,0.0853 -0.0167,0.1211 l -0.0388,0.2203 -0.0883,0.3965 -0.0747,0.4047 c -0.0028,0.0358 -0.0193,0.0633 -0.0221,0.0991 -0.0221,0.0991 -0.0441,0.1982 -0.0662,0.2973 -0.0442,0.1983 -0.102,0.3882 -0.1379,0.5727 l -0.0442,0.1982 c -0.011,0.0496 -0.022,0.0991 -0.0331,0.1487 -0.0138,0.0853 -0.0413,0.1624 -0.0552,0.2478 l -0.1156,0.3798 c -0.0688,0.2395 -0.1458,0.4927 -0.2146,0.7322 l -0.0029,0.0358 c -0.0549,0.1541 -0.1181,0.322 -0.1731,0.4761 -0.0357,0.0908 -0.0714,0.1816 -0.0935,0.2808 l -0.1646,0.3687 c -0.0165,0.0275 -0.0247,0.0412 -0.0329,0.055 -0.011,0.0495 -0.0139,0.0853 -0.0249,0.1349 l -0.1071,0.2724 c -0.3103,-0.3203 -0.6259,-0.6627 -0.9197,-1.0106 -0.6447,-0.7867 -1.2129,-1.6394 -1.6908,-2.5497 -0.4589,-0.8799 -0.8603,-1.8561 -1.1715,-2.8899 -0.3003,-0.9898 -0.5241,-2.0454 -0.6606,-3.1228 -0.131,-1.0554 -0.1883,-2.1409 -0.1664,-3.2345 2e-4,-0.0936 5e-4,-0.1873 0.0061,-0.2589 5e-4,-0.1873 0.0146,-0.3663 0.0151,-0.5537 l -0.0026,-0.0578 c 0.0197,-0.2506 0.0258,-0.5096 0.0456,-0.7602 l 0.0392,-0.4076 0.0782,-0.7215 0.0139,-0.0854 c 0.0167,-0.1211 0.0334,-0.2423 0.0637,-0.3552 0.0939,-0.468 0.2234,-0.9332 0.4155,-1.379 0.1785,-0.4541 0.4033,-0.8612 0.6497,-1.1801 0.2245,-0.3134 0.509,-0.5716 0.7384,-0.6757 0.1038,-0.0493 0.1912,-0.0711 0.2922,-0.0847 0.1092,-0.0272 0.2156,-0.0187 0.3274,0.0119 0.1118,0.0306 0.21,0.0529 0.319,0.1193 z"
     fill="#F8C822"
     id="path3"
     style="fill:#99c51d;fill-opacity:1" />
</svg>
