<?xml version="1.0" encoding="UTF-8" standalone="no"?>
<svg
   width="60"
   height="60"
   viewBox="0 0 60 60"
   fill="none"
   version="1.1"
   id="svg3"
   sodipodi:docname="icon-feature-2.svg"
   inkscape:version="1.4.2 (ebf0e940d0, 2025-05-08)"
   xmlns:inkscape="http://www.inkscape.org/namespaces/inkscape"
   xmlns:sodipodi="http://sodipodi.sourceforge.net/DTD/sodipodi-0.dtd"
   xmlns="http://www.w3.org/2000/svg"
   xmlns:svg="http://www.w3.org/2000/svg">
  <defs
     id="defs3" />
  <sodipodi:namedview
     id="namedview3"
     pagecolor="#505050"
     bordercolor="#eeeeee"
     borderopacity="1"
     inkscape:showpageshadow="0"
     inkscape:pageopacity="0"
     inkscape:pagecheckerboard="0"
     inkscape:deskcolor="#505050"
     inkscape:zoom="10.866667"
     inkscape:cx="29.999999"
     inkscape:cy="29.999999"
     inkscape:window-width="1600"
     inkscape:window-height="863"
     inkscape:window-x="0"
     inkscape:window-y="0"
     inkscape:window-maximized="1"
     inkscape:current-layer="svg3" />
  <path
     d="M19.2874 55.7154C28.7551 55.7154 36.4302 48.0403 36.4302 38.5725C36.4302 29.1048 28.7551 21.4297 19.2874 21.4297C9.81965 21.4297 2.14453 29.1048 2.14453 38.5725C2.14453 48.0403 9.81965 55.7154 19.2874 55.7154Z"
     stroke="#F8C822"
     stroke-width="2"
     stroke-linecap="round"
     stroke-linejoin="round"
     id="path1"
     style="stroke:#99c51d;stroke-opacity:1" />
  <path
     d="M40.7171 55.7154C50.1848 55.7154 57.8599 48.0403 57.8599 38.5725C57.8599 29.1048 50.1848 21.4297 40.7171 21.4297C31.2493 21.4297 23.5742 29.1048 23.5742 38.5725C23.5742 48.0403 31.2493 55.7154 40.7171 55.7154Z"
     stroke="#F8C822"
     stroke-width="2"
     stroke-linecap="round"
     stroke-linejoin="round"
     id="path2"
     style="stroke:#99c51d;stroke-opacity:1" />
  <path
     d="M30.0022 38.5748C39.47 38.5748 47.1451 30.8997 47.1451 21.4319C47.1451 11.9642 39.47 4.28906 30.0022 4.28906C20.5345 4.28906 12.8594 11.9642 12.8594 21.4319C12.8594 30.8997 20.5345 38.5748 30.0022 38.5748Z"
     stroke="#F8C822"
     stroke-width="2"
     stroke-linecap="round"
     stroke-linejoin="round"
     id="path3"
     style="stroke:#99c51d;stroke-opacity:1" />
</svg>
