<?xml version="1.0" encoding="UTF-8" standalone="no"?>
<svg
   width="40"
   height="41"
   viewBox="0 0 40 41"
   fill="none"
   version="1.1"
   id="svg8"
   sodipodi:docname="icon-why-choose-benefit-4.svg"
   inkscape:version="1.4.2 (ebf0e940d0, 2025-05-08)"
   xmlns:inkscape="http://www.inkscape.org/namespaces/inkscape"
   xmlns:sodipodi="http://sodipodi.sourceforge.net/DTD/sodipodi-0.dtd"
   xmlns="http://www.w3.org/2000/svg"
   xmlns:svg="http://www.w3.org/2000/svg">
  <sodipodi:namedview
     id="namedview8"
     pagecolor="#505050"
     bordercolor="#eeeeee"
     borderopacity="1"
     inkscape:showpageshadow="0"
     inkscape:pageopacity="0"
     inkscape:pagecheckerboard="0"
     inkscape:deskcolor="#505050"
     inkscape:zoom="15.902439"
     inkscape:cx="19.996933"
     inkscape:cy="20.5"
     inkscape:window-width="1600"
     inkscape:window-height="863"
     inkscape:window-x="0"
     inkscape:window-y="0"
     inkscape:window-maximized="1"
     inkscape:current-layer="svg8" />
  <g
     clip-path="url(#clip0_3_93769)"
     id="g8"
     style="stroke:#99c51d;stroke-opacity:1">
    <path
       d="M4.28683 17.7383H7.14397C7.52285 17.7383 7.88622 17.8888 8.15413 18.1567C8.42203 18.4246 8.57254 18.788 8.57254 19.1669V26.3097C8.57254 26.6886 8.42203 27.052 8.15413 27.3199C7.88622 27.5878 7.52285 27.7383 7.14397 27.7383H4.28683C3.52907 27.7383 2.80234 27.4373 2.26653 26.9014C1.73071 26.3656 1.42969 25.6389 1.42969 24.8811V20.5954C1.42969 19.8377 1.73071 19.1109 2.26653 18.5751C2.80234 18.0393 3.52907 17.7383 4.28683 17.7383V17.7383Z"
       stroke="#F8C822"
       stroke-width="2"
       stroke-linecap="round"
       stroke-linejoin="round"
       id="path1"
       style="stroke:#99c51d;stroke-opacity:1" />
    <path
       d="M35.7171 27.7383H32.8599C32.4811 27.7383 32.1177 27.5878 31.8498 27.3199C31.5819 27.052 31.4314 26.6886 31.4314 26.3097V19.1669C31.4314 18.788 31.5819 18.4246 31.8498 18.1567C32.1177 17.8888 32.4811 17.7383 32.8599 17.7383H35.7171C36.4748 17.7383 37.2016 18.0393 37.7374 18.5751C38.2732 19.1109 38.5742 19.8377 38.5742 20.5954V24.8811C38.5742 25.6389 38.2732 26.3656 37.7374 26.9014C37.2016 27.4373 36.4748 27.7383 35.7171 27.7383V27.7383Z"
       stroke="#F8C822"
       stroke-width="2"
       stroke-linecap="round"
       stroke-linejoin="round"
       id="path2"
       style="stroke:#99c51d;stroke-opacity:1" />
    <path
       d="M27.1445 35.5954C28.6601 35.5954 30.1135 34.9934 31.1851 33.9217C32.2568 32.8501 32.8588 31.3967 32.8588 29.8811V27.7383"
       stroke="#F8C822"
       stroke-width="2"
       stroke-linecap="round"
       stroke-linejoin="round"
       id="path3"
       style="stroke:#99c51d;stroke-opacity:1" />
    <path
       d="M23.572 32.0234C24.5192 32.0234 25.4276 32.3997 26.0974 33.0695C26.7671 33.7393 27.1434 34.6477 27.1434 35.5949C27.1434 36.5421 26.7671 37.4505 26.0974 38.1202C25.4276 38.79 24.5192 39.1663 23.572 39.1663H19.2863C18.3391 39.1663 17.4307 38.79 16.7609 38.1202C16.0911 37.4505 15.7148 36.5421 15.7148 35.5949C15.7148 34.6477 16.0911 33.7393 16.7609 33.0695C17.4307 32.3997 18.3391 32.0234 19.2863 32.0234H23.572Z"
       stroke="#F8C822"
       stroke-width="2"
       stroke-linecap="round"
       stroke-linejoin="round"
       id="path4"
       style="stroke:#99c51d;stroke-opacity:1" />
    <path
       d="M7.14453 17.7377V14.8806C7.14453 11.4707 8.49912 8.20039 10.9103 5.78921C13.3215 3.37803 16.5917 2.02344 20.0017 2.02344C23.4116 2.02344 26.6819 3.37803 29.093 5.78921C31.5042 8.20039 32.8588 11.4707 32.8588 14.8806V17.7377"
       stroke="#F8C822"
       stroke-width="2"
       stroke-linecap="round"
       stroke-linejoin="round"
       id="path5"
       style="stroke:#99c51d;stroke-opacity:1" />
    <path
       d="M15.7148 12.0234V16.3092"
       stroke="#F8C822"
       stroke-width="2"
       stroke-linecap="round"
       stroke-linejoin="round"
       id="path6"
       style="stroke:#99c51d;stroke-opacity:1" />
    <path
       d="M24.2852 12.0234V16.3092"
       stroke="#F8C822"
       stroke-width="2"
       stroke-linecap="round"
       stroke-linejoin="round"
       id="path7"
       style="stroke:#99c51d;stroke-opacity:1" />
    <path
       d="M15.7148 22.0234C15.7148 25.8234 24.2863 25.8234 24.2863 22.0234"
       stroke="#F8C822"
       stroke-width="2"
       stroke-linecap="round"
       stroke-linejoin="round"
       id="path8"
       style="stroke:#99c51d;stroke-opacity:1" />
  </g>
  <defs
     id="defs8">
    <clipPath
       id="clip0_3_93769">
      <rect
         width="40"
         height="40"
         fill="white"
         transform="translate(0 0.59375)"
         id="rect8" />
    </clipPath>
  </defs>
</svg>
