<?xml version="1.0" encoding="UTF-8" standalone="no"?>
<svg
   width="60"
   height="61"
   viewBox="0 0 60 61"
   fill="none"
   version="1.1"
   id="svg4"
   sodipodi:docname="icon-feature-3.svg"
   inkscape:version="1.4.2 (ebf0e940d0, 2025-05-08)"
   xmlns:inkscape="http://www.inkscape.org/namespaces/inkscape"
   xmlns:sodipodi="http://sodipodi.sourceforge.net/DTD/sodipodi-0.dtd"
   xmlns="http://www.w3.org/2000/svg"
   xmlns:svg="http://www.w3.org/2000/svg">
  <defs
     id="defs4" />
  <sodipodi:namedview
     id="namedview4"
     pagecolor="#505050"
     bordercolor="#eeeeee"
     borderopacity="1"
     inkscape:showpageshadow="0"
     inkscape:pageopacity="0"
     inkscape:pagecheckerboard="0"
     inkscape:deskcolor="#505050"
     inkscape:zoom="3.7789641"
     inkscape:cx="30.166997"
     inkscape:cy="30.166997"
     inkscape:window-width="1600"
     inkscape:window-height="863"
     inkscape:window-x="0"
     inkscape:window-y="0"
     inkscape:window-maximized="1"
     inkscape:current-layer="svg4" />
  <path
     d="M30.0033 40.8075C35.9207 40.8075 40.7176 36.0105 40.7176 30.0932C40.7176 24.1759 35.9207 19.3789 30.0033 19.3789C24.086 19.3789 19.2891 24.1759 19.2891 30.0932C19.2891 36.0105 24.086 40.8075 30.0033 40.8075Z"
     stroke="#F8C822"
     stroke-width="2"
     stroke-linecap="round"
     stroke-linejoin="round"
     id="path1"
     style="stroke:#99c51d;stroke-opacity:1" />
  <path
     d="M30 19.3811V2.23828"
     stroke="#F8C822"
     stroke-width="2"
     stroke-linecap="round"
     stroke-linejoin="round"
     id="path2"
     style="stroke:#99c51d;stroke-opacity:1" />
  <path
     d="M40.7148 57.9548V51.5262H49.2863C50.4229 51.5262 51.513 51.0747 52.3167 50.271C53.1205 49.4672 53.572 48.3772 53.572 47.2405V30.0977C53.5728 25.7523 52.3724 21.4913 50.1035 17.7854C47.8345 14.0794 44.5853 11.0728 40.7148 9.09766"
     stroke="#F8C822"
     stroke-width="2"
     stroke-linecap="round"
     stroke-linejoin="round"
     id="path3"
     style="stroke:#99c51d;stroke-opacity:1" />
  <path
     d="M19.2876 9.09766C15.4155 11.0716 12.1645 14.0778 9.89404 17.7838C7.62353 21.4898 6.42188 25.7514 6.42188 30.0977C6.42187 34.4439 7.62353 38.7055 9.89404 42.4115C12.1645 46.1176 15.4155 49.1237 19.2876 51.0977V57.9548"
     stroke="#F8C822"
     stroke-width="2"
     stroke-linecap="round"
     stroke-linejoin="round"
     id="path4"
     style="stroke:#99c51d;stroke-opacity:1" />
</svg>
