<svg width="30" height="31" viewBox="0 0 30 31" fill="none" xmlns="http://www.w3.org/2000/svg">
<path d="M27.4763 25.0499H2.52316C1.13188 25.0499 0 23.9181 0 22.5268V8.70285C0 7.31156 1.13188 6.17969 2.52316 6.17969H27.4768C28.8681 6.17969 30 7.31156 30 8.70285V22.5268C29.9995 23.9181 28.8676 25.0499 27.4763 25.0499ZM2.52316 7.35974C1.78252 7.35974 1.18005 7.96221 1.18005 8.70285V22.5268C1.18005 23.2674 1.78252 23.8699 2.52316 23.8699H27.4768C28.2175 23.8699 28.8199 23.2674 28.8199 22.5268V8.70285C28.8199 7.96221 28.2175 7.35974 27.4768 7.35974H2.52316Z" fill="white"/>
<path d="M17.3548 9.36719C16.5617 9.36719 15.8274 9.61866 15.2266 10.0454C16.0773 10.7696 16.6184 11.8475 16.6184 13.0492C16.6184 14.251 16.0773 15.3289 15.2266 16.0531C15.8274 16.4798 16.5617 16.7313 17.3548 16.7313C19.3888 16.7313 21.0374 15.0827 21.0374 13.0487C21.0374 11.0147 19.3888 9.36719 17.3548 9.36719Z" fill="white"/>
<path d="M13.4112 13.0492C13.4112 11.8469 13.9522 10.7696 14.803 10.0454C14.2021 9.61866 13.4678 9.36719 12.6748 9.36719C10.6408 9.36719 8.99219 11.0158 8.99219 13.0498C8.99219 15.0837 10.6408 16.7323 12.6748 16.7323C13.4678 16.7323 14.2021 16.4808 14.803 16.0541C13.9522 15.3289 13.4112 14.251 13.4112 13.0492Z" fill="white"/>
<path d="M5.0677 20.4865C5.05234 20.0725 5.03699 19.5717 5.03699 19.0709H5.02164C4.91417 19.5103 4.77123 20.0005 4.63835 20.4045L4.21905 21.7481H3.61129L3.24335 20.4145C3.13059 20.0111 3.01359 19.5204 2.93153 19.0709H2.92094C2.9003 19.5357 2.88547 20.0672 2.85953 20.4966L2.79812 21.8048H2.07812L2.29783 18.3599H3.33547L3.6727 19.5098C3.78017 19.9084 3.88764 20.3378 3.96388 20.7412H3.97923C4.07611 20.3425 4.19417 19.8878 4.30641 19.5045L4.67435 18.3594H5.69134L5.88034 21.8042H5.11905L5.0677 20.4865Z" fill="white"/>
<path d="M7.89258 21.7971L7.84653 21.5467H7.83117C7.66759 21.7458 7.41241 21.8532 7.11594 21.8532C6.60983 21.8532 6.30859 21.4853 6.30859 21.0861C6.30859 20.4376 6.89094 20.1252 7.77506 20.1311V20.0951C7.77506 19.9622 7.70359 19.7732 7.32029 19.7732C7.06512 19.7732 6.79406 19.86 6.63047 19.9627L6.48753 19.4619C6.66118 19.3645 7.00371 19.2422 7.45847 19.2422C8.29123 19.2422 8.55752 19.7324 8.55752 20.3206V21.1894C8.55752 21.4297 8.56758 21.66 8.59299 21.7976L7.89258 21.7971ZM7.80047 20.6165C7.39176 20.6118 7.07465 20.7087 7.07465 21.0099C7.07465 21.2089 7.20753 21.3064 7.38118 21.3064C7.57547 21.3064 7.73376 21.1788 7.78511 21.0199C7.79517 20.9792 7.80047 20.9331 7.80047 20.8871V20.6165Z" fill="white"/>
<path d="M9.16499 21.1174C9.30793 21.2042 9.6044 21.3069 9.83469 21.3069C10.0697 21.3069 10.1666 21.2248 10.1666 21.0972C10.1666 20.9696 10.0904 20.9082 9.79869 20.8114C9.28252 20.6377 9.08346 20.3566 9.08823 20.0596C9.08823 19.5948 9.48687 19.2422 10.1052 19.2422C10.3964 19.2422 10.6569 19.3084 10.8104 19.3851L10.6727 19.9219C10.5605 19.8605 10.3456 19.7785 10.1312 19.7785C9.94163 19.7785 9.83469 19.8552 9.83469 19.9834C9.83469 20.1009 9.93157 20.1623 10.2386 20.2692C10.714 20.4323 10.9131 20.6727 10.9184 21.0406C10.9184 21.5059 10.5505 21.8479 9.83522 21.8479C9.50805 21.8479 9.21687 21.7765 9.02734 21.6743L9.16499 21.1174Z" fill="white"/>
<path d="M12.2583 18.5938V19.309H12.8158V19.8818H12.2583V20.786C12.2583 21.0878 12.3298 21.2254 12.5649 21.2254C12.6623 21.2254 12.7385 21.2154 12.7952 21.2048L12.7999 21.7924C12.6978 21.8332 12.5141 21.8586 12.2938 21.8586C12.0429 21.8586 11.8338 21.7718 11.7109 21.6437C11.5675 21.496 11.496 21.2556 11.496 20.903V19.8807H11.1641V19.3079H11.496V18.7663L12.2583 18.5938Z" fill="white"/>
<path d="M13.8383 20.7949C13.8637 21.1168 14.1803 21.2704 14.5435 21.2704C14.8092 21.2704 15.0236 21.2344 15.2338 21.1682L15.3355 21.6944C15.0803 21.7966 14.7679 21.8479 14.4312 21.8479C13.5826 21.8479 13.0977 21.3577 13.0977 20.5758C13.0977 19.9421 13.491 19.2422 14.3603 19.2422C15.1676 19.2422 15.4742 19.8711 15.4742 20.4889C15.4742 20.6218 15.4588 20.7394 15.4488 20.7955L13.8383 20.7949ZM14.7531 20.2639C14.7531 20.0749 14.6711 19.7578 14.3137 19.7578C13.9865 19.7578 13.8531 20.0543 13.833 20.2639H14.7531Z" fill="white"/>
<path d="M15.9391 20.121C15.9391 19.7531 15.9291 19.5127 15.918 19.2978H16.5882L16.6131 19.7578H16.6343C16.7618 19.3952 17.0689 19.2422 17.3082 19.2422C17.3802 19.2422 17.4162 19.2422 17.4718 19.2522V19.9834C17.4157 19.9728 17.349 19.9627 17.2621 19.9627C16.9763 19.9627 16.782 20.1162 16.7306 20.3561C16.7206 20.4069 16.7158 20.4683 16.7158 20.5297V21.7971H15.9386L15.9391 20.121Z" fill="white"/>
<path d="M20.4389 21.7088C20.2959 21.7803 19.9735 21.8565 19.5548 21.8565C18.3631 21.8565 17.75 21.1153 17.75 20.1343C17.75 18.959 18.5891 18.3047 19.6305 18.3047C20.0349 18.3047 20.3415 18.3867 20.4796 18.4582L20.3208 19.0771C20.163 19.0109 19.9433 18.9495 19.6665 18.9495C19.0481 18.9495 18.5679 19.3227 18.5679 20.0893C18.5679 20.7797 18.9766 21.2138 19.6718 21.2138C19.9073 21.2138 20.1683 21.1624 20.3208 21.1016L20.4389 21.7088Z" fill="white"/>
<path d="M22.2949 21.7971L22.2489 21.5467H22.234C22.0705 21.7458 21.8148 21.8532 21.5178 21.8532C21.0122 21.8532 20.7109 21.4853 20.7109 21.0861C20.7109 20.4376 21.2933 20.1252 22.1769 20.1311V20.0951C22.1769 19.9622 22.1059 19.7732 21.7226 19.7732C21.4669 19.7732 21.1964 19.86 21.0323 19.9627L20.8893 19.4619C21.063 19.3645 21.4055 19.2422 21.8603 19.2422C22.693 19.2422 22.9588 19.7324 22.9588 20.3206V21.1894C22.9588 21.4297 22.9689 21.66 22.9948 21.7976L22.2949 21.7971ZM22.2033 20.6165C21.7941 20.6118 21.477 20.7087 21.477 21.0099C21.477 21.2089 21.6099 21.3064 21.7835 21.3064C21.9783 21.3064 22.1361 21.1788 22.188 21.0199C22.198 20.9792 22.2028 20.9331 22.2028 20.8871L22.2033 20.6165Z" fill="white"/>
<path d="M23.5759 20.121C23.5759 19.7531 23.5658 19.5127 23.5547 19.2978H24.2249L24.2498 19.7578H24.271C24.3986 19.3952 24.7056 19.2422 24.9449 19.2422C25.0169 19.2422 25.0529 19.2422 25.1085 19.2522V19.9834C25.0524 19.9728 24.9857 19.9627 24.8989 19.9627C24.613 19.9627 24.4187 20.1162 24.3673 20.3561C24.3573 20.4069 24.3525 20.4683 24.3525 20.5297V21.7971H23.5759V20.121Z" fill="white"/>
<path d="M27.8981 18.1719V21.0545C27.8981 21.3356 27.9082 21.6316 27.9182 21.8004H27.2289L27.1929 21.4325H27.1829C27.0241 21.7136 26.7223 21.8571 26.4009 21.8571C25.8075 21.8571 25.3321 21.351 25.3321 20.5743C25.3273 19.731 25.8535 19.2455 26.4518 19.2455C26.7583 19.2455 26.9981 19.353 27.1109 19.5266H27.1209V18.1724H27.8981V18.1719ZM27.1209 20.3589C27.1209 20.3181 27.1162 20.2615 27.1109 20.2212C27.0648 20.0116 26.8959 19.8379 26.6556 19.8379C26.303 19.8379 26.1193 20.155 26.1193 20.5484C26.1193 20.9724 26.3289 21.2382 26.6508 21.2382C26.8763 21.2382 27.0553 21.0847 27.1013 20.865C27.1162 20.8089 27.1215 20.7527 27.1215 20.686L27.1209 20.3589Z" fill="white"/>
</svg>
