<svg width="26" height="26" viewBox="0 0 26 26" fill="none" xmlns="http://www.w3.org/2000/svg">
<g clip-path="url(#clip0_3_93504)">
<path d="M8.53627 13.6641H6.75056C5.76434 13.6641 4.96484 14.4636 4.96484 15.4498V22.5926C4.96484 23.5789 5.76434 24.3783 6.75056 24.3783H8.53627C9.52249 24.3783 10.322 23.5789 10.322 22.5926V15.4498C10.322 14.4636 9.52249 13.6641 8.53627 13.6641Z" stroke="black" stroke-width="1.5" stroke-linecap="round" stroke-linejoin="round"/>
<path d="M19.2511 13.6641H17.4654C16.4792 13.6641 15.6797 14.4636 15.6797 15.4498V22.5926C15.6797 23.5789 16.4792 24.3783 17.4654 24.3783H19.2511C20.2373 24.3783 21.0368 23.5789 21.0368 22.5926V15.4498C21.0368 14.4636 20.2373 13.6641 19.2511 13.6641Z" stroke="black" stroke-width="1.5" stroke-linecap="round" stroke-linejoin="round"/>
<path d="M1.39453 17.2355V12.7712C1.39453 9.6928 2.61742 6.74048 4.79418 4.56372C6.97095 2.38695 9.92327 1.16406 13.0017 1.16406C16.0801 1.16406 19.0324 2.38695 21.2092 4.56372C23.3859 6.74048 24.6088 9.6928 24.6088 12.7712V17.2355" stroke="black" stroke-width="1.5" stroke-linecap="round" stroke-linejoin="round"/>
</g>
<defs>
<clipPath id="clip0_3_93504">
<rect width="25" height="25" fill="white" transform="translate(0.5 0.269531)"/>
</clipPath>
</defs>
</svg>
