<svg width="25" height="26" viewBox="0 0 25 26" fill="none" xmlns="http://www.w3.org/2000/svg">
<g clip-path="url(#clip0_18_705)">
<path d="M15.1763 9.45033C16.1626 9.45033 16.9621 8.65084 16.9621 7.66462C16.9621 6.6784 16.1626 5.87891 15.1763 5.87891C14.1901 5.87891 13.3906 6.6784 13.3906 7.66462C13.3906 8.65084 14.1901 9.45033 15.1763 9.45033Z" stroke="black" stroke-width="1.5" stroke-linecap="round" stroke-linejoin="round"/>
<path d="M8.03348 18.3795C8.52659 18.3795 8.92634 17.9797 8.92634 17.4866C8.92634 16.9935 8.52659 16.5938 8.03348 16.5938C7.54037 16.5938 7.14062 16.9935 7.14062 17.4866C7.14062 17.9797 7.54037 18.3795 8.03348 18.3795Z" stroke="black" stroke-width="1.5" stroke-linecap="round" stroke-linejoin="round"/>
<path d="M8.03571 12.13C9.02194 12.13 9.82143 11.3305 9.82143 10.3443C9.82143 9.35809 9.02194 8.55859 8.03571 8.55859C7.04949 8.55859 6.25 9.35809 6.25 10.3443C6.25 11.3305 7.04949 12.13 8.03571 12.13Z" stroke="black" stroke-width="1.5" stroke-linecap="round" stroke-linejoin="round"/>
<path d="M16.9987 22.4498C16.9788 22.1034 16.8584 21.7703 16.6523 21.4913C16.4462 21.2122 16.1632 20.9992 15.838 20.8784C15.0303 20.6129 14.3438 20.068 13.902 19.3417C13.4601 18.6154 13.2918 17.7552 13.4274 16.9159C13.563 16.0766 13.9935 15.3132 14.6416 14.763C15.2897 14.2127 16.1128 13.9117 16.963 13.9141H20.3023C20.875 13.9157 21.4397 13.7795 21.9488 13.517C22.4578 13.2546 22.8963 12.8736 23.2272 12.4061C23.5581 11.9386 23.7718 11.3984 23.8501 10.8311C23.9284 10.2637 23.8691 9.68585 23.6773 9.14621C22.967 7.1408 21.7193 5.36916 20.0703 4.02486C18.4214 2.68057 16.4347 1.81532 14.3273 1.52366C12.2199 1.232 10.0729 1.52514 8.12085 2.37106C6.16878 3.21698 4.48676 4.58314 3.25854 6.32027C2.03033 8.0574 1.30317 10.0987 1.15652 12.2211C1.00987 14.3435 1.44936 16.4654 2.42698 18.355C3.4046 20.2445 4.88274 21.829 6.69991 22.9354C8.51708 24.0417 10.6034 24.6274 12.7308 24.6284C13.7815 24.6313 14.8274 24.487 15.838 24.1998C16.2092 24.0958 16.5306 23.8618 16.7437 23.5406C16.9567 23.2193 17.0473 22.8322 16.9987 22.4498V22.4498Z" stroke="black" stroke-width="1.5" stroke-linecap="round" stroke-linejoin="round"/>
</g>
<defs>
<clipPath id="clip0_18_705">
<rect width="25" height="25" fill="white" transform="translate(0 0.519531)"/>
</clipPath>
</defs>
</svg>
