<?xml version="1.0" encoding="UTF-8" standalone="no"?>
<svg
   width="30"
   height="31"
   viewBox="0 0 30 31"
   fill="none"
   version="1.1"
   id="svg3"
   sodipodi:docname="icon-work-item-2.svg"
   inkscape:version="1.4.2 (ebf0e940d0, 2025-05-08)"
   xmlns:inkscape="http://www.inkscape.org/namespaces/inkscape"
   xmlns:sodipodi="http://sodipodi.sourceforge.net/DTD/sodipodi-0.dtd"
   xmlns="http://www.w3.org/2000/svg"
   xmlns:svg="http://www.w3.org/2000/svg">
  <sodipodi:namedview
     id="namedview3"
     pagecolor="#505050"
     bordercolor="#eeeeee"
     borderopacity="1"
     inkscape:showpageshadow="0"
     inkscape:pageopacity="0"
     inkscape:pagecheckerboard="0"
     inkscape:deskcolor="#505050"
     inkscape:zoom="21.032258"
     inkscape:cx="15.02454"
     inkscape:cy="15.452454"
     inkscape:window-width="1600"
     inkscape:window-height="863"
     inkscape:window-x="0"
     inkscape:window-y="0"
     inkscape:window-maximized="1"
     inkscape:current-layer="svg3" />
  <g
     clip-path="url(#clip0_3_93662)"
     id="g3"
     style="stroke:#99c51d;stroke-opacity:1">
    <path
       d="M9.64118 16.5898H7.49833C6.31486 16.5898 5.35547 17.5492 5.35547 18.7327V27.3041C5.35547 28.4876 6.31486 29.447 7.49833 29.447H9.64118C10.8247 29.447 11.784 28.4876 11.784 27.3041V18.7327C11.784 17.5492 10.8247 16.5898 9.64118 16.5898Z"
       stroke="#F8C822"
       stroke-width="1.5"
       stroke-linecap="round"
       stroke-linejoin="round"
       id="path1"
       style="stroke:#99c51d;stroke-opacity:1" />
    <path
       d="M22.5006 16.5898H20.3577C19.1742 16.5898 18.2148 17.5492 18.2148 18.7327V27.3041C18.2148 28.4876 19.1742 29.447 20.3577 29.447H22.5006C23.684 29.447 24.6434 28.4876 24.6434 27.3041V18.7327C24.6434 17.5492 23.684 16.5898 22.5006 16.5898Z"
       stroke="#F8C822"
       stroke-width="1.5"
       stroke-linecap="round"
       stroke-linejoin="round"
       id="path2"
       style="stroke:#99c51d;stroke-opacity:1" />
    <path
       d="M1.07031 20.8756V15.5184C1.07031 11.8243 2.53778 8.28154 5.1499 5.66943C7.76201 3.05731 11.3048 1.58984 14.9989 1.58984C18.693 1.58984 22.2358 3.05731 24.8479 5.66943C27.46 8.28154 28.9275 11.8243 28.9275 15.5184V20.8756"
       stroke="#F8C822"
       stroke-width="1.5"
       stroke-linecap="round"
       stroke-linejoin="round"
       id="path3"
       style="stroke:#99c51d;stroke-opacity:1" />
  </g>
  <defs
     id="defs3">
    <clipPath
       id="clip0_3_93662">
      <rect
         width="30"
         height="30"
         fill="white"
         transform="translate(0 0.519531)"
         id="rect3" />
    </clipPath>
  </defs>
</svg>
