<svg width="40" height="40" viewBox="0 0 40 40" fill="none" xmlns="http://www.w3.org/2000/svg">
<g clip-path="url(#clip0_54_734)">
<path d="M25.0293 37.1414C26.7888 38.2766 28.8855 38.7712 30.9668 38.5423C33.0481 38.3133 34.9872 37.3747 36.4579 35.8843L37.7436 34.6272C38.3072 34.0506 38.6228 33.2763 38.6228 32.47C38.6228 31.6637 38.3072 30.8894 37.7436 30.3129L32.2864 24.9129C31.7147 24.351 30.9452 24.0362 30.1436 24.0362C29.342 24.0362 28.5724 24.351 28.0007 24.9129V24.9129C27.4242 25.4765 26.6499 25.7921 25.8436 25.7921C25.0373 25.7921 24.263 25.4765 23.6864 24.9129L15.115 16.3414C14.8291 16.0597 14.602 15.7238 14.447 15.3535C14.292 14.9832 14.2122 14.5857 14.2122 14.1843C14.2122 13.7829 14.292 13.3854 14.447 13.0151C14.602 12.6448 14.8291 12.3089 15.115 12.0272V12.0272C15.6769 11.4554 15.9917 10.6859 15.9917 9.8843C15.9917 9.0827 15.6769 8.31317 15.115 7.74144L9.68642 2.31287C9.10987 1.7492 8.33559 1.43359 7.52928 1.43359C6.72297 1.43359 5.94869 1.7492 5.37214 2.31287L4.11499 3.59858C2.62455 5.06928 1.68595 7.00831 1.457 9.08963C1.22806 11.171 1.72273 13.2677 2.85785 15.0272C8.77227 23.7435 16.2977 31.2495 25.0293 37.1414V37.1414Z" stroke="black" stroke-width="1.5" stroke-linecap="round" stroke-linejoin="round"/>
</g>
<defs>
<clipPath id="clip0_54_734">
<rect width="40" height="40" fill="white"/>
</clipPath>
</defs>
</svg>
