<?xml version="1.0" encoding="UTF-8" standalone="no"?>
<svg
   width="30"
   height="31"
   viewBox="0 0 30 31"
   fill="none"
   version="1.1"
   id="svg2"
   sodipodi:docname="icon-payment-methods-2.svg"
   inkscape:version="1.4.2 (ebf0e940d0, 2025-05-08)"
   xmlns:inkscape="http://www.inkscape.org/namespaces/inkscape"
   xmlns:sodipodi="http://sodipodi.sourceforge.net/DTD/sodipodi-0.dtd"
   xmlns="http://www.w3.org/2000/svg"
   xmlns:svg="http://www.w3.org/2000/svg">
  <defs
     id="defs2" />
  <sodipodi:namedview
     id="namedview2"
     pagecolor="#505050"
     bordercolor="#eeeeee"
     borderopacity="1"
     inkscape:showpageshadow="0"
     inkscape:pageopacity="0"
     inkscape:pagecheckerboard="0"
     inkscape:deskcolor="#505050"
     inkscape:zoom="10.516129"
     inkscape:cx="15.02454"
     inkscape:cy="15.404908"
     inkscape:window-width="1600"
     inkscape:window-height="863"
     inkscape:window-x="0"
     inkscape:window-y="0"
     inkscape:window-maximized="1"
     inkscape:current-layer="svg2" />
  <path
     d="M2.75977 5.92969H27.2402C28.002 5.92969 28.6875 6.24023 29.1914 6.73828C29.6895 7.23633 30 7.92773 30 8.68945V22.541C30 23.3027 29.6895 23.9883 29.1914 24.4922C28.6934 24.9902 28.002 25.3008 27.2402 25.3008H2.75977C1.99805 25.3008 1.3125 24.9902 0.808594 24.4922C0.310547 23.9941 0 23.3027 0 22.541V8.68945C0 7.92773 0.310547 7.24219 0.808594 6.73828C1.30664 6.24023 1.99805 5.92969 2.75977 5.92969ZM27.2402 6.86719H2.75977C2.26172 6.86719 1.80469 7.07227 1.4707 7.40039C1.14258 7.72852 0.9375 8.18555 0.9375 8.68945V22.541C0.9375 23.0391 1.14258 23.4961 1.4707 23.8301C1.79883 24.1582 2.25586 24.3633 2.75977 24.3633H27.2402C27.7383 24.3633 28.1953 24.1582 28.5293 23.8301C28.8574 23.502 29.0625 23.0449 29.0625 22.541V8.68945C29.0625 8.19141 28.8574 7.73438 28.5293 7.40039C28.2012 7.07227 27.7441 6.86719 27.2402 6.86719Z"
     fill="#F8C822"
     id="path1"
     style="fill:#99c51d;fill-opacity:1" />
  <path
     d="M4.18359 12.793H6.42773C6.91406 12.793 7.2832 12.9102 7.52344 13.1387C7.76367 13.373 7.88672 13.7012 7.88672 14.1289C7.88672 14.5684 7.75195 14.9141 7.48828 15.1602C7.22461 15.4062 6.82031 15.5293 6.27539 15.5293H5.53711V17.1465H4.18359V12.7812V12.793ZM5.53711 14.6562H5.86523C6.12305 14.6562 6.30469 14.6094 6.41016 14.5215C6.51562 14.4336 6.56836 14.3164 6.56836 14.1758C6.56836 14.041 6.52148 13.9238 6.43359 13.8301C6.3457 13.7363 6.16992 13.6895 5.91797 13.6895H5.53125V14.6621L5.53711 14.6562ZM9.50977 15.0195L8.34961 14.8965C8.39062 14.6914 8.45508 14.5332 8.53711 14.416C8.61914 14.2988 8.73633 14.1992 8.89453 14.1113C9.00586 14.0469 9.1582 14 9.35156 13.9707C9.54492 13.9355 9.75586 13.918 9.98438 13.918C10.3477 13.918 10.6406 13.9355 10.8574 13.9766C11.0801 14.0176 11.2617 14.1055 11.4082 14.2344C11.5137 14.3223 11.5957 14.4512 11.6543 14.6152C11.7129 14.7793 11.7422 14.9375 11.7422 15.084V16.4785C11.7422 16.625 11.7539 16.7422 11.7715 16.8301C11.7891 16.9121 11.8301 17.0234 11.8945 17.1523H10.7578C10.7109 17.0703 10.6816 17.0117 10.6699 16.9648C10.6582 16.9238 10.6406 16.8535 10.6289 16.7656C10.4707 16.918 10.3125 17.0293 10.1543 17.0937C9.9375 17.1816 9.69141 17.2227 9.41016 17.2227C9.03516 17.2227 8.74805 17.1348 8.54883 16.959C8.35547 16.7832 8.25586 16.5723 8.25586 16.3145C8.25586 16.0742 8.32617 15.875 8.4668 15.7227C8.60742 15.5645 8.86523 15.4531 9.24609 15.377C9.70312 15.2832 9.99609 15.2187 10.1309 15.1836C10.2656 15.1484 10.4062 15.0957 10.5586 15.0371C10.5586 14.8906 10.5293 14.7852 10.4648 14.7266C10.4004 14.668 10.2949 14.6387 10.1367 14.6387C9.9375 14.6387 9.79102 14.6738 9.69141 14.7324C9.61523 14.7852 9.55078 14.873 9.50391 15.0137L9.50977 15.0195ZM10.5586 15.6582C10.3945 15.7168 10.2188 15.7695 10.0371 15.8164C9.79102 15.8809 9.63281 15.9453 9.56836 16.0098C9.49805 16.0742 9.46875 16.1504 9.46875 16.2324C9.46875 16.3262 9.50391 16.4023 9.56836 16.4668C9.63281 16.5254 9.73242 16.5547 9.86133 16.5547C9.99609 16.5547 10.1191 16.5195 10.2363 16.4551C10.3535 16.3906 10.4355 16.3086 10.4824 16.2148C10.5293 16.1211 10.5527 15.998 10.5527 15.8457V15.6523L10.5586 15.6582ZM12.1172 14H13.3945L14.0449 16.1035L14.6484 14H15.8438L14.5898 17.3809C14.4492 17.7676 14.3027 18.0254 14.1504 18.1602C13.9395 18.3535 13.6172 18.4473 13.1895 18.4473C13.0137 18.4473 12.7441 18.4238 12.3809 18.377L12.2871 17.5332C12.4629 17.5918 12.6562 17.6152 12.873 17.6152C13.0137 17.6152 13.1309 17.5801 13.2188 17.5156C13.3066 17.4512 13.3828 17.334 13.4414 17.1641L12.1113 14H12.1172ZM16.2656 12.7988H18.5098C18.9961 12.7988 19.3652 12.916 19.6055 13.1445C19.8457 13.3789 19.9688 13.707 19.9688 14.1348C19.9688 14.5742 19.834 14.9199 19.5703 15.166C19.3066 15.4121 18.9023 15.5352 18.3574 15.5352H17.6191V17.1523H16.2656V12.7871V12.7988ZM17.6191 14.6621H17.9473C18.2051 14.6621 18.3867 14.6152 18.4922 14.5273C18.5977 14.4395 18.6504 14.3223 18.6504 14.1816C18.6504 14.0469 18.6035 13.9297 18.5156 13.8359C18.4277 13.7422 18.252 13.6953 18 13.6953H17.6133V14.668L17.6191 14.6621ZM21.5918 15.0254L20.4316 14.9023C20.4727 14.6973 20.5371 14.5391 20.6191 14.4219C20.7012 14.3047 20.8184 14.2051 20.9766 14.1172C21.0879 14.0527 21.2402 14.0059 21.4336 13.9766C21.627 13.9414 21.8379 13.9238 22.0664 13.9238C22.4297 13.9238 22.7227 13.9414 22.9395 13.9824C23.1621 14.0234 23.3438 14.1113 23.4902 14.2402C23.5957 14.3281 23.6777 14.457 23.7363 14.6211C23.7949 14.7852 23.8242 14.9434 23.8242 15.0898V16.4844C23.8242 16.6309 23.8359 16.748 23.8535 16.8359C23.8711 16.918 23.9121 17.0293 23.9766 17.1582H22.8398C22.793 17.0762 22.7637 17.0176 22.752 16.9707C22.7402 16.9297 22.7227 16.8594 22.7109 16.7715C22.5527 16.9238 22.3945 17.0352 22.2363 17.0996C22.0195 17.1875 21.7734 17.2285 21.4922 17.2285C21.1172 17.2285 20.8301 17.1406 20.6309 16.9648C20.4375 16.7891 20.3379 16.5781 20.3379 16.3203C20.3379 16.0801 20.4082 15.8809 20.5488 15.7285C20.6895 15.5703 20.9473 15.459 21.3281 15.3828C21.7852 15.2891 22.0781 15.2246 22.2129 15.1895C22.3477 15.1543 22.4883 15.1016 22.6406 15.043C22.6406 14.8965 22.6113 14.791 22.5469 14.7324C22.4824 14.6738 22.377 14.6445 22.2188 14.6445C22.0195 14.6445 21.873 14.6797 21.7734 14.7383C21.6973 14.791 21.6328 14.8789 21.5859 15.0195L21.5918 15.0254ZM22.6406 15.6641C22.4766 15.7227 22.3008 15.7754 22.1191 15.8223C21.873 15.8867 21.7148 15.9512 21.6504 16.0156C21.5801 16.0801 21.5508 16.1562 21.5508 16.2383C21.5508 16.332 21.5859 16.4082 21.6504 16.4727C21.7148 16.5312 21.8145 16.5605 21.9434 16.5605C22.0781 16.5605 22.2012 16.5254 22.3184 16.4609C22.4355 16.3965 22.5176 16.3145 22.5645 16.2207C22.6113 16.127 22.6348 16.0039 22.6348 15.8516V15.6582L22.6406 15.6641ZM24.5918 12.7988H25.8047V17.1641H24.5918V12.7988Z"
     fill="#F8C822"
     id="path2"
     style="fill:#99c51d;fill-opacity:1" />
</svg>
