<svg width="26" height="26" viewBox="0 0 26 26" fill="none" xmlns="http://www.w3.org/2000/svg">
<g clip-path="url(#clip0_3_93511)">
<path d="M6.30525 10.9855C9.01736 10.9855 11.216 8.78689 11.216 6.07478C11.216 3.36266 9.01736 1.16406 6.30525 1.16406C3.59313 1.16406 1.39453 3.36266 1.39453 6.07478C1.39453 8.78689 3.59313 10.9855 6.30525 10.9855Z" stroke="black" stroke-width="1.5" stroke-linecap="round" stroke-linejoin="round"/>
<path d="M19.6998 10.9855C22.4119 10.9855 24.6105 8.78689 24.6105 6.07478C24.6105 3.36266 22.4119 1.16406 19.6998 1.16406C16.9877 1.16406 14.7891 3.36266 14.7891 6.07478C14.7891 8.78689 16.9877 10.9855 19.6998 10.9855Z" stroke="black" stroke-width="1.5" stroke-linecap="round" stroke-linejoin="round"/>
<path d="M6.30525 24.38C9.01736 24.38 11.216 22.1814 11.216 19.4693C11.216 16.7572 9.01736 14.5586 6.30525 14.5586C3.59313 14.5586 1.39453 16.7572 1.39453 19.4693C1.39453 22.1814 3.59313 24.38 6.30525 24.38Z" stroke="black" stroke-width="1.5" stroke-linecap="round" stroke-linejoin="round"/>
<path d="M19.6998 24.38C22.4119 24.38 24.6105 22.1814 24.6105 19.4693C24.6105 16.7572 22.4119 14.5586 19.6998 14.5586C16.9877 14.5586 14.7891 16.7572 14.7891 19.4693C14.7891 22.1814 16.9877 24.38 19.6998 24.38Z" stroke="black" stroke-width="1.5" stroke-linecap="round" stroke-linejoin="round"/>
</g>
<defs>
<clipPath id="clip0_3_93511">
<rect width="25" height="25" fill="white" transform="translate(0.5 0.269531)"/>
</clipPath>
</defs>
</svg>
