<?xml version="1.0" encoding="UTF-8" standalone="no"?>
<svg
   width="51"
   height="51"
   viewBox="0 0 51 51"
   fill="none"
   version="1.1"
   id="svg4"
   sodipodi:docname="icon-quality-item-3.svg"
   inkscape:version="1.4.2 (ebf0e940d0, 2025-05-08)"
   xmlns:inkscape="http://www.inkscape.org/namespaces/inkscape"
   xmlns:sodipodi="http://sodipodi.sourceforge.net/DTD/sodipodi-0.dtd"
   xmlns="http://www.w3.org/2000/svg"
   xmlns:svg="http://www.w3.org/2000/svg">
  <sodipodi:namedview
     id="namedview4"
     pagecolor="#505050"
     bordercolor="#eeeeee"
     borderopacity="1"
     inkscape:showpageshadow="0"
     inkscape:pageopacity="0"
     inkscape:pagecheckerboard="0"
     inkscape:deskcolor="#505050"
     inkscape:zoom="12.784314"
     inkscape:cx="25.499999"
     inkscape:cy="25.57822"
     inkscape:window-width="1600"
     inkscape:window-height="863"
     inkscape:window-x="0"
     inkscape:window-y="0"
     inkscape:window-maximized="1"
     inkscape:current-layer="svg4" />
  <g
     clip-path="url(#clip0_3_93583)"
     id="g4"
     style="stroke:#99c51d;stroke-opacity:1">
    <path
       d="M25.5028 34.1032C30.4339 34.1032 34.4314 30.1058 34.4314 25.1747C34.4314 20.2436 30.4339 16.2461 25.5028 16.2461C20.5717 16.2461 16.5742 20.2436 16.5742 25.1747C16.5742 30.1058 20.5717 34.1032 25.5028 34.1032Z"
       stroke="#F8C822"
       stroke-width="2"
       stroke-linecap="round"
       stroke-linejoin="round"
       id="path1"
       style="stroke:#99c51d;stroke-opacity:1" />
    <path
       d="M25.5 16.2427V1.95703"
       stroke="#F8C822"
       stroke-width="2"
       stroke-linecap="round"
       stroke-linejoin="round"
       id="path2"
       style="stroke:#99c51d;stroke-opacity:1" />
    <path
       d="M34.4297 48.3823V43.0251H41.5725C42.5197 43.0251 43.4282 42.6488 44.0979 41.9791C44.7677 41.3093 45.144 40.4009 45.144 39.4537V25.168C45.1446 21.5468 44.1443 17.996 42.2536 14.9077C40.3628 11.8195 37.6551 9.31393 34.4297 7.66797"
       stroke="#F8C822"
       stroke-width="2"
       stroke-linecap="round"
       stroke-linejoin="round"
       id="path3"
       style="stroke:#99c51d;stroke-opacity:1" />
    <path
       d="M16.573 7.66797C13.3462 9.31295 10.6371 11.818 8.74503 14.9064C6.85294 17.9948 5.85156 21.5461 5.85156 25.168C5.85156 28.7898 6.85294 32.3412 8.74503 35.4295C10.6371 38.5179 13.3462 41.023 16.573 42.668V48.3823"
       stroke="#F8C822"
       stroke-width="2"
       stroke-linecap="round"
       stroke-linejoin="round"
       id="path4"
       style="stroke:#99c51d;stroke-opacity:1" />
  </g>
  <defs
     id="defs4">
    <clipPath
       id="clip0_3_93583">
      <rect
         width="50"
         height="50"
         fill="white"
         transform="translate(0.5 0.167969)"
         id="rect4" />
    </clipPath>
  </defs>
</svg>
