<svg width="92" height="31" viewBox="0 0 92 31" fill="none" xmlns="http://www.w3.org/2000/svg">
<path d="M39.0015 16.4927C39.0015 20.8088 35.6251 23.9893 31.4812 23.9893C27.3374 23.9893 23.9609 20.8088 23.9609 16.4927C23.9609 12.1461 27.3374 8.99609 31.4812 8.99609C35.6251 8.99609 39.0015 12.1461 39.0015 16.4927ZM35.7094 16.4927C35.7094 13.7955 33.7525 11.9502 31.4812 11.9502C29.21 11.9502 27.253 13.7957 27.253 16.4927C27.253 19.1629 29.21 21.0353 31.4812 21.0353C33.7525 21.0354 35.7094 19.1595 35.7094 16.4927Z" fill="#FF4131"/>
<path d="M55.2242 16.4927C55.2242 20.8088 51.8477 23.9893 47.7039 23.9893C43.5601 23.9893 40.1836 20.8088 40.1836 16.4927C40.1836 12.1495 43.5601 8.99609 47.7039 8.99609C51.8475 8.99609 55.2242 12.1461 55.2242 16.4927ZM51.9321 16.4927C51.9321 13.7955 49.9752 11.9502 47.7039 11.9502C45.4326 11.9502 43.4757 13.7957 43.4757 16.4927C43.4757 19.1629 45.4326 21.0353 47.7039 21.0353C49.9752 21.0354 51.9321 19.1595 51.9321 16.4927Z" fill="#FFBC00"/>
<path d="M70.7697 9.4491V22.9078C70.7697 28.4441 67.5047 30.7052 63.645 30.7052C60.0116 30.7052 57.8247 28.275 57.0001 26.2877L59.8662 25.0945C60.3765 26.3147 61.6272 27.7545 63.6416 27.7545C66.1122 27.7545 67.6434 26.2302 67.6434 23.3606V22.2825H67.5284C66.7916 23.1917 65.3719 23.9859 63.5807 23.9859C59.8324 23.9859 56.3984 20.7209 56.3984 16.5198C56.3984 12.2882 59.8324 8.99609 63.5807 8.99609C65.3687 8.99609 66.7883 9.79033 67.5284 10.6725H67.6434V9.45231H70.7697V9.4491ZM67.8765 16.5198C67.8765 13.88 66.1156 11.9502 63.8748 11.9502C61.6035 11.9502 59.7005 13.88 59.7005 16.5198C59.7005 19.1324 61.6033 21.0353 63.8748 21.0353C66.1156 21.0354 67.8765 19.1324 67.8765 16.5198Z" fill="#0085F7"/>
<path d="M75.9258 1.56641V23.5358H72.7148V1.56641H75.9258Z" fill="#00A94B"/>
<path d="M88.4385 18.9635L90.9937 20.667C90.169 21.8872 88.1817 23.9893 84.7477 23.9893C80.4891 23.9893 77.3086 20.6972 77.3086 16.4927C77.3086 12.0345 80.5161 8.99609 84.3793 8.99609C88.2694 8.99609 90.1724 12.092 90.7944 13.765L91.1358 14.6168L81.1144 18.7674C81.8816 20.2715 83.0747 21.0386 84.7477 21.0386C86.4241 21.0388 87.5868 20.214 88.4385 18.9635ZM80.5736 16.2663L87.2726 13.4847C86.9042 12.5484 85.7956 11.8962 84.491 11.8962C82.8179 11.8961 80.4891 13.3731 80.5736 16.2663Z" fill="#FF4131"/>
<path d="M11.806 14.5443V11.3639H22.5237C22.6285 11.9181 22.6824 12.5739 22.6824 13.2836C22.6824 15.6698 22.0301 18.6203 19.9279 20.7227C17.8831 22.8521 15.2704 23.9877 11.8094 23.9877C5.39427 23.9877 0 18.7624 0 12.3475C0 5.93256 5.39427 0.707031 11.8094 0.707031C15.3583 0.707031 17.8864 2.09952 19.7859 3.91458L17.5417 6.15879C16.1796 4.88112 14.3341 3.88752 11.806 3.88752C7.12139 3.88752 3.45764 7.66289 3.45764 12.3475C3.45764 17.0321 7.12139 20.8074 11.806 20.8074C14.8444 20.8074 16.5749 19.5872 17.6837 18.4787C18.5828 17.5796 19.1743 16.2953 19.4074 14.5411L11.806 14.5443Z" fill="#0085F7"/>
</svg>
