<?xml version="1.0" encoding="UTF-8" standalone="no"?>
<svg
   width="50"
   height="51"
   viewBox="0 0 50 51"
   fill="none"
   version="1.1"
   id="svg3"
   sodipodi:docname="icon-quality-item-1.svg"
   inkscape:version="1.4.2 (ebf0e940d0, 2025-05-08)"
   xmlns:inkscape="http://www.inkscape.org/namespaces/inkscape"
   xmlns:sodipodi="http://sodipodi.sourceforge.net/DTD/sodipodi-0.dtd"
   xmlns="http://www.w3.org/2000/svg"
   xmlns:svg="http://www.w3.org/2000/svg">
  <defs
     id="defs3" />
  <sodipodi:namedview
     id="namedview3"
     pagecolor="#505050"
     bordercolor="#eeeeee"
     borderopacity="1"
     inkscape:showpageshadow="0"
     inkscape:pageopacity="0"
     inkscape:pagecheckerboard="0"
     inkscape:deskcolor="#505050"
     inkscape:zoom="12.784314"
     inkscape:cx="24.952453"
     inkscape:cy="25.57822"
     inkscape:window-width="1600"
     inkscape:window-height="863"
     inkscape:window-x="0"
     inkscape:window-y="0"
     inkscape:window-maximized="1"
     inkscape:current-layer="svg3" />
  <path
     d="M16.0725 27.082H12.5011C10.5287 27.082 8.92969 28.681 8.92969 30.6535V44.9392C8.92969 46.9116 10.5287 48.5106 12.5011 48.5106H16.0725C18.045 48.5106 19.644 46.9116 19.644 44.9392V30.6535C19.644 28.681 18.045 27.082 16.0725 27.082Z"
     stroke="#F8C822"
     stroke-width="2"
     stroke-linecap="round"
     stroke-linejoin="round"
     id="path1"
     style="stroke:#99c51d;stroke-opacity:1" />
  <path
     d="M37.4983 27.082H33.9269C31.9545 27.082 30.3555 28.681 30.3555 30.6535V44.9392C30.3555 46.9116 31.9545 48.5106 33.9269 48.5106H37.4983C39.4708 48.5106 41.0698 46.9116 41.0698 44.9392V30.6535C41.0698 28.681 39.4708 27.082 37.4983 27.082Z"
     stroke="#F8C822"
     stroke-width="2"
     stroke-linecap="round"
     stroke-linejoin="round"
     id="path2"
     style="stroke:#99c51d;stroke-opacity:1" />
  <path
     d="M1.78516 34.2249V25.2963C1.78516 19.1395 4.23094 13.2349 8.58446 8.88134C12.938 4.52782 18.8426 2.08203 24.9994 2.08203C31.1563 2.08203 37.0609 4.52782 41.4144 8.88134C45.7679 13.2349 48.2137 19.1395 48.2137 25.2963V34.2249"
     stroke="#F8C822"
     stroke-width="2"
     stroke-linecap="round"
     stroke-linejoin="round"
     id="path3"
     style="stroke:#99c51d;stroke-opacity:1" />
</svg>
