<?xml version="1.0" encoding="UTF-8" standalone="no"?>
<svg
   width="60"
   height="61"
   viewBox="0 0 60 61"
   fill="none"
   version="1.1"
   id="svg3"
   sodipodi:docname="icon-feature-1.svg"
   inkscape:version="1.4.2 (ebf0e940d0, 2025-05-08)"
   xmlns:inkscape="http://www.inkscape.org/namespaces/inkscape"
   xmlns:sodipodi="http://sodipodi.sourceforge.net/DTD/sodipodi-0.dtd"
   xmlns="http://www.w3.org/2000/svg"
   xmlns:svg="http://www.w3.org/2000/svg">
  <defs
     id="defs3" />
  <sodipodi:namedview
     id="namedview3"
     pagecolor="#505050"
     bordercolor="#eeeeee"
     borderopacity="1"
     inkscape:showpageshadow="0"
     inkscape:pageopacity="0"
     inkscape:pagecheckerboard="0"
     inkscape:deskcolor="#505050"
     inkscape:zoom="3.7789641"
     inkscape:cx="30.166997"
     inkscape:cy="30.166997"
     inkscape:window-width="1600"
     inkscape:window-height="863"
     inkscape:window-x="0"
     inkscape:window-y="0"
     inkscape:window-maximized="1"
     inkscape:current-layer="svg3" />
  <path
     d="M19.2863 32.3945H15.0006C12.6336 32.3945 10.7148 34.3133 10.7148 36.6802V53.8231C10.7148 56.19 12.6336 58.1088 15.0006 58.1088H19.2863C21.6532 58.1088 23.572 56.19 23.572 53.8231V36.6802C23.572 34.3133 21.6532 32.3945 19.2863 32.3945Z"
     stroke="#F8C822"
     stroke-width="2"
     stroke-linecap="round"
     stroke-linejoin="round"
     id="path1"
     style="stroke:#99c51d;stroke-opacity:1" />
  <path
     d="M45.0011 32.3945H40.7154C38.3485 32.3945 36.4297 34.3133 36.4297 36.6802V53.8231C36.4297 56.19 38.3485 58.1088 40.7154 58.1088H45.0011C47.3681 58.1088 49.2868 56.19 49.2868 53.8231V36.6802C49.2868 34.3133 47.3681 32.3945 45.0011 32.3945Z"
     stroke="#F8C822"
     stroke-width="2"
     stroke-linecap="round"
     stroke-linejoin="round"
     id="path2"
     style="stroke:#99c51d;stroke-opacity:1" />
  <path
     d="M2.14453 40.966V30.2517C2.14453 22.8635 5.07947 15.7779 10.3037 10.5537C15.5279 5.32947 22.6135 2.39453 30.0017 2.39453C37.3898 2.39453 44.4754 5.32947 49.6996 10.5537C54.9239 15.7779 57.8588 22.8635 57.8588 30.2517V40.966"
     stroke="#F8C822"
     stroke-width="2"
     stroke-linecap="round"
     stroke-linejoin="round"
     id="path3"
     style="stroke:#99c51d;stroke-opacity:1" />
</svg>
