<svg width="26" height="26" viewBox="0 0 26 26" fill="none" xmlns="http://www.w3.org/2000/svg">
<g clip-path="url(#clip0_3_93497)">
<path d="M13.8404 12.5923C13.5755 12.7073 13.2899 12.7667 13.0011 12.7667C12.7124 12.7667 12.4267 12.7073 12.1618 12.5923L1.98325 7.87804C1.81797 7.79468 1.67907 7.66707 1.58202 7.50943C1.48498 7.35179 1.43359 7.1703 1.43359 6.98518C1.43359 6.80007 1.48498 6.61858 1.58202 6.46094C1.67907 6.3033 1.81797 6.17569 1.98325 6.09233L12.1618 1.34233C12.4267 1.22732 12.7124 1.16797 13.0011 1.16797C13.2899 1.16797 13.5755 1.22732 13.8404 1.34233L24.019 6.05661C24.1843 6.13998 24.3232 6.26759 24.4202 6.42523C24.5172 6.58287 24.5686 6.76435 24.5686 6.94947C24.5686 7.13459 24.5172 7.31607 24.4202 7.47371C24.3232 7.63135 24.1843 7.75896 24.019 7.84233L13.8404 12.5923Z" stroke="black" stroke-width="1.5" stroke-linecap="round" stroke-linejoin="round"/>
<path d="M24.6088 13.3945L13.716 18.4124C13.4833 18.5185 13.2306 18.5734 12.9749 18.5734C12.7192 18.5734 12.4665 18.5185 12.2338 18.4124L1.39453 13.3945" stroke="black" stroke-width="1.5" stroke-linecap="round" stroke-linejoin="round"/>
<path d="M24.6088 19.1992L13.716 24.2171C13.4833 24.3232 13.2306 24.3781 12.9749 24.3781C12.7192 24.3781 12.4665 24.3232 12.2338 24.2171L1.39453 19.1992" stroke="black" stroke-width="1.5" stroke-linecap="round" stroke-linejoin="round"/>
</g>
<defs>
<clipPath id="clip0_3_93497">
<rect width="25" height="25" fill="white" transform="translate(0.5 0.269531)"/>
</clipPath>
</defs>
</svg>
