<?xml version="1.0" encoding="UTF-8" standalone="no"?>
<svg
   width="30"
   height="31"
   viewBox="0 0 30 31"
   fill="none"
   version="1.1"
   id="svg3"
   sodipodi:docname="icon-why-choose-4.svg"
   inkscape:version="1.4.2 (ebf0e940d0, 2025-05-08)"
   xmlns:inkscape="http://www.inkscape.org/namespaces/inkscape"
   xmlns:sodipodi="http://sodipodi.sourceforge.net/DTD/sodipodi-0.dtd"
   xmlns="http://www.w3.org/2000/svg"
   xmlns:svg="http://www.w3.org/2000/svg">
  <sodipodi:namedview
     id="namedview3"
     pagecolor="#505050"
     bordercolor="#eeeeee"
     borderopacity="1"
     inkscape:showpageshadow="0"
     inkscape:pageopacity="0"
     inkscape:pagecheckerboard="0"
     inkscape:deskcolor="#505050"
     inkscape:zoom="21.032258"
     inkscape:cx="15.02454"
     inkscape:cy="15.452454"
     inkscape:window-width="1600"
     inkscape:window-height="863"
     inkscape:window-x="0"
     inkscape:window-y="0"
     inkscape:window-maximized="1"
     inkscape:current-layer="svg3" />
  <g
     clip-path="url(#clip0_3_93727)"
     id="g3"
     style="stroke:#99c51d;stroke-opacity:1">
    <path
       d="M9.64118 16.4922H7.49833C6.31486 16.4922 5.35547 17.4516 5.35547 18.635V27.2065C5.35547 28.3899 6.31486 29.3493 7.49833 29.3493H9.64118C10.8247 29.3493 11.784 28.3899 11.784 27.2065V18.635C11.784 17.4516 10.8247 16.4922 9.64118 16.4922Z"
       stroke="#F8C822"
       stroke-width="1.5"
       stroke-linecap="round"
       stroke-linejoin="round"
       id="path1"
       style="stroke:#99c51d;stroke-opacity:1" />
    <path
       d="M22.5006 16.4922H20.3577C19.1742 16.4922 18.2148 17.4516 18.2148 18.635V27.2065C18.2148 28.3899 19.1742 29.3493 20.3577 29.3493H22.5006C23.684 29.3493 24.6434 28.3899 24.6434 27.2065V18.635C24.6434 17.4516 23.684 16.4922 22.5006 16.4922Z"
       stroke="#F8C822"
       stroke-width="1.5"
       stroke-linecap="round"
       stroke-linejoin="round"
       id="path2"
       style="stroke:#99c51d;stroke-opacity:1" />
    <path
       d="M1.07031 20.7779V15.4208C1.07031 11.7267 2.53778 8.18389 5.1499 5.57177C7.76201 2.95966 11.3048 1.49219 14.9989 1.49219C18.693 1.49219 22.2358 2.95966 24.8479 5.57177C27.46 8.18389 28.9275 11.7267 28.9275 15.4208V20.7779"
       stroke="#F8C822"
       stroke-width="1.5"
       stroke-linecap="round"
       stroke-linejoin="round"
       id="path3"
       style="stroke:#99c51d;stroke-opacity:1" />
  </g>
  <defs
     id="defs3">
    <clipPath
       id="clip0_3_93727">
      <rect
         width="30"
         height="30"
         fill="white"
         transform="translate(0 0.421875)"
         id="rect3" />
    </clipPath>
  </defs>
</svg>
