<svg width="30" height="31" viewBox="0 0 30 31" fill="none" xmlns="http://www.w3.org/2000/svg">
<path d="M12.1075 11.9128C11.7876 11.7828 11.4238 11.9403 11.295 12.2604L8.95127 18.1179H8.75V12.4929C8.75 12.1479 8.46998 11.8678 8.12498 11.8678H5.62502C5.28002 11.8678 5 12.1479 5 12.4929C5 12.8379 5.28002 13.1178 5.62502 13.1178H7.50002V18.7428C7.50002 19.0878 7.78004 19.3678 8.12504 19.3678H9.37502C9.63002 19.3678 9.86129 19.2116 9.95504 18.9753L12.4551 12.7253C12.5838 12.4053 12.4288 12.0416 12.1075 11.9128Z" fill="white"/>
<path d="M14.4972 11.8795C14.1747 11.812 13.8309 12.0295 13.7622 12.3695L12.5122 18.6195C12.4447 18.9582 12.6647 19.287 13.0034 19.3545C13.0447 19.3632 13.0859 19.367 13.1272 19.367C13.4184 19.367 13.6784 19.162 13.7384 18.8645L14.9884 12.6145C15.0559 12.2757 14.8359 11.947 14.4972 11.8795Z" fill="white"/>
<path d="M19.5304 12.0039C19.4292 11.9764 17.0242 11.3864 16.0966 12.8914C15.8016 13.3677 15.7116 13.8489 15.8266 14.3202C16.0454 15.2202 16.9779 15.7752 17.4254 16.0426C18.1454 16.4701 18.5266 16.9026 18.4466 17.1964C18.4041 17.3476 18.2641 17.7226 17.8529 17.9414C17.3841 18.1914 16.6829 18.1689 15.8266 17.8789C15.4992 17.7714 15.1454 17.9427 15.0329 18.2701C14.9229 18.5976 15.0979 18.9526 15.4241 19.0639C16.0191 19.2664 16.5691 19.3677 17.0666 19.3677C17.5791 19.3677 18.0379 19.2614 18.4416 19.0452C19.0341 18.7302 19.4754 18.1764 19.6541 17.5252C19.8254 16.8927 19.6904 15.9352 18.0653 14.9689C17.7891 14.8039 17.1366 14.4151 17.0416 14.0239C17.0303 13.9739 16.9928 13.8214 17.1616 13.5489C17.5291 12.9489 18.8053 13.1114 19.2241 13.2151C19.5628 13.3014 19.8979 13.0964 19.9816 12.7614C20.0667 12.4276 19.8654 12.0888 19.5304 12.0039Z" fill="white"/>
<path d="M24.3753 11.8672H23.1253C22.8703 11.8672 22.6391 12.0235 22.5453 12.2597L20.0453 18.5097C19.9166 18.8297 20.0715 19.1935 20.3928 19.3222C20.469 19.3535 20.5478 19.3672 20.6253 19.3672C20.8728 19.3672 21.1078 19.2185 21.2053 18.9747L23.5491 13.1172H23.7503V18.7422C23.7503 19.0872 24.0304 19.3672 24.3754 19.3672C24.7204 19.3672 25.0004 19.0872 25.0004 18.7422V12.4922C25.0003 12.1472 24.7203 11.8672 24.3753 11.8672Z" fill="white"/>
<path d="M24.375 15.6172H21.875C21.53 15.6172 21.25 15.8972 21.25 16.2422C21.25 16.5872 21.53 16.8672 21.875 16.8672H24.375C24.72 16.8672 25.0001 16.5872 25.0001 16.2422C25.0001 15.8972 24.72 15.6172 24.375 15.6172Z" fill="white"/>
<path d="M25.625 5.61719H4.37502C1.96248 5.61719 0 7.57973 0 9.99221V21.2422C0 23.6547 1.96248 25.6172 4.37502 25.6172H25.625C28.0375 25.6172 30 23.6547 30 21.2422V9.99221C30 7.57973 28.0375 5.61719 25.625 5.61719ZM28.75 21.2422C28.75 22.9647 27.3488 24.3672 25.625 24.3672H4.37502C2.65125 24.3672 1.25004 22.9647 1.25004 21.2422V9.99221C1.25004 8.26973 2.65131 6.86723 4.37502 6.86723H25.625C27.3488 6.86723 28.75 8.26973 28.75 9.99221V21.2422Z" fill="white"/>
</svg>
