<svg width="30" height="31" viewBox="0 0 30 31" fill="none" xmlns="http://www.w3.org/2000/svg">
<g clip-path="url(#clip0_3_94101)">
<path d="M27.3126 6.01658H2.68741C2.31134 6.01658 1.92795 6.00392 1.55639 6.07073C1.18149 6.13813 0.833669 6.30885 0.56344 6.57919C0.293152 6.8496 0.122142 7.19719 0.055156 7.57232C-0.0118885 7.94358 0.00100466 8.32762 0.00100466 8.70323V22.5346C0.00100466 22.9102 -0.0119471 23.2941 0.055156 23.6653C0.122787 24.0397 0.293211 24.3886 0.56344 24.6584C0.833552 24.9281 1.18214 25.0998 1.55639 25.1671C1.92783 25.2334 2.31169 25.221 2.68747 25.221H27.3127C27.6887 25.221 28.0721 25.2333 28.4437 25.1671C28.8182 25.1004 29.1668 24.9281 29.4365 24.6584C29.7066 24.3884 29.8782 24.04 29.9448 23.6653C30.0119 23.2943 29.9991 22.91 29.9991 22.5346C29.9991 22.5346 29.9991 8.7034 29.9991 8.70323C29.9991 8.32745 30.0119 7.94364 29.9448 7.57232C29.8773 7.19894 29.7054 6.84848 29.4365 6.57919C29.1669 6.30908 28.8181 6.13784 28.4438 6.07073C28.0719 6.00404 27.6888 6.01658 27.3126 6.01658Z" fill="black"/>
<path d="M2.68848 7.15234V7.15332H27.8145C27.8899 7.15469 27.9623 7.15745 28.0332 7.16309L28.2432 7.18945C28.3626 7.21085 28.4671 7.25426 28.5527 7.31543L28.6318 7.38184C28.7046 7.45461 28.7606 7.54715 28.7959 7.65625L28.8242 7.77051V7.77148C28.8741 8.04765 28.8604 8.32889 28.8604 8.7002V23.0312C28.8589 23.107 28.8563 23.1799 28.8506 23.251L28.8242 23.4609C28.8025 23.5808 28.7591 23.6854 28.6982 23.7705L28.6318 23.8486C28.5591 23.9213 28.4661 23.9772 28.3574 24.0127L28.2441 24.041C27.9672 24.0902 27.6832 24.0771 27.3135 24.0771H2.68457L2.18652 24.0781C2.11114 24.0767 2.03864 24.0741 1.96777 24.0684L1.75879 24.041C1.6397 24.0197 1.53559 23.9771 1.4502 23.916L1.37109 23.8486C1.2992 23.7766 1.2426 23.6832 1.20703 23.5742L1.17871 23.46C1.12939 23.1838 1.14219 22.8998 1.14258 22.5312V8.7002L1.1377 8.34473C1.13599 8.23701 1.13532 8.13532 1.1416 8.02637C1.15026 7.87656 1.17165 7.75323 1.20801 7.64844L1.24902 7.54883C1.29544 7.45774 1.36721 7.37593 1.45117 7.31445L1.53906 7.25977C1.66023 7.19829 1.81356 7.1661 2.01562 7.1543C2.23436 7.14154 2.42348 7.15285 2.68848 7.15234Z" stroke="white"/>
<path d="M8.18906 12.4747C8.44592 12.1534 8.62022 11.7221 8.57421 11.2812C8.1982 11.2999 7.73938 11.5293 7.47372 11.8508C7.2352 12.1262 7.0241 12.5756 7.07913 12.9979C7.50127 13.0345 7.92293 12.7869 8.18906 12.4747Z" fill="white"/>
<path d="M8.57002 13.0806C7.95706 13.0441 7.43589 13.4285 7.14321 13.4285C6.85036 13.4285 6.40209 13.099 5.91725 13.1078C5.28624 13.1171 4.70072 13.4739 4.3805 14.0413C3.72189 15.1765 4.20667 16.8604 4.84717 17.7849C5.15819 18.2424 5.53303 18.7459 6.02696 18.7279C6.49363 18.7096 6.67654 18.4257 7.24378 18.4257C7.81061 18.4257 7.97535 18.7279 8.46939 18.7188C8.98166 18.7096 9.30194 18.2611 9.61296 17.8033C9.96975 17.2819 10.1158 16.7784 10.125 16.7508C10.1158 16.7416 9.1372 16.3662 9.12817 15.2405C9.11891 14.2979 9.89649 13.8495 9.93312 13.8217C9.49399 13.1722 8.8079 13.0989 8.57002 13.0806Z" fill="white"/>
<path d="M13.9062 11.8047C15.2385 11.8047 16.1661 12.723 16.1661 14.0601C16.1661 15.4018 15.2194 16.3249 13.8728 16.3249H12.3978V18.6707H11.332V11.8047H13.9062ZM12.3978 15.4304H13.6206C14.5485 15.4304 15.0766 14.9308 15.0766 14.0648C15.0766 13.1988 14.5485 12.704 13.6254 12.704H12.3978V15.4304Z" fill="white"/>
<path d="M16.4453 17.2515C16.4453 16.3759 17.1162 15.8383 18.3059 15.7717L19.6761 15.6908V15.3054C19.6761 14.7486 19.3002 14.4156 18.6723 14.4156C18.0774 14.4156 17.7062 14.701 17.6159 15.1483H16.6453C16.7024 14.2442 17.4731 13.5781 18.7103 13.5781C19.9236 13.5781 20.6991 14.2205 20.6991 15.2244V18.674H19.7141V17.8509H19.6905C19.4003 18.4076 18.7674 18.7597 18.1108 18.7597C17.1305 18.7598 16.4453 18.1507 16.4453 17.2515ZM19.676 16.7995V16.4045L18.4436 16.4806C17.8298 16.5235 17.4825 16.7947 17.4825 17.2229C17.4825 17.6606 17.8441 17.9461 18.396 17.9461C19.1145 17.9462 19.676 17.4513 19.676 16.7995Z" fill="white"/>
<path d="M21.6277 20.511V19.6783C21.7037 19.6973 21.8749 19.6973 21.9607 19.6973C22.4364 19.6973 22.6934 19.4975 22.8504 18.9837C22.8504 18.9741 22.9408 18.6792 22.9408 18.6744L21.1328 13.6641H22.2461L23.5119 17.7371H23.5308L24.7966 13.6641H25.8814L24.0066 18.9313C23.5785 20.1446 23.0837 20.5348 22.0464 20.5348C21.9607 20.5348 21.7037 20.5253 21.6277 20.511Z" fill="white"/>
</g>
<defs>
<clipPath id="clip0_3_94101">
<rect width="30" height="30" fill="white" transform="translate(0 0.617188)"/>
</clipPath>
</defs>
</svg>
