<svg width="24" height="25" viewBox="0 0 24 25" fill="none" xmlns="http://www.w3.org/2000/svg">
<g clip-path="url(#clip0_3_94071)">
<path d="M19.7137 9.19085C19.7137 13.4594 11.9994 23.7623 11.9994 23.7623C11.9994 23.7623 4.28516 13.4594 4.28516 9.19085C4.28516 7.14489 5.09791 5.18273 6.54462 3.73602C7.99133 2.28932 9.95349 1.47656 11.9994 1.47656C14.0454 1.47656 16.0076 2.28932 17.4543 3.73602C18.901 5.18273 19.7137 7.14489 19.7137 9.19085V9.19085Z" stroke="black" stroke-linecap="round" stroke-linejoin="round"/>
<path d="M12.0011 11.76C13.4213 11.76 14.5725 10.6088 14.5725 9.18862C14.5725 7.76846 13.4213 6.61719 12.0011 6.61719C10.581 6.61719 9.42969 7.76846 9.42969 9.18862C9.42969 10.6088 10.581 11.76 12.0011 11.76Z" stroke="black" stroke-linecap="round" stroke-linejoin="round"/>
</g>
<defs>
<clipPath id="clip0_3_94071">
<rect width="24" height="24" fill="white" transform="translate(0 0.617188)"/>
</clipPath>
</defs>
</svg>
