<svg width="36" height="36" viewBox="0 0 36 36" fill="none" xmlns="http://www.w3.org/2000/svg">
<path fill-rule="evenodd" clip-rule="evenodd" d="M27.1601 12.4641C28.3538 10.7918 30.61 8.99144 33.6817 7.49267C34.48 7.10317 34.1199 5.89596 33.2387 6.00742C26.7848 6.8238 22.6016 9.65038 20.3173 13.8538C19.4676 15.4172 18.9339 17.0813 18.6496 18.78C18.4622 19.9 18.4127 20.7405 18.4127 21.7113C18.4127 26.0496 21.9295 29.5664 26.2677 29.5664C30.606 29.5664 34.1228 26.0496 34.1228 21.7113C34.1228 17.3731 30.5498 13.8538 26.444 13.8538C26.6606 13.2591 26.7126 13.091 27.1601 12.4641ZM9.87891 12.4641C11.0726 10.7918 13.3289 8.99144 16.4006 7.49267C17.1989 7.10317 16.8388 5.89596 15.9576 6.00742C9.50363 6.8238 5.32047 9.65038 3.03612 13.8538C2.1865 15.4172 1.65271 17.0813 1.36845 18.78C1.18102 19.9 1.13152 20.7405 1.13152 21.7113C1.13152 26.0496 4.64836 29.5664 8.98659 29.5664C13.3248 29.5664 16.8416 26.0496 16.8416 21.7113C16.8416 17.3731 13.2687 13.8538 9.16283 13.8538C9.37944 13.2591 9.43146 13.091 9.87891 12.4641Z" fill="black"/>
</svg>
