<svg width="26" height="26" viewBox="0 0 26 26" fill="none" xmlns="http://www.w3.org/2000/svg">
<g clip-path="url(#clip0_18_677)">
<path d="M6.30525 10.7355C9.01736 10.7355 11.216 8.53689 11.216 5.82478C11.216 3.11266 9.01736 0.914062 6.30525 0.914062C3.59313 0.914062 1.39453 3.11266 1.39453 5.82478C1.39453 8.53689 3.59313 10.7355 6.30525 10.7355Z" stroke="black" stroke-width="1.5" stroke-linecap="round" stroke-linejoin="round"/>
<path d="M19.6998 10.7355C22.4119 10.7355 24.6105 8.53689 24.6105 5.82478C24.6105 3.11266 22.4119 0.914062 19.6998 0.914062C16.9877 0.914062 14.7891 3.11266 14.7891 5.82478C14.7891 8.53689 16.9877 10.7355 19.6998 10.7355Z" stroke="black" stroke-width="1.5" stroke-linecap="round" stroke-linejoin="round"/>
<path d="M6.30525 24.13C9.01736 24.13 11.216 21.9314 11.216 19.2193C11.216 16.5072 9.01736 14.3086 6.30525 14.3086C3.59313 14.3086 1.39453 16.5072 1.39453 19.2193C1.39453 21.9314 3.59313 24.13 6.30525 24.13Z" stroke="black" stroke-width="1.5" stroke-linecap="round" stroke-linejoin="round"/>
<path d="M19.6998 24.13C22.4119 24.13 24.6105 21.9314 24.6105 19.2193C24.6105 16.5072 22.4119 14.3086 19.6998 14.3086C16.9877 14.3086 14.7891 16.5072 14.7891 19.2193C14.7891 21.9314 16.9877 24.13 19.6998 24.13Z" stroke="black" stroke-width="1.5" stroke-linecap="round" stroke-linejoin="round"/>
</g>
<defs>
<clipPath id="clip0_18_677">
<rect width="25" height="25" fill="white" transform="translate(0.5 0.0195312)"/>
</clipPath>
</defs>
</svg>
