<?xml version="1.0" encoding="UTF-8" standalone="no"?>
<svg
   width="60"
   height="61"
   viewBox="0 0 60 61"
   fill="none"
   version="1.1"
   id="svg1"
   sodipodi:docname="icon-feature-4.svg"
   inkscape:version="1.4.2 (ebf0e940d0, 2025-05-08)"
   xmlns:inkscape="http://www.inkscape.org/namespaces/inkscape"
   xmlns:sodipodi="http://sodipodi.sourceforge.net/DTD/sodipodi-0.dtd"
   xmlns="http://www.w3.org/2000/svg"
   xmlns:svg="http://www.w3.org/2000/svg">
  <defs
     id="defs1" />
  <sodipodi:namedview
     id="namedview1"
     pagecolor="#505050"
     bordercolor="#eeeeee"
     borderopacity="1"
     inkscape:showpageshadow="0"
     inkscape:pageopacity="0"
     inkscape:pagecheckerboard="0"
     inkscape:deskcolor="#505050"
     inkscape:zoom="10.688525"
     inkscape:cx="30.032207"
     inkscape:cy="30.499999"
     inkscape:window-width="1600"
     inkscape:window-height="863"
     inkscape:window-x="0"
     inkscape:window-y="0"
     inkscape:window-maximized="1"
     inkscape:current-layer="svg1" />
  <path
     d="M22.413 10.1602L24.2559 5.40301C24.5667 4.59757 25.1135 3.90477 25.8247 3.41535C26.5359 2.92593 27.3783 2.66271 28.2416 2.66016H31.7559C32.6192 2.66271 33.4616 2.92593 34.1728 3.41535C34.884 3.90477 35.4308 4.59757 35.7416 5.40301L37.5845 10.1602L43.8416 13.7602L48.8988 12.9887C49.7408 12.8744 50.5979 13.013 51.361 13.387C52.1241 13.7609 52.7588 14.3532 53.1845 15.0887L54.8988 18.0887C55.338 18.8359 55.5404 19.6988 55.4792 20.5634C55.418 21.428 55.0961 22.2537 54.5559 22.9316L51.4273 26.9173V34.1173L54.6416 38.103C55.1818 38.7809 55.5037 39.6066 55.5649 40.4712C55.6261 41.3358 55.4237 42.1987 54.9845 42.9459L53.2702 45.9459C52.8445 46.6814 52.2098 47.2737 51.4467 47.6476C50.6836 48.0215 49.8265 48.1602 48.9845 48.0459L43.9273 47.2744L37.6702 50.8744L35.8273 55.6316C35.5165 56.437 34.9697 57.1298 34.2585 57.6192C33.5474 58.1087 32.7049 58.3719 31.8416 58.3744H28.2416C27.3783 58.3719 26.5359 58.1087 25.8247 57.6192C25.1135 57.1298 24.5667 56.437 24.2559 55.6316L22.413 50.8744L16.1559 47.2744L11.0988 48.0459C10.2567 48.1602 9.39964 48.0215 8.63653 47.6476C7.87342 47.2737 7.23871 46.6814 6.81304 45.9459L5.09875 42.9459C4.65947 42.1987 4.45708 41.3358 4.51829 40.4712C4.5795 39.6066 4.90144 38.7809 5.44161 38.103L8.57018 34.1173V26.9173L5.35589 22.9316C4.81572 22.2537 4.49379 21.428 4.43258 20.5634C4.37137 19.6988 4.57376 18.8359 5.01304 18.0887L6.72732 15.0887C7.15299 14.3532 7.78771 13.7609 8.55082 13.387C9.31392 13.013 10.171 12.8744 11.013 12.9887L16.0702 13.7602L22.413 10.1602ZM21.4273 30.5173C21.4273 32.2126 21.93 33.8698 22.8719 35.2793C23.8137 36.6889 25.1524 37.7875 26.7186 38.4363C28.2848 39.085 30.0083 39.2548 31.671 38.924C33.3336 38.5933 34.8609 37.7769 36.0597 36.5782C37.2584 35.3795 38.0748 33.8522 38.4055 32.1895C38.7362 30.5268 38.5665 28.8034 37.9177 27.2372C37.269 25.6709 36.1703 24.3323 34.7608 23.3904C33.3512 22.4486 31.694 21.9459 29.9988 21.9459C27.7255 21.9459 25.5453 22.8489 23.9378 24.4564C22.3304 26.0638 21.4273 28.244 21.4273 30.5173V30.5173Z"
     stroke="#F8C822"
     stroke-width="2"
     stroke-linecap="round"
     stroke-linejoin="round"
     id="path1"
     style="stroke:#99c51d;stroke-opacity:1" />
</svg>
