<?xml version="1.0" encoding="UTF-8" standalone="no"?>
<svg
   width="30"
   height="31"
   viewBox="0 0 30 31"
   fill="none"
   version="1.1"
   id="svg4"
   sodipodi:docname="icon-why-choose-2.svg"
   inkscape:version="1.4.2 (ebf0e940d0, 2025-05-08)"
   xmlns:inkscape="http://www.inkscape.org/namespaces/inkscape"
   xmlns:sodipodi="http://sodipodi.sourceforge.net/DTD/sodipodi-0.dtd"
   xmlns="http://www.w3.org/2000/svg"
   xmlns:svg="http://www.w3.org/2000/svg">
  <sodipodi:namedview
     id="namedview4"
     pagecolor="#505050"
     bordercolor="#eeeeee"
     borderopacity="1"
     inkscape:showpageshadow="0"
     inkscape:pageopacity="0"
     inkscape:pagecheckerboard="0"
     inkscape:deskcolor="#505050"
     inkscape:zoom="21.032258"
     inkscape:cx="15.02454"
     inkscape:cy="15.452454"
     inkscape:window-width="1600"
     inkscape:window-height="863"
     inkscape:window-x="0"
     inkscape:window-y="0"
     inkscape:window-maximized="1"
     inkscape:current-layer="svg4" />
  <g
     clip-path="url(#clip0_3_93707)"
     id="g4"
     style="stroke:#99c51d;stroke-opacity:1">
    <path
       d="M6.96317 13.2779C10.2177 13.2779 12.856 10.6396 12.856 7.38504C12.856 4.13051 10.2177 1.49219 6.96317 1.49219C3.70863 1.49219 1.07031 4.13051 1.07031 7.38504C1.07031 10.6396 3.70863 13.2779 6.96317 13.2779Z"
       stroke="#F8C822"
       stroke-width="1.5"
       stroke-linecap="round"
       stroke-linejoin="round"
       id="path1"
       style="stroke:#99c51d;stroke-opacity:1" />
    <path
       d="M23.0335 13.2779C26.288 13.2779 28.9263 10.6396 28.9263 7.38504C28.9263 4.13051 26.288 1.49219 23.0335 1.49219C19.7789 1.49219 17.1406 4.13051 17.1406 7.38504C17.1406 10.6396 19.7789 13.2779 23.0335 13.2779Z"
       stroke="#F8C822"
       stroke-width="1.5"
       stroke-linecap="round"
       stroke-linejoin="round"
       id="path2"
       style="stroke:#99c51d;stroke-opacity:1" />
    <path
       d="M6.96317 29.3482C10.2177 29.3482 12.856 26.7099 12.856 23.4554C12.856 20.2008 10.2177 17.5625 6.96317 17.5625C3.70863 17.5625 1.07031 20.2008 1.07031 23.4554C1.07031 26.7099 3.70863 29.3482 6.96317 29.3482Z"
       stroke="#F8C822"
       stroke-width="1.5"
       stroke-linecap="round"
       stroke-linejoin="round"
       id="path3"
       style="stroke:#99c51d;stroke-opacity:1" />
    <path
       d="M23.0335 29.3482C26.288 29.3482 28.9263 26.7099 28.9263 23.4554C28.9263 20.2008 26.288 17.5625 23.0335 17.5625C19.7789 17.5625 17.1406 20.2008 17.1406 23.4554C17.1406 26.7099 19.7789 29.3482 23.0335 29.3482Z"
       stroke="#F8C822"
       stroke-width="1.5"
       stroke-linecap="round"
       stroke-linejoin="round"
       id="path4"
       style="stroke:#99c51d;stroke-opacity:1" />
  </g>
  <defs
     id="defs4">
    <clipPath
       id="clip0_3_93707">
      <rect
         width="30"
         height="30"
         fill="white"
         transform="translate(0 0.421875)"
         id="rect4" />
    </clipPath>
  </defs>
</svg>
