<?xml version="1.0" encoding="UTF-8" standalone="no"?>
<svg
   width="30"
   height="31"
   viewBox="0 0 30 31"
   fill="none"
   version="1.1"
   id="svg3"
   sodipodi:docname="icon-why-choose-3.svg"
   inkscape:version="1.4.2 (ebf0e940d0, 2025-05-08)"
   xmlns:inkscape="http://www.inkscape.org/namespaces/inkscape"
   xmlns:sodipodi="http://sodipodi.sourceforge.net/DTD/sodipodi-0.dtd"
   xmlns="http://www.w3.org/2000/svg"
   xmlns:svg="http://www.w3.org/2000/svg">
  <defs
     id="defs3" />
  <sodipodi:namedview
     id="namedview3"
     pagecolor="#505050"
     bordercolor="#eeeeee"
     borderopacity="1"
     inkscape:showpageshadow="0"
     inkscape:pageopacity="0"
     inkscape:pagecheckerboard="0"
     inkscape:deskcolor="#505050"
     inkscape:zoom="21.032258"
     inkscape:cx="15.02454"
     inkscape:cy="15.452454"
     inkscape:window-width="1600"
     inkscape:window-height="863"
     inkscape:window-x="0"
     inkscape:window-y="0"
     inkscape:window-maximized="1"
     inkscape:current-layer="svg3" />
  <path
     d="M9.64174 28.2796C14.3756 28.2796 18.2132 24.442 18.2132 19.7081C18.2132 14.9743 14.3756 11.1367 9.64174 11.1367C4.90787 11.1367 1.07031 14.9743 1.07031 19.7081C1.07031 24.442 4.90787 28.2796 9.64174 28.2796Z"
     stroke="#F8C822"
     stroke-width="1.5"
     stroke-linecap="round"
     stroke-linejoin="round"
     id="path1"
     style="stroke:#99c51d;stroke-opacity:1" />
  <path
     d="M20.3566 28.2796C25.0905 28.2796 28.928 24.442 28.928 19.7081C28.928 14.9743 25.0905 11.1367 20.3566 11.1367C15.6227 11.1367 11.7852 14.9743 11.7852 19.7081C11.7852 24.442 15.6227 28.2796 20.3566 28.2796Z"
     stroke="#F8C822"
     stroke-width="1.5"
     stroke-linecap="round"
     stroke-linejoin="round"
     id="path2"
     style="stroke:#99c51d;stroke-opacity:1" />
  <path
     d="M14.9972 19.7093C19.7311 19.7093 23.5686 15.8717 23.5686 11.1378C23.5686 6.40397 19.7311 2.56641 14.9972 2.56641C10.2633 2.56641 6.42578 6.40397 6.42578 11.1378C6.42578 15.8717 10.2633 19.7093 14.9972 19.7093Z"
     stroke="#F8C822"
     stroke-width="1.5"
     stroke-linecap="round"
     stroke-linejoin="round"
     id="path3"
     style="stroke:#99c51d;stroke-opacity:1" />
</svg>
