<?xml version="1.0" encoding="UTF-8" standalone="no"?>
<svg
   width="30"
   height="31"
   viewBox="0 0 30 31"
   fill="none"
   version="1.1"
   id="svg3"
   sodipodi:docname="icon-work-item-1.svg"
   inkscape:version="1.4.2 (ebf0e940d0, 2025-05-08)"
   xmlns:inkscape="http://www.inkscape.org/namespaces/inkscape"
   xmlns:sodipodi="http://sodipodi.sourceforge.net/DTD/sodipodi-0.dtd"
   xmlns="http://www.w3.org/2000/svg"
   xmlns:svg="http://www.w3.org/2000/svg">
  <sodipodi:namedview
     id="namedview3"
     pagecolor="#505050"
     bordercolor="#eeeeee"
     borderopacity="1"
     inkscape:showpageshadow="0"
     inkscape:pageopacity="0"
     inkscape:pagecheckerboard="0"
     inkscape:deskcolor="#505050"
     inkscape:zoom="21.032258"
     inkscape:cx="15.02454"
     inkscape:cy="15.452454"
     inkscape:window-width="1600"
     inkscape:window-height="863"
     inkscape:window-x="0"
     inkscape:window-y="0"
     inkscape:window-maximized="1"
     inkscape:current-layer="svg3" />
  <g
     clip-path="url(#clip0_1438_9214)"
     id="g3"
     style="stroke:#99c51d;stroke-opacity:1">
    <path
       d="M16.0053 15.3069C15.6875 15.4449 15.3447 15.5161 14.9982 15.5161C14.6517 15.5161 14.3089 15.4449 13.9911 15.3069L1.77678 9.64975C1.57844 9.54971 1.41176 9.39658 1.2953 9.20741C1.17885 9.01824 1.11719 8.80046 1.11719 8.57832C1.11719 8.35617 1.17885 8.13839 1.2953 7.94923C1.41176 7.76006 1.57844 7.60693 1.77678 7.50689L13.9911 1.80689C14.3089 1.66887 14.6517 1.59766 14.9982 1.59766C15.3447 1.59766 15.6875 1.66887 16.0053 1.80689L28.2196 7.46403C28.418 7.56407 28.5847 7.7172 28.7011 7.90637C28.8176 8.09554 28.8792 8.31332 28.8792 8.53546C28.8792 8.7576 28.8176 8.97538 28.7011 9.16455C28.5847 9.35372 28.418 9.50685 28.2196 9.60689L16.0053 15.3069Z"
       stroke="#F8C822"
       stroke-width="1.5"
       stroke-linecap="round"
       stroke-linejoin="round"
       id="path1"
       style="stroke:#99c51d;stroke-opacity:1" />
    <path
       d="M28.9275 16.2695L15.856 22.291C15.5769 22.4183 15.2736 22.4842 14.9667 22.4842C14.6599 22.4842 14.3566 22.4183 14.0775 22.291L1.07031 16.2695"
       stroke="#F8C822"
       stroke-width="1.5"
       stroke-linecap="round"
       stroke-linejoin="round"
       id="path2"
       style="stroke:#99c51d;stroke-opacity:1" />
    <path
       d="M28.9275 23.2344L15.856 29.2558C15.5769 29.3831 15.2736 29.449 14.9667 29.449C14.6599 29.449 14.3566 29.3831 14.0775 29.2558L1.07031 23.2344"
       stroke="#F8C822"
       stroke-width="1.5"
       stroke-linecap="round"
       stroke-linejoin="round"
       id="path3"
       style="stroke:#99c51d;stroke-opacity:1" />
  </g>
  <defs
     id="defs3">
    <clipPath
       id="clip0_1438_9214">
      <rect
         width="30"
         height="30"
         fill="white"
         transform="translate(0 0.519531)"
         id="rect3" />
    </clipPath>
  </defs>
</svg>
