<?xml version="1.0" encoding="UTF-8" standalone="no"?>
<svg
   width="115"
   height="115"
   viewBox="0 0 115 115"
   fill="none"
   version="1.1"
   id="svg40"
   sodipodi:docname="premium-headphone-circle.svg"
   xml:space="preserve"
   inkscape:version="1.4.2 (ebf0e940d0, 2025-05-08)"
   xmlns:inkscape="http://www.inkscape.org/namespaces/inkscape"
   xmlns:sodipodi="http://sodipodi.sourceforge.net/DTD/sodipodi-0.dtd"
   xmlns="http://www.w3.org/2000/svg"
   xmlns:svg="http://www.w3.org/2000/svg"><defs
     id="defs40" /><sodipodi:namedview
     id="namedview40"
     pagecolor="#505050"
     bordercolor="#eeeeee"
     borderopacity="1"
     inkscape:showpageshadow="0"
     inkscape:pageopacity="0"
     inkscape:pagecheckerboard="0"
     inkscape:deskcolor="#505050"
     inkscape:zoom="2.004494"
     inkscape:cx="49.638462"
     inkscape:cy="63.357635"
     inkscape:window-width="1600"
     inkscape:window-height="863"
     inkscape:window-x="0"
     inkscape:window-y="0"
     inkscape:window-maximized="1"
     inkscape:current-layer="svg40" /><ellipse
     cx="57.9035"
     cy="57.5005"
     rx="30.6667"
     ry="30.2632"
     fill="white"
     id="ellipse36" /><path
     style="fill:#000000;stroke-width:0.0315431"
     d="m 57.131556,84.395687 c -2.074245,-0.156051 -3.29801,-0.307042 -4.570664,-0.563957 -3.84105,-0.775405 -7.530957,-2.42306 -10.689963,-4.773406 -1.686157,-1.254531 -3.306213,-2.791203 -4.665766,-4.425619 -2.846017,-3.42139 -4.79645,-7.527347 -5.668395,-11.932775 -0.230145,-1.162828 -0.34475,-2.06575 -0.478424,-3.769411 -0.06731,-0.857047 -0.07969,-1.175891 -0.06567,-1.687558 0.0194,-0.705332 0.146388,-2.321298 0.243021,-3.091223 0.309789,-2.468235 0.98287,-4.942066 1.978196,-7.270701 2.136432,-4.998282 5.811768,-9.283975 10.432921,-12.165502 3.612074,-2.252298 7.582628,-3.587092 11.844449,-3.981782 0.373003,-0.03459 0.862715,-0.08016 1.088244,-0.101425 1.341582,-0.126266 3.821139,0.03108 5.835476,0.370339 3.853097,0.648918 7.58181,2.177761 10.866615,4.455545 2.767857,1.919304 5.121042,4.332432 7.017257,7.196023 2.306446,3.483097 3.747957,7.360838 4.25647,11.450167 0.177177,1.424767 0.283976,2.928185 0.261062,3.674776 -0.0194,0.63264 -0.118379,1.922762 -0.211005,2.750925 -0.5017,4.485434 -2.197426,8.892942 -4.85173,12.610577 -2.093747,2.932508 -4.960597,5.573747 -8.017665,7.386708 -2.418913,1.434512 -4.782603,2.409109 -7.444186,3.069384 -1.522324,0.377654 -2.923686,0.585503 -5.106892,0.757469 -0.712763,0.05609 -1.61558,0.07432 -2.053399,0.04148 z m 2.838888,-2.262943 c 2.793213,-0.249249 5.442294,-0.92697 7.901554,-2.021476 2.200324,-0.97926 4.488729,-2.425655 6.182002,-3.907351 1.390226,-1.216508 2.546335,-2.454972 3.595704,-3.851788 2.605063,-3.46765 4.238159,-7.494851 4.777543,-11.781363 0.214007,-1.700774 0.249097,-3.692127 0.09418,-5.346559 -0.431976,-4.614014 -2.122783,-8.94869 -4.951261,-12.693399 -2.980708,-3.946237 -7.11881,-6.901379 -11.890441,-8.491287 -1.33803,-0.445835 -2.754232,-0.787196 -4.100605,-0.988409 -1.938409,-0.28969 -4.14641,-0.353816 -5.993198,-0.174057 -2.180309,0.212232 -4.536205,0.766537 -6.559761,1.543403 -1.599023,0.613886 -3.661957,1.695318 -5.048117,2.646335 -5.900654,4.048316 -9.715998,10.309646 -10.612529,17.41614 -0.132587,1.051004 -0.178275,1.819071 -0.178263,2.996599 2.3e-5,1.431287 0.07431,2.408606 0.287669,3.785185 0.563302,3.63424 1.897874,7.042274 3.934155,10.046492 2.228858,3.288334 5.046422,5.875263 8.458347,7.766009 3.414799,1.892336 6.88301,2.882929 10.901366,3.113646 0.483951,0.02781 2.687068,-0.01227 3.201633,-0.05807 z M 46.331275,65.122371 c -0.194564,-0.267769 -0.931059,-1.570593 -0.901695,-1.59505 0.02033,-0.01694 0.539196,-0.318949 1.907829,-1.110526 0.624555,-0.361237 1.298793,-0.751709 1.4983,-0.867739 0.199507,-0.116031 1.58042,-0.912341 3.068671,-1.769598 l 2.705927,-1.558652 -0.02033,-0.346981 c -0.03319,-0.567392 0.06707,-1.183043 0.270468,-1.661128 0.289761,-0.680922 0.884087,-1.295965 1.609855,-1.665989 l 0.368493,-0.187868 0.01951,-0.261273 c 0.01052,-0.143689 0.02909,-4.13989 0.04078,-8.880427 l 0.02138,-8.619166 h 0.988736 0.988747 l 0.0047,5.732965 c 0.0023,3.153129 0.01309,7.145311 0.0236,8.871511 l 0.01916,3.138547 0.388159,0.205022 c 0.213493,0.112759 0.487701,0.2831 0.609341,0.378519 0.522919,0.410172 0.952325,1.049543 1.169955,1.742033 0.06497,0.206553 0.0721,0.29073 0.07151,0.84451 -6.89e-4,0.708299 -0.03786,0.892885 -0.284724,1.414753 -0.503651,1.064582 -1.487234,1.770778 -2.643483,1.897979 -0.79638,0.08764 -1.52119,-0.103761 -2.277386,-0.60143 -0.157009,-0.103294 -0.304834,-0.187857 -0.328519,-0.187857 -0.05644,0 -0.268284,0.116848 -1.846403,1.018228 -1.253958,0.716257 -1.858064,1.063215 -3.517053,2.019946 -0.664493,0.383204 -3.26736,1.873815 -3.665486,2.099157 l -0.179969,0.101891 z"
     id="path40" /><path
     style="font-size:7.32588px;font-family:ubuntu;-inkscape-font-specification:ubuntu;fill:#000000"
     d="m 223.97574,59.300916 -0.12359,1.805267 -0.63586,-0.04353 0.12359,-1.805267 z m -0.17269,2.319386 -0.22033,1.796028 -0.63261,-0.07761 0.22034,-1.796028 z m 1.51636,6.52205 q -0.25947,1.037629 -0.79609,1.492457 -0.53128,0.463712 -1.31306,0.268223 -0.42642,-0.106631 -0.69292,-0.339405 -0.26118,-0.223889 -0.38021,-0.563262 -0.11369,-0.330489 -0.0959,-0.764024 0.0178,-0.433535 0.14753,-0.95235 l 0.13684,-0.547242 -1.82651,-0.456735 0.17238,-0.689384 4.85412,1.213813 q -0.002,0.309161 -0.0693,0.669845 -0.0622,0.369568 -0.13685,0.668064 z m -0.61832,-0.0942 q 0.11019,-0.440637 0.14751,-0.680501 l -1.93312,-0.483393 -0.12973,0.518815 q -0.0889,0.355352 -0.1173,0.650298 -0.0213,0.296722 0.0373,0.51527 0.064,0.227432 0.22918,0.382022 0.16524,0.154589 0.46373,0.229231 0.28428,0.07109 0.4975,0.0036 0.21144,-0.0604 0.36603,-0.225632 0.15992,-0.156349 0.26477,-0.394432 0.10484,-0.238084 0.17415,-0.515259 z m -1.97202,4.403323 q -0.0288,0.08304 -0.0787,0.18204 -0.0454,0.108321 -0.1022,0.204914 -0.0499,0.099 -0.0995,0.174828 -0.0451,0.08516 -0.0734,0.12187 l -0.52209,-0.305431 q 0.0541,-0.06651 0.15123,-0.234417 0.10161,-0.158584 0.19776,-0.435395 0.0625,-0.179927 0.0835,-0.374278 0.0255,-0.185026 0.0309,-0.245195 l -3.02416,-1.050458 0.22355,-0.643587 3.4463,1.19709 q 0.004,0.257215 -0.0449,0.620346 -0.0417,0.365536 -0.1883,0.787673 z m -3.79883,3.909364 q -0.41436,-0.186028 -0.69451,-0.45635 -0.28016,-0.270321 -0.42174,-0.598885 -0.14458,-0.32188 -0.14323,-0.682635 0.008,-0.357755 0.16707,-0.711967 0.15902,-0.354212 0.42102,-0.597949 0.26869,-0.240737 0.6083,-0.353267 0.33661,-0.105848 0.72478,-0.07612 0.38817,0.02972 0.80254,0.215753 0.40767,0.183028 0.68783,0.45335 0.28683,0.273321 0.43142,0.595202 0.14158,0.328563 0.13354,0.686318 -0.001,0.360755 -0.16038,0.714967 -0.15903,0.354212 -0.42771,0.594949 -0.262,0.243737 -0.59862,0.349585 -0.33961,0.11253 -0.73446,0.07981 -0.38817,-0.02972 -0.79585,-0.212753 z m 0.29105,-0.648274 q 0.58812,0.26404 1.04898,0.149734 0.46455,-0.104623 0.66858,-0.559083 0.20403,-0.454461 -0.0235,-0.877815 -0.22382,-0.41367 -0.81195,-0.67771 -0.58813,-0.264041 -1.05267,-0.159418 -0.46087,0.114306 -0.6649,0.568767 -0.20403,0.45446 0.0198,0.86813 0.22751,0.423354 0.81564,0.687395 z m -3.35206,2.97421 q -0.006,-0.105458 0.0402,-0.374978 0.0493,-0.259504 0.21872,-0.550789 0.17314,-0.297618 0.42284,-0.508317 0.24603,-0.204367 0.55653,-0.286469 0.31683,-0.07842 0.68075,-0.01926 0.36393,0.05916 0.77553,0.298607 0.36094,0.209979 0.59593,0.490768 0.24133,0.284472 0.33874,0.612356 0.10007,0.337899 0.0472,0.70551 -0.0465,0.371294 -0.26384,0.744899 -0.23945,0.411599 -0.47959,0.678711 -0.2375,0.277128 -0.40973,0.456623 l -2.93818,-1.709296 q -0.75988,-0.442059 -0.87342,-1.033588 -0.11355,-0.591529 0.35061,-1.389398 0.18051,-0.310282 0.39326,-0.559433 0.20906,-0.242817 0.3966,-0.404929 l 0.45029,0.406039 q -0.1728,0.136782 -0.37082,0.360603 -0.20802,0.22647 -0.37011,0.505091 -0.30576,0.52558 -0.22941,0.875109 0.0727,0.355861 0.52859,0.621097 z m 2.44795,1.415625 q 0.0769,-0.07392 0.18431,-0.21484 0.11006,-0.130907 0.25741,-0.384199 0.27629,-0.474922 0.11704,-0.915054 -0.16293,-0.433799 -0.67584,-0.732189 -0.28496,-0.165772 -0.52811,-0.214 -0.24684,-0.0419 -0.44981,0.0011 -0.20666,0.04928 -0.36208,0.170754 -0.1591,0.127801 -0.25856,0.298773 -0.1363,0.234295 -0.18718,0.467435 -0.0445,0.236823 -0.0222,0.402378 z m -1.40433,3.336473 q -0.0506,0.07188 -0.12585,0.153294 -0.0735,0.09162 -0.15471,0.168819 -0.0753,0.08142 -0.14383,0.140642 -0.0668,0.06943 -0.10409,0.09694 l -0.41771,-0.437469 q 0.0704,-0.04902 0.20996,-0.183671 0.14138,-0.124444 0.31009,-0.364043 0.10966,-0.15574 0.18338,-0.336786 0.0755,-0.170838 0.0973,-0.227193 l -2.61763,-1.84311 0.39224,-0.557069 2.98302,2.100386 q -0.0673,0.248281 -0.21407,0.583967 -0.14077,0.339904 -0.39805,0.705294 z m -4.47074,0.212035 q -0.15482,0.185674 -0.26649,0.331028 -0.11073,0.155671 -0.16798,0.270088 l 0.87211,0.7272 q 0.0751,-0.03281 0.19983,-0.148141 0.12572,-0.105016 0.27586,-0.285064 0.0985,-0.118156 0.19424,-0.267266 0.091,-0.143484 0.12859,-0.30293 0.0385,-0.149127 0.004,-0.302029 -0.029,-0.14821 -0.18095,-0.274884 -0.28132,-0.23458 -0.54399,-0.148365 -0.25703,0.09091 -0.51507,0.400363 z m 2.65947,2.14128 q -0.26273,0.315083 -0.5254,0.458515 -0.26175,0.15375 -0.52157,0.156485 -0.25889,0.01305 -0.51398,-0.104271 -0.24947,-0.112633 -0.49704,-0.319064 l -1.8286,-1.524774 q 0.045,-0.0769 0.12575,-0.21945 0.0816,-0.132231 0.19144,-0.298221 0.10979,-0.16599 0.24867,-0.35542 0.12856,-0.188496 0.274,-0.362917 0.20643,-0.247565 0.43066,-0.413521 0.22423,-0.165955 0.45781,-0.228729 0.2392,-0.05808 0.48962,0.0077 0.25042,0.06573 0.50361,0.276856 0.24194,0.20174 0.33661,0.44283 0.09,0.246717 0.0561,0.504652 -0.0338,0.257935 -0.17087,0.525219 -0.13702,0.267283 -0.34346,0.514848 -0.0657,0.07877 -0.1473,0.153785 -0.076,0.07971 -0.15388,0.138775 -0.0769,0.06939 -0.1351,0.116269 -0.0582,0.04688 -0.0826,0.0647 l 0.14629,0.121982 q 0.12941,0.107907 0.27665,0.18299 0.15286,0.07977 0.3095,0.08639 0.16227,0.0113 0.32644,-0.07119 0.16511,-0.07218 0.33401,-0.274728 0.21581,-0.258818 0.34063,-0.488586 0.12576,-0.21945 0.16613,-0.347942 l 0.48485,0.299363 q -0.0394,0.13881 -0.1971,0.407963 -0.15204,0.273845 -0.38193,0.549543 z m -2.13543,2.202201 q -0.13127,0.202879 -0.36459,0.511146 -0.23867,0.31327 -0.608,0.658395 -0.26763,0.250091 -0.51965,0.345216 -0.24701,0.100478 -0.50017,0.07635 -0.0125,0.06178 -0.0477,0.184976 -0.0353,0.123201 -0.11301,0.276062 -0.0727,0.158213 -0.18725,0.325378 -0.10951,0.172517 -0.27544,0.327573 -0.32116,0.300109 -0.61459,0.393831 -0.28843,0.09907 -0.56089,0.03283 -0.27782,-0.06124 -0.53537,-0.261745 -0.2629,-0.1955 -0.52299,-0.473836 l -1.46053,-1.56296 0.49779,-0.465169 1.36049,1.455909 q 0.23009,0.246219 0.42191,0.397846 0.18647,0.156629 0.36609,0.209363 0.17428,0.05774 0.34205,0.0012 0.16743,-0.04616 0.34941,-0.216221 0.25158,-0.235085 0.35248,-0.459725 0.10056,-0.214286 0.10942,-0.322832 -0.17287,-0.09915 -0.34933,-0.245076 -0.17647,-0.145924 -0.34653,-0.327913 l -1.46053,-1.56296 0.49779,-0.465169 1.36049,1.455909 q 0.23009,0.24622 0.42191,0.397846 0.19182,0.151627 0.37145,0.204361 0.17427,0.05774 0.34204,0.0012 0.16743,-0.04616 0.34406,-0.21122 0.0749,-0.07003 0.15558,-0.155407 0.0806,-0.08538 0.15093,-0.171114 0.0699,-0.07538 0.12416,-0.146105 0.0542,-0.07073 0.0706,-0.09609 l -2.19579,-2.349794 0.49779,-0.465169 z m -7.99092,2.646477 q -0.19572,0.141902 -0.3397,0.255334 -0.14561,0.123664 -0.22924,0.22049 l 0.66651,0.919321 q 0.0808,-0.01335 0.23013,-0.09445 0.14768,-0.07088 0.33748,-0.208479 0.12455,-0.0903 0.254,-0.211296 0.12351,-0.116695 0.19913,-0.262007 0.074,-0.135082 0.078,-0.291811 0.008,-0.150799 -0.1078,-0.310938 -0.215,-0.296556 -0.4908,-0.277576 -0.2715,0.02491 -0.59771,0.261415 z m 2.05128,2.729493 q -0.33214,0.240804 -0.62203,0.31524 -0.29151,0.08467 -0.54403,0.02343 -0.25414,-0.05101 -0.47256,-0.227457 -0.21411,-0.170519 -0.40331,-0.431488 l -1.39752,-1.927608 q 0.0626,-0.06346 0.17585,-0.181789 0.11166,-0.108095 0.2589,-0.24199 0.14724,-0.133895 0.32843,-0.283359 0.17096,-0.151095 0.35483,-0.284397 0.26097,-0.189203 0.51912,-0.294925 0.25815,-0.105722 0.49999,-0.109133 0.24614,0.0025 0.47271,0.127815 0.22657,0.125294 0.42007,0.392194 0.1849,0.255037 0.21738,0.512002 0.0265,0.261266 -0.0697,0.502959 -0.0962,0.241692 -0.29478,0.467075 -0.19854,0.225382 -0.45951,0.414585 -0.083,0.0602 -0.1806,0.112839 -0.0933,0.05857 -0.18327,0.09668 -0.0916,0.04834 -0.15955,0.07948 -0.0679,0.03114 -0.0959,0.04241 l 0.11181,0.154209 q 0.0989,0.136415 0.22315,0.245399 0.12856,0.114916 0.27877,0.159843 0.1545,0.05086 0.33392,0.01127 0.17778,-0.02936 0.3913,-0.184161 0.27283,-0.197803 0.45032,-0.389823 0.17586,-0.181789 0.24659,-0.296407 l 0.39634,0.409394 q -0.0724,0.12485 -0.29136,0.34697 -0.21471,0.228051 -0.50533,0.438754 z m -3.77267,4.381333 -0.17605,-0.321211 q -0.17254,-0.314786 -0.32413,-0.68282 -0.14807,-0.36161 -0.27687,-0.733783 l 0.35333,-0.193659 q 0.24444,0.308793 0.4696,0.62815 0.22868,0.325781 0.40474,0.646992 l 0.17253,0.314786 z m -1.13708,0.623231 -0.17606,-0.321211 q -0.17253,-0.314786 -0.32412,-0.68282 -0.14808,-0.36161 -0.27688,-0.733783 l 0.35334,-0.193659 q 0.24443,0.308793 0.46959,0.62815 0.22869,0.325781 0.40474,0.646992 l 0.17253,0.314786 z m -3.70716,-4.352776 2.03552,4.650904 -2.83886,1.242461 -0.24379,-0.557035 2.18787,-0.957546 -0.60508,-1.38252 -1.94626,0.851805 -0.23792,-0.543612 1.94626,-0.851805 -0.70494,-1.610703 -2.35565,1.030978 -0.24379,-0.557035 z m -4.92771,1.88881 q 0.59949,-0.194337 0.93313,-0.03947 0.33364,0.154867 0.51275,0.666536 l 1.51042,4.314612 -0.60432,0.33574 -1.51283,-4.321526 q -0.0557,-0.159032 -0.11964,-0.253067 -0.064,-0.09403 -0.14798,-0.13448 -0.084,-0.04045 -0.19983,-0.03871 -0.1134,0.0086 -0.27278,0.04116 z m -4.05128,1.091791 q 0.44936,-0.105271 0.82515,-0.04282 0.36866,0.06412 0.6642,0.265757 0.2884,0.203308 0.48441,0.526078 0.19767,0.329903 0.29793,0.757869 0.10026,0.427966 0.0625,0.813011 -0.0448,0.386716 -0.21294,0.696964 -0.16642,0.31739 -0.46111,0.53691 -0.30015,0.22832 -0.70671,0.32357 -0.24965,0.0585 -0.50932,0.0742 -0.25968,0.0157 -0.50965,-0.0236 l 0.0178,-0.59858 q 0.1665,0.0362 0.37624,0.0323 0.20261,-0.002 0.42373,-0.0541 0.55636,-0.13034 0.77405,-0.550025 0.21057,-0.418015 0.0535,-1.088495 -0.0702,-0.299577 -0.19286,-0.534185 -0.12981,-0.232937 -0.31424,-0.377836 -0.19157,-0.143229 -0.44321,-0.189616 -0.24997,-0.03925 -0.57808,0.03761 -0.26391,0.06183 -0.46619,0.161884 -0.20229,0.100059 -0.31018,0.185528 l -0.22306,-0.534633 q 0.0487,-0.04903 0.14734,-0.10976 0.10031,-0.0536 0.23082,-0.106743 0.12884,-0.06028 0.28242,-0.111307 0.14477,-0.05649 0.28743,-0.08991 z m -4.67273,2.77779 q -0.0618,-0.449979 0.019,-0.830811 0.0808,-0.380833 0.28439,-0.675013 0.19636,-0.293184 0.50301,-0.483205 0.30766,-0.182764 0.69232,-0.235608 0.38465,-0.05284 0.7302,0.04019 0.34653,0.100287 0.62193,0.328662 0.26814,0.229372 0.44863,0.57431 0.1805,0.344939 0.24231,0.794917 0.0608,0.442721 -0.02,0.823558 -0.0798,0.38809 -0.27615,0.68127 -0.20361,0.29418 -0.51126,0.47694 -0.30666,0.19003 -0.69131,0.24287 -0.38466,0.0528 -0.7312,-0.0474 -0.34554,-0.093 -0.61368,-0.32241 -0.2754,-0.22837 -0.45689,-0.58057 -0.18049,-0.34494 -0.24131,-0.787656 z m 0.704,-0.09671 q 0.0877,0.63868 0.4289,0.96894 0.33489,0.33852 0.82842,0.27072 0.49352,-0.0678 0.73198,-0.48509 0.23221,-0.40902 0.14446,-1.047704 -0.0877,-0.638678 -0.42263,-0.977194 -0.34116,-0.330262 -0.83469,-0.262462 -0.49352,0.0678 -0.72572,0.476828 -0.23846,0.417283 -0.15072,1.055962 z m -1.80535,1.97427 q -0.23244,0.0661 -0.6184,0.14439 -0.38597,0.0783 -0.8912,0.0945 -0.45397,0.0145 -0.75839,-0.10767 -0.30419,-0.11488 -0.48742,-0.34357 -0.19031,-0.22113 -0.27383,-0.54096 -0.0835,-0.31983 -0.0959,-0.70791 l -0.0684,-2.138061 0.68096,-0.02178 0.0637,1.991619 q 0.0112,0.35146 0.0704,0.59878 0.0519,0.24755 0.16665,0.3978 0.11475,0.15025 0.29991,0.21029 0.18539,0.0674 0.45631,0.0587 0.10983,-0.004 0.22675,-0.0146 0.11692,-0.0111 0.22629,-0.0292 0.10227,-0.0106 0.18967,-0.0281 0.0801,-0.0172 0.11645,-0.0257 l -0.1028,-3.214417 0.68096,-0.02178 z m -5.17123,0.12582 -1.44096,-0.0803 0.0318,-0.57053 1.44096,0.0803 0.0979,-1.755488 q 0.0159,-0.285266 -0.0174,-0.477891 -0.0337,-0.18531 -0.11535,-0.299921 -0.0821,-0.107297 -0.21128,-0.158525 -0.12921,-0.05123 -0.30476,-0.06101 -0.30721,-0.01713 -0.49374,0.03851 -0.19426,0.06254 -0.26903,0.08772 l -0.10026,-0.570559 q 0.10525,-0.04549 0.36534,-0.104364 0.26049,-0.06619 0.58965,-0.04784 0.38767,0.02161 0.63837,0.130976 0.24299,0.116268 0.38558,0.322324 0.1426,0.206056 0.19252,0.494993 0.0422,0.295843 0.021,0.676198 l -0.18922,3.393937 -0.68678,0.0791 z m -3.4361,-3.654601 q -0.23943,-0.03342 -0.42183,-0.05148 -0.19067,-0.01182 -0.31807,-1.6e-5 l -0.15698,1.124608 q 0.0675,0.04641 0.23133,0.09147 0.15557,0.0513 0.38775,0.08371 0.15237,0.02127 0.32954,0.02381 0.16991,0.0015 0.32515,-0.05077 0.14697,-0.04606 0.25851,-0.156235 0.11053,-0.102923 0.13787,-0.298822 0.0506,-0.362777 -0.16128,-0.540296 -0.21294,-0.170264 -0.61199,-0.225967 z m -0.41391,3.389181 q -0.40631,-0.0567 -0.66683,-0.20403 -0.26879,-0.14108 -0.40832,-0.36027 -0.1478,-0.21295 -0.18288,-0.49153 -0.0361,-0.27133 0.008,-0.590575 l 0.32915,-2.358049 q 0.0891,-0.0024 0.25276,-0.0091 0.15541,-4.99e-4 0.35434,0.0051 0.19894,0.0056 0.43314,0.02347 0.22796,0.0096 0.45289,0.04103 0.31924,0.04456 0.57858,0.147334 0.25934,0.102773 0.436,0.267973 0.17564,0.172455 0.25206,0.419824 0.0764,0.247369 0.0309,0.573868 -0.0436,0.311988 -0.19829,0.519693 -0.16199,0.206691 -0.3989,0.314163 -0.23691,0.107472 -0.53624,0.132261 -0.29934,0.02479 -0.61858,-0.01977 -0.10158,-0.01418 -0.20839,-0.04388 -0.10782,-0.02245 -0.1991,-0.05738 -0.0996,-0.02869 -0.17009,-0.05333 -0.0705,-0.02464 -0.0985,-0.03594 l -0.0263,0.188644 q -0.0233,0.16688 -0.009,0.33156 0.013,0.17194 0.0901,0.30845 0.0761,0.14377 0.23285,0.23962 0.14848,0.10209 0.40968,0.13855 0.33375,0.0466 0.59478,0.0312 0.25277,-0.009 0.3832,-0.0427 l 0.002,0.56981 q -0.1387,0.0398 -0.45052,0.0481 -0.31284,0.0155 -0.66836,-0.0341 z m -5.12497,-1.934691 q 0.0968,0.129079 0.30208,0.276998 0.2053,0.147923 0.4758,0.213683 0.28474,0.0692 0.51714,0.0126 0.22355,-0.0512 0.39668,-0.205135 0.17139,-0.146813 0.28891,-0.382117 0.11752,-0.235304 0.18674,-0.520046 0.15749,-0.647787 -0.0763,-1.08159 -0.23554,-0.426685 -0.76943,-0.556478 -0.2705,-0.06576 -0.45366,-0.08767 -0.192,-0.01652 -0.29858,-0.01227 z m -0.6057,2.491491 -0.68972,-0.047 1.31697,-5.417209 q 0.24337,-0.0087 0.61487,0.01377 0.3715,0.02246 0.83421,0.134949 0.42711,0.103835 0.73592,0.322155 0.30881,0.21832 0.49027,0.526308 0.18146,0.307989 0.23018,0.696797 0.0399,0.394196 -0.0692,0.842664 -0.10383,0.427112 -0.29714,0.757081 -0.20042,0.328241 -0.47628,0.532591 -0.27586,0.20435 -0.61657,0.2723 -0.34782,0.0662 -0.74646,-0.0307 -0.32034,-0.0779 -0.5416,-0.22214 -0.22838,-0.14599 -0.33036,-0.25372 z m -4.2804,-5.250783 q 0.15334,-0.427536 0.40113,-0.727803 0.24779,-0.300267 0.56439,-0.466894 0.30971,-0.1691 0.66948,-0.195715 0.3573,-0.01972 0.72278,0.111367 0.36547,0.131087 0.62879,0.373405 0.26084,0.249215 0.39936,0.579081 0.13162,0.327393 0.13208,0.7167 4.5e-4,0.389306 -0.15289,0.816842 -0.15088,0.42064 -0.39866,0.720907 -0.25027,0.307163 -0.55997,0.476263 -0.3166,0.166626 -0.6739,0.186346 -0.35978,0.02661 -0.72525,-0.104472 -0.36547,-0.131086 -0.62632,-0.380301 -0.26331,-0.242318 -0.39493,-0.569711 -0.13852,-0.329866 -0.13651,-0.726069 -4.5e-4,-0.389307 0.15042,-0.809946 z m 0.66888,0.239912 q -0.21765,0.606825 -0.068,1.057441 0.14032,0.455038 0.60923,0.623224 0.46891,0.168186 0.87336,-0.09146 0.39507,-0.255223 0.61272,-0.862048 0.21765,-0.606824 0.0773,-1.061862 -0.14969,-0.450616 -0.6186,-0.618802 -0.46891,-0.168186 -0.86398,0.08704 -0.40444,0.259646 -0.6221,0.86647 z m -3.80589,0.507979 q -0.0798,-0.03681 -0.17349,-0.09613 -0.10337,-0.05573 -0.19396,-0.121706 -0.0937,-0.05932 -0.16429,-0.116088 -0.0803,-0.05318 -0.11413,-0.08489 l 0.35492,-0.489788 q 0.0609,0.06035 0.21854,0.173374 0.14791,0.116606 0.41402,0.239309 0.17297,0.07976 0.36435,0.119597 0.18165,0.04343 0.24101,0.05466 l 1.34053,-2.907232 0.6187,0.285284 -1.52765,3.313048 q -0.25635,-0.0214 -0.61301,-0.105182 -0.35972,-0.07713 -0.76554,-0.264253 z m -4.82253,-3.727059 q 0.0509,0.153107 0.19867,0.358488 0.1478,0.20538 0.3835,0.353518 0.2481,0.155935 0.48645,0.17595 0.22825,0.02232 0.44125,-0.06878 0.2091,-0.08489 0.39517,-0.270794 0.18606,-0.185901 0.34199,-0.434002 0.35475,-0.564429 0.27056,-1.049982 -0.0881,-0.47935 -0.55328,-0.771727 -0.2357,-0.148138 -0.40246,-0.22699 -0.17686,-0.07655 -0.27928,-0.106314 z m -1.36443,2.170882 -0.6392,-0.263308 2.96665,-4.720118 q 0.23357,0.06893 0.57878,0.208021 0.34521,0.139096 0.74838,0.39249 0.37215,0.233902 0.5958,0.538871 0.22365,0.30497 0.29809,0.654602 0.0745,0.349633 -0.003,0.733828 -0.0872,0.386499 -0.33277,0.777258 -0.2339,0.372151 -0.52186,0.623802 -0.29416,0.247752 -0.62058,0.354091 -0.32641,0.10634 -0.67109,0.06276 -0.35088,-0.04748 -0.69822,-0.265787 -0.27911,-0.175426 -0.44322,-0.382401 -0.1703,-0.210873 -0.23286,-0.345373 z m 0.42581,-4.131633 q -0.31161,0.398013 -0.6573,0.601874 -0.3502,0.20963 -0.69411,0.256721 -0.3439,0.04709 -0.66871,-0.04904 -0.32481,-0.09613 -0.58438,-0.299356 -0.60568,-0.474191 -0.63064,-1.1078 -0.0295,-0.627842 0.57568,-1.400795 0.0271,-0.03461 0.0723,-0.09229 0.0406,-0.05191 0.0825,-0.09354 l 2.05352,1.607733 q 0.33119,-0.49433 0.28437,-0.921759 -0.0468,-0.427429 -0.54867,-0.820329 -0.28265,-0.221289 -0.50913,-0.324174 -0.23677,-0.101633 -0.37096,-0.13226 l 0.27727,-0.508638 q 0.13871,0.02486 0.43191,0.161369 0.28743,0.131993 0.59891,0.375863 0.39225,0.307095 0.59034,0.648266 0.18781,0.342423 0.20982,0.694597 0.022,0.352175 -0.10699,0.707079 -0.13928,0.356157 -0.40573,0.696487 z m -2.28961,-1.318065 q -0.29028,0.358887 -0.28057,0.738651 -5.8e-4,0.381015 0.32822,0.638433 0.18458,0.144516 0.3875,0.18243 0.19263,0.03917 0.38102,5.75e-4 0.18838,-0.03859 0.36348,-0.143408 0.16933,-0.109331 0.30857,-0.251527 z m -4.8386,-5.144089 q 0.32825,-0.313935 0.68411,-0.471811 0.35586,-0.157875 0.71355,-0.165447 0.35262,-0.01287 0.68637,0.124108 0.32844,0.142039 0.59681,0.422638 0.26836,0.280599 0.39562,0.615049 0.12197,0.339514 0.0985,0.696511 -0.0286,0.351703 -0.20214,0.700174 -0.17357,0.348472 -0.50182,0.662406 -0.32295,0.308872 -0.67881,0.466747 -0.36115,0.162939 -0.71378,0.175806 -0.35769,0.0076 -0.68614,-0.134467 -0.33374,-0.136975 -0.6021,-0.417574 -0.26837,-0.280599 -0.39034,-0.620113 -0.12726,-0.33445 -0.0987,-0.686153 0.0235,-0.356998 0.20237,-0.710532 0.17358,-0.348471 0.49653,-0.657342 z m 0.49116,0.513549 q -0.4659,0.445585 -0.53337,0.915594 -0.0778,0.469779 0.26648,0.829793 0.34432,0.360014 0.82216,0.308486 0.46749,-0.05176 0.93339,-0.497343 0.4659,-0.445585 0.54373,-0.915363 0.0675,-0.47001 -0.27685,-0.830024 -0.34431,-0.360014 -0.8118,-0.308256 -0.47784,0.05153 -0.94374,0.497113 z m -4.48834,-2.476362 q 1.01686,-0.437751 2.02817,-0.740534 1.00678,-0.308536 1.83886,-0.507348 l 0.38095,0.483281 q -0.38763,0.76264 -0.91822,1.675277 -0.53512,0.906883 -1.19824,1.793395 l -0.45351,-0.575334 q 0.22749,-0.291262 0.47712,-0.637284 0.23933,-0.34724 0.47413,-0.700233 0.22452,-0.354212 0.43177,-0.694818 0.20725,-0.340606 0.36029,-0.619819 -0.30723,0.0836 -0.68682,0.205578 -0.37959,0.121979 -0.7719,0.263317 -0.40261,0.14012 -0.7916,0.2975 -0.39929,0.156161 -0.73562,0.309343 z m 1.17436,-1.649582 q -0.42461,0.274264 -0.81795,0.353905 -0.3995,0.08362 -0.73989,0.01569 -0.3404,-0.06793 -0.61594,-0.264971 -0.27553,-0.197041 -0.4544,-0.473961 -0.41735,-0.646148 -0.2338,-1.2531 0.17741,-0.602977 1.00202,-1.135606 0.0369,-0.02385 0.0985,-0.0636 0.0554,-0.03577 0.10859,-0.06142 l 1.41504,2.19075 q 0.47461,-0.358885 0.5701,-0.778134 0.0955,-0.419249 -0.25032,-0.954628 -0.19477,-0.301536 -0.37517,-0.472813 -0.19053,-0.173455 -0.30733,-0.246271 l 0.42832,-0.390037 q 0.12296,0.06884 0.35542,0.293706 0.22848,0.218711 0.44312,0.551016 0.27029,0.418457 0.34595,0.805644 0.0655,0.385007 -0.0288,0.725023 -0.0943,0.340016 -0.33228,0.633243 -0.24807,0.291049 -0.61114,0.525565 z m -1.73286,-1.994187 q -0.39167,0.244261 -0.50665,0.60633 -0.12511,0.35989 0.10146,0.710656 0.12719,0.196921 0.30656,0.299093 0.16924,0.09999 0.35989,0.125111 0.19065,0.02512 0.3904,-0.01669 0.19577,-0.04796 0.37385,-0.136822 z m 2.56123,-2.808985 q 0.0422,0.07712 0.0897,0.209787 0.0475,0.132662 0.0611,0.233793 l -0.53065,0.19008 q -0.0159,-0.07482 -0.0487,-0.165402 -0.0329,-0.09058 -0.0715,-0.161282 -0.16876,-0.3085 -0.43189,-0.331566 -0.26022,-0.03301 -0.62656,0.167394 l -3.28424,1.796596 -0.32698,-0.597718 3.27782,-1.793081 q 0.6427,-0.351584 1.11293,-0.224699 0.47314,0.116942 0.77902,0.676098 z m -5.60867,1.974244 q 0.0879,0.160677 0.0483,0.332618 -0.0495,0.169029 -0.22945,0.267473 -0.17996,0.09844 -0.34256,0.04544 -0.17254,-0.05592 -0.26044,-0.216595 -0.0879,-0.160677 -0.0384,-0.329707 0.0395,-0.171941 0.21951,-0.270385 0.17996,-0.09844 0.3525,-0.04252 0.16261,0.05301 0.2505,0.213684 z m 2.23908,-4.459714 q -0.10099,-0.21965 -0.18416,-0.382991 -0.0929,-0.166937 -0.17153,-0.267849 l -1.03169,0.474345 q -0.003,0.08186 0.0478,0.244132 0.0407,0.158675 0.13863,0.371669 0.0643,0.139777 0.15768,0.290342 0.0904,0.143908 0.21812,0.246427 0.11805,0.09892 0.27099,0.133426 0.14628,0.03756 0.32599,-0.04506 0.3328,-0.153014 0.368,-0.427214 0.0285,-0.271139 -0.13978,-0.637223 z m -3.07725,1.479344 q -0.17137,-0.37274 -0.18782,-0.671574 -0.0262,-0.302431 0.0832,-0.538148 0.0996,-0.239313 0.31528,-0.419104 0.20902,-0.176731 0.50188,-0.311384 l 2.16322,-0.994594 q 0.05,0.07375 0.14399,0.207944 0.0842,0.130597 0.18683,0.301129 0.10259,0.170533 0.21384,0.377406 0.11483,0.197157 0.2097,0.403495 0.13465,0.292867 0.18798,0.566684 0.0533,0.273817 0.009,0.511676 -0.0505,0.240919 -0.21758,0.43869 -0.16709,0.19777 -0.46662,0.335483 -0.28621,0.131592 -0.54457,0.113308 -0.26142,-0.02494 -0.4797,-0.166476 -0.21827,-0.141537 -0.40059,-0.380236 -0.18231,-0.2387 -0.31697,-0.531567 -0.0428,-0.09318 -0.0754,-0.199146 -0.0393,-0.102901 -0.0591,-0.198611 -0.0295,-0.09931 -0.0468,-0.171987 -0.0173,-0.07268 -0.0229,-0.102365 l -0.17306,0.07957 q -0.15309,0.07039 -0.28422,0.170993 -0.13779,0.103667 -0.21116,0.242221 -0.08,0.141614 -0.0762,0.325306 -0.006,0.180097 0.10428,0.419715 0.14077,0.306179 0.29448,0.517719 0.14398,0.207944 0.2426,0.299675 l -0.47885,0.308859 q -0.10834,-0.09533 -0.28346,-0.353459 -0.18178,-0.255072 -0.33174,-0.581219 z m 1.76072,-4.682484 q -0.14083,-0.39311 -0.31099,-0.542259 -0.17263,-0.156045 -0.40022,-0.07451 -0.23449,0.08401 -0.30571,0.319629 -0.0712,0.235625 -0.0905,0.724986 -0.009,0.236549 -0.0222,0.459305 -0.023,0.218329 -0.0908,0.398265 -0.0678,0.179936 -0.2037,0.321993 -0.13587,0.142058 -0.37725,0.228533 -0.47587,0.170481 -0.87775,-0.08242 -0.40877,-0.25043 -0.62619,-0.857336 -0.0544,-0.151727 -0.088,-0.310866 -0.0406,-0.156668 -0.0599,-0.297588 -0.0263,-0.138449 -0.0333,-0.244885 -0.009,-0.113333 -0.009,-0.175918 l 0.59374,-0.08042 q -0.0181,0.123215 0.006,0.363675 0.017,0.242929 0.12818,0.553279 0.0964,0.26897 0.27836,0.429442 0.1751,0.162942 0.40269,0.08141 0.11724,-0.042 0.19207,-0.115502 0.0724,-0.0804 0.11611,-0.197231 0.0344,-0.12126 0.047,-0.28143 0.0127,-0.16017 0.0124,-0.377984 0.005,-0.289767 0.03,-0.52436 0.018,-0.232123 0.0927,-0.41453 0.0722,-0.189303 0.22439,-0.329405 0.14524,-0.137632 0.40042,-0.229049 0.49656,-0.177893 0.88515,0.10311 0.38613,0.274106 0.63073,0.956876 0.17048,0.47587 0.18408,0.774489 0.0205,0.296148 0.0137,0.407526 l -0.59373,0.08042 q 0.002,-0.125171 -0.002,-0.396203 -0.004,-0.271032 -0.14702,-0.671039 z m -6.31673,-3.449446 0.35707,-0.08169 q 0.34993,-0.08005 0.74537,-0.125428 0.38829,-0.04374 0.78149,-0.06606 l 0.0899,0.392776 q -0.36379,0.150861 -0.73249,0.280299 -0.37583,0.13107 -0.7329,0.212758 l -0.34992,0.08005 z m -0.28917,-1.264025 0.35707,-0.08169 q 0.34992,-0.08005 0.74536,-0.125428 0.3883,-0.04374 0.78149,-0.06606 l 0.0899,0.392776 q -0.36379,0.150861 -0.73248,0.280298 -0.37583,0.131071 -0.7329,0.212759 l -0.34993,0.08005 z m 2.31143,-5.104106 -0.1401,-1.80406 0.63544,-0.04935 0.1401,1.80406 z m -0.16625,-2.319857 -0.043,-1.80898 0.63717,-0.01516 0.043,1.80898 z m -2.44818,-6.232408 q 0.1059,-1.064322 0.57071,-1.592313 0.45825,-0.536007 1.26013,-0.456218 0.4374,0.04352 0.73491,0.235089 0.29094,0.183552 0.45802,0.502022 0.16053,0.310455 0.20594,0.741972 0.0454,0.431517 -0.008,0.963679 l -0.0558,0.561321 1.8735,0.186415 -0.0704,0.707119 -4.97899,-0.495416 q -0.0432,-0.306139 -0.0288,-0.672809 0.008,-0.374686 0.0383,-0.680861 z m 0.62544,0.0033 q -0.045,0.451973 -0.047,0.694715 l 1.98285,0.197296 0.053,-0.532161 q 0.0363,-0.364494 0.0215,-0.660442 -0.022,-0.296672 -0.11177,-0.504379 -0.0963,-0.215723 -0.28228,-0.344656 -0.18595,-0.128932 -0.49212,-0.159397 -0.2916,-0.02901 -0.49274,0.06876 -0.20042,0.09049 -0.32935,0.276435 -0.1355,0.177931 -0.20462,0.428725 -0.0691,0.250794 -0.0974,0.535099 z m 1.3111,-4.643177 q 0.0165,-0.08635 0.0515,-0.191552 0.0291,-0.113766 0.0713,-0.217591 0.035,-0.105198 0.073,-0.187434 0.0322,-0.09081 0.0549,-0.131238 l 0.56093,0.226308 q -0.0439,0.07367 -0.11555,0.253906 -0.0775,0.17167 -0.13239,0.459517 -0.0357,0.1871 -0.0282,0.382435 0.002,0.186767 0.005,0.247081 l 3.14472,0.599766 -0.12764,0.669243 -3.58369,-0.683485 q -0.0411,-0.253943 -0.0458,-0.62028 -0.0119,-0.367709 0.0718,-0.806676 z m 3.19028,-4.419986 q 0.437,0.123829 0.75347,0.350562 0.31647,0.226733 0.5043,0.53123 0.18983,0.297448 0.24092,0.65457 0.044,0.355124 -0.0618,0.728688 -0.10585,0.373564 -0.32965,0.652793 -0.23084,0.277232 -0.55049,0.437927 -0.31765,0.153648 -0.70602,0.180656 -0.38837,0.02701 -0.82537,-0.09682 -0.42995,-0.121832 -0.74642,-0.348565 -0.32352,-0.22873 -0.51335,-0.526178 -0.18783,-0.304497 -0.23187,-0.659621 -0.0511,-0.357122 0.0548,-0.730686 0.10585,-0.373563 0.3367,-0.650795 0.22379,-0.279229 0.54144,-0.432877 0.31966,-0.160695 0.71507,-0.185707 0.38837,-0.02701 0.81832,0.09482 z m -0.19373,0.683692 q -0.62026,-0.175757 -1.05961,0.0043 -0.44441,0.17103 -0.58022,0.650319 -0.13582,0.479289 0.15081,0.865081 0.28157,0.376746 0.90183,0.552503 0.62026,0.175757 1.06467,0.0047 0.43935,-0.180076 0.57516,-0.659365 0.13582,-0.479289 -0.14576,-0.856035 -0.28662,-0.385791 -0.90688,-0.561549 z m 2.88419,-3.429817 q 0.0217,0.103401 0.0148,0.376834 -0.011,0.263908 -0.13635,0.576729 -0.12804,0.319623 -0.34447,0.564377 -0.21371,0.237954 -0.50898,0.364313 -0.30207,0.123635 -0.67073,0.117999 -0.36866,-0.0056 -0.81069,-0.18272 -0.38763,-0.155289 -0.66093,-0.398942 -0.28011,-0.246377 -0.42415,-0.55662 -0.14811,-0.319768 -0.14927,-0.691153 -0.008,-0.374109 0.15277,-0.775337 0.17708,-0.442031 0.37586,-0.741209 0.19469,-0.308704 0.339,-0.511325 l 3.15542,1.264103 q 0.81606,0.326923 1.01437,0.895668 0.19832,0.568744 -0.14495,1.425604 -0.1335,0.333223 -0.30777,0.610648 -0.17155,0.270626 -0.33354,0.458273 l -0.50452,-0.336281 q 0.15108,-0.160446 0.31446,-0.41067 0.17291,-0.2543 0.29278,-0.55352 0.22612,-0.564439 0.0998,-0.89916 -0.12361,-0.341521 -0.61325,-0.537675 z m -2.6277,-1.044802 q -0.0653,0.08431 -0.15113,0.239347 -0.0899,0.145513 -0.19884,0.417532 -0.20433,0.510035 0.0172,0.922348 0.22425,0.405512 0.77508,0.626186 0.30603,0.122596 0.55361,0.13497 0.25031,0.0056 0.44488,-0.06642 0.1973,-0.0788 0.33341,-0.221566 0.13884,-0.149569 0.2124,-0.333182 0.1008,-0.251617 0.11725,-0.489675 0.01,-0.240783 -0.0365,-0.401332 z m 0.90447,-3.50516 q 0.0396,-0.07847 0.10224,-0.169959 0.0594,-0.101328 0.12853,-0.189512 0.0626,-0.09149 0.12186,-0.160052 0.056,-0.07841 0.0889,-0.11104 l 0.47685,0.372113 q -0.0625,0.05872 -0.18103,0.212237 -0.1218,0.143672 -0.25389,0.405247 -0.0859,0.170024 -0.13248,0.359862 -0.0499,0.179996 -0.0632,0.238916 l 2.85772,1.443087 -0.30711,0.608163 -3.25662,-1.644525 q 0.0305,-0.255427 0.12692,-0.60888 0.0899,-0.356754 0.29131,-0.755657 z m 4.39246,-0.859576 q 0.1262,-0.206204 0.21555,-0.366244 0.0869,-0.170112 0.12694,-0.291635 l -0.96854,-0.592725 q -0.0695,0.04337 -0.17618,0.175613 -0.10912,0.122173 -0.23149,0.322129 -0.0803,0.131221 -0.15334,0.292661 -0.0692,0.15519 -0.0832,0.318403 -0.0164,0.15314 0.0401,0.299381 0.0503,0.142416 0.21898,0.245665 0.31243,0.191201 0.55977,0.06773 0.24109,-0.127299 0.45141,-0.470974 z m -2.94245,-1.732009 q 0.21415,-0.349923 0.45319,-0.53001 0.23662,-0.19016 0.49329,-0.23063 0.25424,-0.05054 0.52368,0.02846 0.26319,0.07518 0.53813,0.243436 l 2.0308,1.24281 q -0.0334,0.08263 -0.0925,0.235398 -0.0616,0.142693 -0.14606,0.322878 -0.0845,0.180185 -0.19437,0.387789 -0.0998,0.205179 -0.21835,0.398887 -0.16825,0.274939 -0.36598,0.471722 -0.19773,0.196783 -0.4197,0.292839 -0.22822,0.09223 -0.48554,0.06359 -0.25731,-0.02864 -0.5385,-0.200721 -0.26869,-0.164434 -0.39739,-0.389205 -0.12488,-0.23102 -0.12888,-0.491136 -0.004,-0.260115 0.0927,-0.544476 0.0967,-0.284361 0.26498,-0.559301 0.0535,-0.08748 0.1234,-0.173562 0.0636,-0.08991 0.13206,-0.159665 0.066,-0.07983 0.11677,-0.134671 0.0507,-0.05484 0.0723,-0.07601 l -0.16247,-0.09942 q -0.14372,-0.08795 -0.30031,-0.140838 -0.16283,-0.05671 -0.31877,-0.04049 -0.16219,0.0124 -0.31263,0.117878 -0.15286,0.0954 -0.29053,0.320356 -0.1759,0.287436 -0.26601,0.532906 -0.0925,0.235398 -0.11379,0.368393 l -0.52321,-0.225716 q 0.0189,-0.143067 0.13572,-0.432278 0.11062,-0.293034 0.29799,-0.599217 z m 1.79268,-2.489174 q 0.10039,-0.219804 0.28643,-0.558709 0.1906,-0.344633 0.50585,-0.739772 0.22844,-0.286333 0.46395,-0.417077 0.22979,-0.135312 0.48376,-0.148236 0.003,-0.06293 0.0203,-0.18995 0.017,-0.127019 0.0717,-0.289556 0.049,-0.167106 0.13798,-0.349138 0.0833,-0.186602 0.2249,-0.364128 0.27413,-0.3436 0.55082,-0.478975 0.27097,-0.139944 0.55017,-0.114002 0.28376,0.02022 0.56772,0.181155 0.28852,0.155214 0.58631,0.392791 l 1.67218,1.334087 -0.4249,0.53258 -1.55765,-1.242712 q -0.26342,-0.210164 -0.47525,-0.332301 -0.20725,-0.127864 -0.39263,-0.153931 -0.18082,-0.03179 -0.3386,0.04851 -0.15893,0.07 -0.31427,0.264709 -0.21474,0.269153 -0.28192,0.506074 -0.0683,0.226626 -0.0613,0.335307 0.18545,0.07297 0.38125,0.191701 0.1958,0.118726 0.39051,0.274065 l 1.67218,1.334087 -0.4249,0.53258 -1.55765,-1.242712 q -0.26342,-0.210164 -0.47525,-0.332301 -0.21182,-0.122137 -0.3972,-0.148204 -0.18081,-0.03179 -0.33859,0.04851 -0.15894,0.07 -0.30971,0.258983 -0.064,0.08017 -0.13134,0.176369 -0.0674,0.0962 -0.12445,0.191233 -0.0582,0.08474 -0.10161,0.1626 -0.0434,0.07786 -0.0559,0.105332 l 2.514,2.0057 -0.42489,0.53258 z m 7.52143,-3.779796 q 0.17303,-0.168843 0.29899,-0.301997 0.12609,-0.143513 0.19476,-0.251465 l -0.79305,-0.812688 q -0.078,0.02495 -0.21396,0.126898 -0.13581,0.09159 -0.30359,0.255315 -0.11011,0.107445 -0.22059,0.245969 -0.10525,0.133408 -0.15895,0.288168 -0.0536,0.144401 -0.0348,0.300048 0.0137,0.150404 0.15185,0.291969 0.25582,0.262157 0.52593,0.203294 0.26499,-0.06411 0.55336,-0.345511 z m -2.4262,-2.402373 q 0.29361,-0.286521 0.5696,-0.402299 0.27611,-0.126137 0.53485,-0.10225 0.25886,0.01353 0.5006,0.156359 0.23662,0.137589 0.46175,0.368287 l 1.66284,1.704022 q -0.0527,0.07188 -0.14757,0.205418 -0.0948,0.123174 -0.22097,0.277048 -0.12621,0.153873 -0.28376,0.328085 -0.14719,0.174339 -0.30973,0.332949 -0.2307,0.225123 -0.47074,0.367243 -0.24004,0.14212 -0.47882,0.180645 -0.2439,0.03328 -0.48627,-0.05775 -0.24237,-0.09103 -0.47261,-0.326976 -0.22001,-0.225455 -0.28949,-0.474972 -0.0642,-0.254633 -0.004,-0.507746 0.0601,-0.253113 0.22376,-0.504959 0.16368,-0.251846 0.39438,-0.476969 0.0734,-0.07163 0.16228,-0.137891 0.0838,-0.0715 0.16728,-0.122288 0.0836,-0.06114 0.1463,-0.101822 0.0627,-0.04068 0.0887,-0.0559 l -0.13303,-0.136322 q -0.11767,-0.120592 -0.25645,-0.210359 -0.14389,-0.09501 -0.29904,-0.11763 -0.16025,-0.02786 -0.33201,0.03738 -0.17163,0.05489 -0.36038,0.239079 -0.24119,0.235356 -0.38888,0.451133 -0.14757,0.205418 -0.20089,0.3291 l -0.45164,-0.347442 q 0.0534,-0.134041 0.23784,-0.385633 0.17928,-0.256836 0.4362,-0.507541 z m 3.0958,-4.883143 0.22087,0.292212 q 0.21646,0.286367 0.41993,0.628461 0.19906,0.336248 0.38058,0.68575 l -0.32143,0.242957 q -0.28672,-0.269988 -0.55591,-0.553229 -0.27361,-0.289084 -0.49448,-0.581296 l -0.21645,-0.286367 z m 1.03443,-0.78188 0.22087,0.292212 q 0.21646,0.286368 0.41993,0.628461 0.19906,0.336249 0.38058,0.68575 l -0.32143,0.242957 q -0.28672,-0.269988 -0.55591,-0.553228 -0.27361,-0.289085 -0.49448,-0.581296 l -0.21645,-0.286368 z m 4.30042,3.767752 -2.68988,-4.30567 2.62813,-1.641875 0.32217,0.515686 -2.02547,1.26537 0.79959,1.279896 1.80179,-1.125635 0.31441,0.50326 -1.8018,1.125635 0.93156,1.491141 2.18079,-1.362406 0.32217,0.515686 z m 4.60087,-2.584956 q -0.56487,0.279404 -0.91748,0.174673 -0.3526,-0.10473 -0.60418,-0.584932 l -2.12147,-4.049271 0.5491,-0.420008 2.12487,4.05576 q 0.0782,0.149252 0.15514,0.232992 0.077,0.08374 0.16596,0.111543 0.089,0.0278 0.20334,0.0093 0.11093,-0.02504 0.2639,-0.08037 z m 3.84958,-1.669025 q -0.42929,0.169466 -0.81017,0.162299 -0.37406,-0.0099 -0.69577,-0.1664 -0.31489,-0.159232 -0.55572,-0.450087 -0.24352,-0.29767 -0.40492,-0.706519 -0.16139,-0.40885 -0.18005,-0.795287 -0.0118,-0.389127 0.10938,-0.720514 0.11852,-0.338202 0.37818,-0.598222 0.26377,-0.269524 0.65218,-0.422849 0.2385,-0.09415 0.49313,-0.14741 0.25464,-0.05326 0.50766,-0.05076 l 0.0694,0.594808 q -0.17,-0.01165 -0.37694,0.02278 -0.20012,0.03174 -0.41136,0.115131 -0.5315,0.209814 -0.68589,0.656685 -0.14758,0.444181 0.10528,1.084712 0.11297,0.286195 0.26845,0.500481 0.16229,0.211597 0.36582,0.328152 0.21034,0.113866 0.46606,0.123187 0.25302,0.0025 0.56647,-0.12123 0.25212,-0.09953 0.43772,-0.227924 0.18559,-0.128397 0.27992,-0.228639 l 0.29839,0.496536 q -0.0411,0.05559 -0.12982,0.13001 -0.0915,0.06761 -0.21285,0.139156 -0.11871,0.07837 -0.26325,0.151172 -0.13502,0.07693 -0.27131,0.130729 z m 4.2194,-3.427432 q 0.12656,0.436215 0.10198,0.824746 -0.0246,0.38853 -0.18327,0.70918 -0.15166,0.318608 -0.42744,0.551182 -0.27782,0.225538 -0.65071,0.333728 -0.3729,0.10819 -0.72829,0.06637 -0.35744,-0.04886 -0.6631,-0.234779 -0.29863,-0.187964 -0.52734,-0.503007 -0.22871,-0.315043 -0.35527,-0.751258 -0.12452,-0.42918 -0.0999,-0.81771 0.0225,-0.395567 0.1742,-0.714175 0.15869,-0.32065 0.43651,-0.546188 0.27578,-0.232574 0.64868,-0.340764 0.37289,-0.108189 0.73033,-0.05933 0.35539,0.04182 0.65402,0.229784 0.30567,0.185923 0.53642,0.508002 0.22871,0.315043 0.35323,0.744223 z m -0.68247,0.198007 q -0.17964,-0.619144 -0.56517,-0.896314 -0.38054,-0.286247 -0.85897,-0.147437 -0.47843,0.138809 -0.65372,0.58632 -0.17028,0.438433 0.009,1.057578 0.17964,0.619145 0.56018,0.905391 0.38554,0.27717 0.86397,0.138361 0.47843,-0.13881 0.64871,-0.577243 0.17529,-0.447511 -0.004,-1.066656 z m 1.49923,-2.215703 q 0.22036,-0.09915 0.59085,-0.232728 0.37048,-0.133576 0.868,-0.222994 0.44704,-0.08035 0.76599,-0.0037 0.31765,0.06944 0.53217,0.269074 0.22043,0.191123 0.34956,0.495419 0.12912,0.304296 0.1978,0.686445 l 0.37841,2.105422 -0.67057,0.120519 -0.35248,-1.961215 q -0.0622,-0.346097 -0.15674,-0.582177 -0.0873,-0.237377 -0.22269,-0.369355 -0.13537,-0.131979 -0.32729,-0.164475 -0.19322,-0.0397 -0.46,0.0082 -0.10816,0.01944 -0.22223,0.04738 -0.11407,0.02794 -0.21963,0.0618 -0.0996,0.02535 -0.18358,0.05532 -0.0767,0.02868 -0.11148,0.04237 l 0.5689,3.165343 -0.67056,0.12052 z m 5.09802,-0.876077 1.43733,-0.129948 0.0515,0.569097 -1.43733,0.129949 0.15831,1.751069 q 0.0257,0.284549 0.0866,0.47029 0.0603,0.178445 0.15772,0.279972 0.0968,0.09423 0.23208,0.126133 0.13528,0.0319 0.31039,0.01607 0.30644,-0.0277 0.4829,-0.109861 0.18311,-0.09011 0.25343,-0.125893 l 0.18212,0.549928 q -0.0975,0.06031 -0.34629,0.156357 -0.24811,0.103344 -0.57644,0.133028 -0.38669,0.03496 -0.65063,-0.0368 -0.25731,-0.07972 -0.42833,-0.262861 -0.17103,-0.183142 -0.26242,-0.461754 -0.0848,-0.286568 -0.11906,-0.665967 l -0.30607,-3.3854 0.66798,-0.178084 z m 3.93077,3.116382 q 0.24175,-0.0017 0.42484,-0.01037 0.19036,-0.01602 0.31469,-0.04621 l -0.008,-1.135482 q -0.0735,-0.0361 -0.24217,-0.05687 -0.16138,-0.02815 -0.3958,-0.02647 -0.15384,0.0011 -0.3295,0.02434 -0.16833,0.02318 -0.31432,0.09749 -0.13871,0.06693 -0.23306,0.192149 -0.0944,0.117894 -0.093,0.315687 0.003,0.366285 0.2381,0.511118 0.23542,0.137508 0.63833,0.134619 z m -0.0831,-3.413352 q 0.41024,-0.0029 0.6894,0.104949 0.28644,0.100511 0.45635,0.297097 0.17718,0.189207 0.25238,0.459733 0.0752,0.2632 0.0775,0.58553 l 0.0171,2.38085 q -0.0878,0.01528 -0.24876,0.04574 -0.15368,0.02308 -0.35132,0.04647 -0.19763,0.0234 -0.43195,0.03973 -0.22694,0.0236 -0.45404,0.02523 -0.32233,0.0023 -0.59385,-0.06168 -0.27152,-0.06399 -0.47031,-0.201759 -0.19885,-0.145096 -0.31041,-0.37873 -0.11157,-0.233634 -0.11393,-0.56329 -0.002,-0.315005 0.12065,-0.542994 0.13023,-0.228042 0.349,-0.368806 0.21878,-0.140764 0.51133,-0.208795 0.29256,-0.06803 0.61489,-0.07034 0.10256,-7.35e-4 0.21255,0.01313 0.10994,0.0065 0.20533,0.02783 0.10266,0.01392 0.17602,0.02804 0.0734,0.01413 0.10272,0.02124 l -0.001,-0.190468 q -0.001,-0.168491 -0.039,-0.329394 -0.0378,-0.168228 -0.13396,-0.292082 -0.0962,-0.13118 -0.2652,-0.203229 -0.16174,-0.07943 -0.42546,-0.07754 -0.33698,0.0024 -0.59302,0.05553 -0.24875,0.04574 -0.37292,0.09791 l -0.0846,-0.563501 q 0.13144,-0.05955 0.43875,-0.113036 0.30726,-0.06081 0.66622,-0.06339 z m 5.35176,1.169268 q -0.11452,-0.113641 -0.33913,-0.230152 -0.22462,-0.116511 -0.50181,-0.142259 -0.29178,-0.0271 -0.51348,0.06266 -0.21373,0.08315 -0.36265,0.26061 -0.14824,0.170166 -0.23031,0.420052 -0.0821,0.249886 -0.10917,0.541665 -0.0617,0.663798 0.23271,1.059013 0.29505,0.38792 0.84214,0.438738 0.27719,0.02575 0.46158,0.0208 0.19237,-0.01156 0.2972,-0.03125 z m 0.23715,-2.553067 0.68923,-0.0537 -0.51563,5.551097 q -0.23953,0.04397 -0.61035,0.07574 -0.37082,0.03177 -0.84496,-0.01227 -0.43767,-0.04066 -0.77493,-0.211774 -0.33726,-0.171118 -0.56156,-0.449463 -0.2243,-0.278344 -0.32901,-0.655942 -0.0967,-0.384215 -0.0541,-0.843767 0.0407,-0.437668 0.18395,-0.792229 0.15059,-0.353882 0.39382,-0.596156 0.24323,-0.242274 0.57044,-0.359028 0.33451,-0.116076 0.743,-0.07813 0.32825,0.03049 0.56813,0.141063 0.24718,0.111248 0.36373,0.203006 z m 4.9981,4.572908 q -0.0896,0.445283 -0.29109,0.778376 -0.20152,0.333093 -0.49054,0.543965 -0.28184,0.212318 -0.63392,0.290941 -0.35064,0.07144 -0.73129,-0.0051 -0.38065,-0.07658 -0.67638,-0.27805 -0.2943,-0.208657 -0.47929,-0.514888 -0.17781,-0.304786 -0.23484,-0.689892 -0.057,-0.385106 0.0325,-0.83039 0.0881,-0.438101 0.28965,-0.771194 0.20296,-0.340275 0.4848,-0.552592 0.28902,-0.210873 0.63966,-0.282314 0.35209,-0.07862 0.73273,-0.002 0.38065,0.07658 0.67494,0.285232 0.29574,0.201475 0.47355,0.506261 0.18499,0.30623 0.24058,0.698519 0.057,0.385106 -0.0311,0.823208 z m -0.69665,-0.140148 q 0.12714,-0.632015 -0.0865,-1.05609 -0.20497,-0.429811 -0.69334,-0.528059 -0.48838,-0.09825 -0.85079,0.217423 -0.35378,0.309933 -0.48093,0.941949 -0.12714,0.632015 0.0778,1.061827 0.21359,0.424074 0.70197,0.522322 0.48837,0.09825 0.84215,-0.211686 0.36241,-0.315671 0.48956,-0.947686 z m 3.69166,-1.05575 q 0.0843,0.02482 0.18562,0.06989 0.11037,0.04012 0.20959,0.09222 0.10128,0.04508 0.17941,0.09098 0.0872,0.04094 0.12526,0.06741 l -0.27996,0.536171 q -0.069,-0.05086 -0.24142,-0.13977 -0.16329,-0.09387 -0.44441,-0.176593 -0.18272,-0.05377 -0.37786,-0.06537 -0.18603,-0.01656 -0.24639,-0.01905 l -0.90376,3.071198 -0.65359,-0.192331 1.0299,-3.499901 q 0.25674,-0.01609 0.62179,0.01497 0.36712,0.02403 0.79582,0.150182 z m 5.31302,2.986574 q -0.0726,-0.144089 -0.24866,-0.325807 -0.17608,-0.181718 -0.43081,-0.294026 -0.26813,-0.118219 -0.50685,-0.10338 -0.22907,0.01109 -0.42657,0.132178 -0.19455,0.114383 -0.35162,0.325353 -0.15706,0.21097 -0.27528,0.479101 -0.26895,0.609996 -0.11508,1.078155 0.15683,0.461457 0.65957,0.683118 0.25473,0.112308 0.43117,0.166086 0.18611,0.05003 0.29178,0.06459 z m 1.03442,-2.34614 0.67069,0.167608 -2.24912,5.101178 q -0.24111,-0.03425 -0.60287,-0.121691 -0.36176,-0.08745 -0.79747,-0.279552 -0.4022,-0.177329 -0.6678,-0.446554 -0.2656,-0.269225 -0.39007,-0.604325 -0.12447,-0.335101 -0.10406,-0.726417 0.0301,-0.395065 0.21627,-0.81737 0.17733,-0.402196 0.42565,-0.693026 0.25503,-0.287875 0.56252,-0.440528 0.3075,-0.152653 0.65485,-0.159632 0.35405,-0.004 0.72943,0.161483 0.30165,0.132997 0.4941,0.313922 0.19914,0.183881 0.28059,0.30786 z m 0.17922,4.149644 q 0.25045,-0.439077 0.56284,-0.691017 0.31602,-0.258303 0.64942,-0.354878 0.33341,-0.09657 0.66874,-0.04867 0.33534,0.0479 0.62169,0.211242 0.66816,0.381125 0.78495,1.004379 0.12042,0.61689 -0.36597,1.46959 -0.0218,0.03818 -0.0581,0.101815 -0.0327,0.05727 -0.0681,0.104549 l -2.26538,-1.292197 q -0.25583,0.537216 -0.14738,0.953301 0.10845,0.416085 0.66207,0.731875 0.31181,0.177858 0.55084,0.246733 0.24902,0.06614 0.38624,0.07694 l -0.2004,0.543535 q -0.14085,-0.0044 -0.45077,-0.09688 -0.30356,-0.08882 -0.64719,-0.284823 -0.43271,-0.246825 -0.67829,-0.555582 -0.23558,-0.31149 -0.30854,-0.656727 -0.073,-0.345236 0.003,-0.71512 0.086,-0.372619 0.30019,-0.748061 z m 2.45686,0.971292 q 0.23504,-0.397267 0.17024,-0.771587 -0.0548,-0.377053 -0.41753,-0.58395 -0.20363,-0.116152 -0.4099,-0.124172 -0.19628,-0.01075 -0.37705,0.05481 -0.18078,0.06556 -0.33878,0.194715 -0.15165,0.132781 -0.26874,0.293705 z m 5.53488,4.386216 q -0.27913,0.358309 -0.60827,0.56623 -0.32913,0.20792 -0.68192,0.267399 -0.34702,0.06398 -0.69712,-0.02303 -0.34561,-0.09279 -0.6519,-0.331408 -0.3063,-0.238615 -0.48082,-0.551017 -0.17002,-0.318181 -0.19866,-0.674804 -0.0229,-0.35212 0.0982,-0.722118 0.12108,-0.369998 0.40022,-0.728308 0.27463,-0.35253 0.60376,-0.560451 0.33364,-0.213699 0.68065,-0.277681 0.35279,-0.05948 0.6984,0.03331 0.3501,0.08701 0.6564,0.325629 0.3063,0.238615 0.47632,0.556796 0.17452,0.312402 0.19738,0.664522 0.0286,0.356623 -0.0969,0.7324 -0.12109,0.369998 -0.39572,0.722529 z m -0.56058,-0.43671 q 0.39619,-0.508569 0.39463,-0.983394 0.009,-0.476102 -0.38426,-0.78225 -0.39298,-0.306147 -0.85826,-0.185716 -0.455,0.119154 -0.85119,0.627722 -0.39619,0.508569 -0.40492,0.984671 0.002,0.474825 0.39454,0.780973 0.39299,0.306147 0.84799,0.186993 0.46528,-0.120431 0.86147,-0.628999 z m 4.80058,1.797721 q -0.94244,0.580896 -1.899,1.02745 -0.95125,0.451586 -1.74559,0.769223 l -0.44715,-0.42278 q 0.27267,-0.810881 0.66498,-1.790944 0.39763,-0.975029 0.92486,-1.948506 l 0.53232,0.50331 q -0.18275,0.321233 -0.37943,0.699862 -0.18633,0.378338 -0.36733,0.76171 -0.17065,0.383082 -0.32619,0.750193 -0.15555,0.367112 -0.26638,0.665603 0.29182,-0.127365 0.64965,-0.303219 0.35783,-0.175854 0.72543,-0.372711 0.37796,-0.197147 0.73995,-0.409393 0.37235,-0.212536 0.68285,-0.412975 z m -0.92212,1.802746 q 0.38024,-0.333066 0.75782,-0.46903 0.3831,-0.140791 0.72976,-0.123057 0.34666,0.01774 0.6479,0.172637 0.30125,0.154902 0.51847,0.402885 0.50684,0.578627 0.41344,1.205813 -0.0879,0.622359 -0.82632,1.269182 -0.0331,0.02896 -0.0882,0.07723 -0.0496,0.04344 -0.0985,0.07655 l -1.71843,-1.961821 q -0.41741,0.424054 -0.45095,0.85273 -0.0335,0.428676 0.38641,0.90811 0.23653,0.270026 0.43991,0.413264 0.21371,0.143921 0.33986,0.198987 l -0.36709,0.448149 q -0.13165,-0.05024 -0.39432,-0.23893 -0.25785,-0.18318 -0.51851,-0.48076 -0.32824,-0.37473 -0.45937,-0.746808 -0.1208,-0.371393 -0.0769,-0.72151 0.0439,-0.350117 0.23671,-0.674814 0.20313,-0.324013 0.52827,-0.608809 z m 2.0043,1.721153 q 0.352,-0.298593 0.41314,-0.673528 0.0715,-0.374253 -0.20367,-0.688364 -0.15446,-0.176344 -0.34678,-0.251361 -0.18198,-0.07433 -0.37425,-0.07147 -0.19228,0.0029 -0.38383,0.07325 -0.18672,0.07591 -0.34999,0.189704 z m -2.12577,3.151424 q -0.053,-0.07017 -0.11925,-0.194521 -0.0663,-0.124347 -0.0944,-0.222432 l 0.49739,-0.265186 q 0.0266,0.07172 0.0722,0.156563 0.0457,0.08485 0.0942,0.149174 0.2118,0.280696 0.47549,0.265273 0.26225,-0.0052 0.59558,-0.256682 l 2.98824,-2.254858 0.41038,0.543848 -2.9824,2.250446 q -0.58478,0.441263 -1.06846,0.38407 -0.48511,-0.04693 -0.86901,-0.555695 z m 5.26217,-2.768457 q -0.11031,-0.146195 -0.0962,-0.322059 0.0244,-0.174428 0.18814,-0.297981 0.16374,-0.123554 0.33232,-0.09474 0.17884,0.03025 0.28916,0.176442 0.11031,0.146195 0.0859,0.320623 -0.0141,0.175864 -0.17787,0.299418 -0.16374,0.123553 -0.34258,0.09331 -0.16858,-0.02881 -0.2789,-0.175007 z m -1.56712,4.737788 q 0.13184,0.202639 0.23786,0.352159 0.11616,0.151665 0.20864,0.240074 l 0.95179,-0.619256 q -0.009,-0.08138 -0.0827,-0.234601 -0.0633,-0.151074 -0.19118,-0.347573 -0.0839,-0.128952 -0.1982,-0.264341 -0.11031,-0.129248 -0.25162,-0.212108 -0.13118,-0.08071 -0.2875,-0.09262 -0.15019,-0.0159 -0.31599,0.09197 -0.30703,0.19976 -0.30199,0.476163 0.0112,0.272408 0.23091,0.610141 z m 2.82955,-1.910888 q 0.22374,0.343873 0.28344,0.637144 0.0699,0.295416 -0.004,0.54452 -0.0638,0.251249 -0.25102,0.460477 -0.18111,0.205234 -0.45129,0.381022 l -1.9957,1.29844 q -0.0602,-0.0657 -0.17268,-0.184809 -0.10232,-0.116966 -0.22861,-0.270777 -0.12629,-0.15381 -0.26642,-0.342319 -0.14227,-0.178373 -0.26612,-0.368731 -0.17579,-0.270186 -0.26835,-0.533345 -0.0926,-0.263159 -0.0838,-0.504864 0.0149,-0.2457 0.15152,-0.465655 0.13657,-0.219955 0.41289,-0.399739 0.26405,-0.171794 0.52233,-0.191255 0.26227,-0.01332 0.4988,0.09499 0.23652,0.108309 0.4516,0.317976 0.21507,0.209667 0.39086,0.479854 0.0559,0.08597 0.10358,0.186067 0.0538,0.0961 0.0873,0.187918 0.0436,0.09396 0.0713,0.163355 0.0277,0.0694 0.0375,0.09795 l 0.15966,-0.103876 q 0.14123,-0.09189 0.25635,-0.210487 0.12126,-0.122592 0.17371,-0.270338 0.0586,-0.151742 0.0281,-0.332927 -0.0203,-0.179041 -0.16418,-0.400102 -0.18377,-0.282467 -0.36659,-0.469422 -0.17268,-0.184809 -0.28358,-0.261232 l 0.42888,-0.375177 q 0.12103,0.07857 0.33182,0.308507 0.21692,0.225944 0.41268,0.526833 z m -1.06146,4.88866 q 0.19648,0.368467 0.38651,0.4913 0.19347,0.129299 0.4068,0.01555 0.21978,-0.117194 0.25601,-0.360668 0.0362,-0.243475 -0.0159,-0.730435 -0.0258,-0.235293 -0.0448,-0.457656 -0.009,-0.219347 0.0319,-0.40723 0.041,-0.187884 0.15474,-0.348181 0.11378,-0.160297 0.34003,-0.280937 0.44604,-0.237834 0.8804,-0.04603 0.44083,0.18836 0.74416,0.757221 0.0758,0.142215 0.13227,0.294771 0.0629,0.149109 0.10253,0.285719 0.0461,0.133163 0.0685,0.237451 0.0258,0.110752 0.034,0.172807 l -0.57575,0.165857 q 2e-5,-0.12454 -0.0586,-0.358974 -0.0521,-0.23788 -0.20723,-0.528775 -0.13443,-0.252109 -0.33782,-0.384425 -0.19692,-0.135762 -0.41024,-0.02202 -0.1099,0.0586 -0.17325,0.142192 -0.0599,0.09006 -0.0862,0.212011 -0.0164,0.12497 -0.006,0.285278 0.0108,0.160309 0.0426,0.375779 0.037,0.287436 0.0465,0.523158 0.0159,0.232275 -0.0315,0.423606 -0.044,0.197794 -0.17413,0.358521 -0.12369,0.157279 -0.36287,0.284813 -0.46543,0.248175 -0.89074,0.02664 -0.42187,-0.215075 -0.76311,-0.855044 -0.23783,-0.446039 -0.29469,-0.739511 -0.0633,-0.290024 -0.0728,-0.401206 l 0.57574,-0.165856 q 0.0164,0.12411 0.0594,0.391724 0.0431,0.267614 0.24298,0.642546 z m 1.44906,2.971578 q 0.16635,0.383009 0.34594,0.520658 0.18251,0.144369 0.40425,0.04806 0.22847,-0.09923 0.28406,-0.339022 0.0556,-0.239794 0.0426,-0.729362 -0.007,-0.236605 -0.008,-0.459772 0.009,-0.219365 0.0644,-0.403368 0.0559,-0.184003 0.1821,-0.334679 0.12625,-0.150676 0.36143,-0.252822 0.46364,-0.201372 0.88126,0.02458 0.42434,0.223036 0.68116,0.814349 0.0642,0.147828 0.10826,0.304412 0.0508,0.153665 0.0793,0.293009 0.0353,0.136425 0.0493,0.242171 0.0169,0.112466 0.0201,0.174977 l -0.58717,0.119244 q 0.01,-0.124139 -0.0297,-0.362509 -0.0329,-0.241289 -0.16424,-0.543665 -0.11382,-0.262059 -0.30597,-0.410229 -0.18543,-0.151088 -0.40717,-0.05478 -0.11423,0.04961 -0.18407,0.12787 -0.0669,0.08498 -0.1029,0.204432 -0.0263,0.123257 -0.0284,0.283912 -0.002,0.160656 0.0124,0.377985 0.0139,0.289479 0.004,0.525201 -0.003,0.232804 -0.0653,0.419726 -0.0597,0.19364 -0.20227,0.343434 -0.13588,0.146875 -0.3845,0.254858 -0.48381,0.210128 -0.89002,-0.04474 -0.4033,-0.248149 -0.69223,-0.913376 -0.20137,-0.463643 -0.23455,-0.760724 -0.0399,-0.294162 -0.0404,-0.405745 l 0.58717,-0.119244 q 0.006,0.125022 0.0279,0.395224 0.0215,0.270203 0.19078,0.659932 z m 6.52969,3.027054 -0.35093,0.104968 q -0.34391,0.102868 -0.73552,0.17412 -0.38458,0.06915 -0.77546,0.117252 l -0.11547,-0.386026 q 0.3531,-0.174433 0.71249,-0.32781 0.36641,-0.155476 0.71734,-0.260443 l 0.34392,-0.102868 z m 0.37159,1.242299 -0.35094,0.104967 q -0.34391,0.102868 -0.73551,0.174121 -0.38459,0.06915 -0.77547,0.117251 l -0.11546,-0.386025 q 0.35309,-0.174433 0.71248,-0.32781 0.36641,-0.155476 0.71735,-0.260444 l 0.34391,-0.102868 z m -2.30149,3.478587 0.33239,1.778703 -0.62651,0.117075 -0.33239,-1.778702 z m 0.41358,2.28873 0.23642,1.793982 -0.63189,0.08327 -0.23642,-1.793982 z"
     id="text40"
     transform="matrix(1.2336614,0,0,1.237948,-165.12833,-12.844708)"
     aria-label=" -- Programa &quot;El contador de ovejas &quot;  -- Programa &quot;El contador de ovejass &quot; --  " /><circle
     style="fill:none;stroke:none"
     id="path41"
     cx="180.71892"
     cy="57.246368"
     r="40.78336" /></svg>
